<svg id="Layer_1" data-name="Layer 1" xmlns="http://www.w3.org/2000/svg" viewBox="0 0 777.67 666.92"><defs><style>.cls-1{fill:#fff;}</style></defs><title>logo-no-text-rev</title><path class="cls-1" d="M450.25,349.31c-1.22-2.43,0-4.87,0-8.52,0-1.22,0-1.22,1.22-2.43,1.22-2.43,3.65-3.65,6.08-6.08a67.5,67.5,0,0,0,7.3-9.74,4.47,4.47,0,0,0,1.22-3.65v-1.22h-1.22l-2.43,2.43c-3.65,4.87-7.3,9.74-12.17,13.39-1.22,1.22-3.65,2.43-4.87,3.65s-2.43,0-2.43-1.22a9.23,9.23,0,0,1-2.43-4.87c-2.43-3.65-6.08-4.87-9.74-6.08s-6.08,0-9.74,1.22a56.84,56.84,0,0,0-12.17,6.08c-2.43,2.43-4.87,3.65-7.3,6.08-4.87,4.87-9.74,9.74-14.6,13.39-2.43,2.43-4.87,3.65-7.3,6.08a202.07,202.07,0,0,0-17,15.82,28.74,28.74,0,0,0-7.3,11v2.43a4.25,4.25,0,0,1,1.22-2.43,1.19,1.19,0,0,1,1.16-1.22h.06c2.43-1.22,2.43-2.43,3.65-3.65,2.43-1.22,3.65-3.65,6.08-6.08,1.22-1.22,1.22-2.43,3.65-2.43,0,2.43,0,4.87,1.22,6.08,2.43,4.87,6.08,7.3,9.74,9.74,2.43,1.22,3.65,2.43,6.08,3.65,2.43,2.43,3.65,4.87,4.87,8.52,1.22,6.08,0,13.39-1.22,19.47h0v4.87c-2.43,1.22-4.87,3.65-7.3,4.87-2.43,0-3.65,1.22-6.08,2.43h-1.22c-3.65,2.43-8.52,3.65-12.17,4.87s-7.3,0-11,1.22c-2.43,0-6.08,1.22-8.52,1.22h-6.08c-4.87,0-9.74,0-14.6-1.22-3.65,0-7.3-1.22-11-2.43a59.32,59.32,0,0,1-13.39-4.87c-4.87-2.43-9.74-3.65-13.39-7.3l-11-7.3c-2.43-1.22-4.87-3.65-7.3-6.08-3.65-3.65-7.3-6.08-9.74-9.74a54,54,0,0,1-9.63-13.46c0-1.22-1.22-1.22-1.22-2.43-3.65-4.87-6.08-12.17-8.52-18.25,0-1.22-1.22-2.43-1.22-3.65-2.43-6.08-3.65-13.39-4.87-20.69,0-3.65-1.22-7.3,0-11v-6c0-1.22,0-2.43,1.22-2.43,3.65-1.22,7.3-3.65,11-6.08,4.87-2.43,11-4.87,15.82-7.3,2.43-1.22,6.08-2.43,8.52-4.87,3.65-2.43,8.52-4.87,12.17-7.3,2.43-1.22,4.87-2.43,6.08-3.65l1.22-1.22c4.87-1.22,7.3-4.87,12.17-6.08a1.19,1.19,0,0,0,1.22-1.16s0,0,0-.06c2.43-1.22,4.87-3.65,7.3-3.65,2.43-1.22,4.87-2.43,6.08-3.65a189.4,189.4,0,0,0,17-11,37,37,0,0,0,8.52-6.08c2.43-2.43,6.08-3.65,8.52-6.08l11-7.3c8.52-4.87,15.82-9.74,24.34-14.6,2.43-1.22,4.87-3.65,7.3-4.87s2.43-2.43,4.87-3.65,6.08-3.65,8.52-4.87a2.62,2.62,0,0,0,2.43-2.43,16.8,16.8,0,0,1,4.87-3.65c4.87-2.43,8.52-6.08,13.39-8.52,3.65-1.22,6.08-3.65,9.74-6.08h2.43c1.22,0,2.43,1.22,3.65,2.43,3.65,3.65,7.3,8.52,11,12.17a1.19,1.19,0,0,0,1.16,1.22h.06c1.22,4.87,3.65,8.52,4.87,13.39,1.22,6.08,4.87,12.17,8.52,18.25,1.22,2.43,3.65,3.65,4.87,4.87a14.66,14.66,0,0,1,6.08,6.08,9.3,9.3,0,0,1,2.43,6.08v17c0,2.43,1.22,4.87,1.22,7.3,0,3.65,2.43,6.08,3.65,7.3,2.43,2.43,8.52,3.65,12.17,0a4.25,4.25,0,0,0,1.22-2.43c1.22,1.22,1.22,2.43,2.43,3.65a68.91,68.91,0,0,1,3.65,21.9c0,2.43,0,2.43-2.43,2.43a9.23,9.23,0,0,0-4.87,2.43c-1.22,0-1.22,1.22-2.43,2.43-1.22,2.43-1.22,2.43-2.43,1.22-1.22,0-1.22-1.22-2.43-1.22-6.08-1.22-8.52,1.22-11,6.08,0,1.22,0,1.22-1.22,1.22-4.87-1.22-8.52,1.22-11,4.87-1.22,1.22-1.22,1.22-2.43,1.22-2.43-1.22-6.08,0-8.52,1.22-1.22,1.22-2.43,1.22-4.87,2.43C451.47,349.31,450.25,349.31,450.25,349.31Zm-38.94-66.93c0,4.87,1.22,9.74,1.22,13.39,1.22,4.87,3.65,8.52,6.08,13.39,1.22,2.43,4.87,3.65,7.3,3.65a17.35,17.35,0,0,0,14.6-7.3,37,37,0,0,0,6.08-8.52c1.22-1.22,2.43-2.43,2.43-4.87,2.43-6.08,4.87-12.17,6.08-18.25,1.22-8.52,2.43-17-1.22-25.55-1.22-4.87-3.65-8.52-8.52-11-2.43-1.22-3.65-2.43-6.08-2.43-6.08-2.43-6.08-2.43-4.87-8.52v-6.08c0-1.22-1.22-1.22-2.43-1.22s-1.22,1.22-1.22,2.43v6.08c0,2.43-1.22,3.65-2.43,6.08,0,2.43-1.22,3.65-2.43,4.87a67.5,67.5,0,0,0-7.3,9.74c-3.6,11-7.29,21.94-7.29,34.11Zm-56,73,7.3-7.3c1.22-1.22,2.43-3.65,4.87-4.87,3.65-2.43,7.3-6.08,11-9.74s8.52-7.3,12.17-11l11-11c2.43-3.65,2.43-7.3,3.65-11v-1.22c-1.22-3.65-3.65-7.3-6.08-11L398,287c-1.22-4.87-3.65-9.74-4.87-15.82,0-2.43-1.22-2.43-3.65-3.65a13.12,13.12,0,0,0-8.52-2.43q-3.65,0-7.3-3.65c-1.22-2.43-2.43-3.65-3.65-6.08l-1.22-1.22c-1.22,1.22,0,2.43,0,3.65,0,2.43,2.43,4.87,2.43,7.3,1.22,3.65,3.65,3.65,6.08,3.65,1.22,0,3.65,0,4.87,1.22q3.65,0,3.65,3.65c0,2.43,1.22,4.87,2.43,7.3a4.47,4.47,0,0,1,1.22,3.65c0,2.43,1.22,4.87,2.43,7.3l3.65,3.65c2.43,2.43,2.43,4.87,2.43,7.3a11.07,11.07,0,0,1-4.87,9.74,4.25,4.25,0,0,0-1.22,2.43c0,1.22-1.22,2.43-2.43,3.65-4.87,4.87-11,9.74-15.82,14.6-3.65,3.65-7.3,8.52-12.17,11l-3.65,3.65c-1.22,2.43-2.43,4.87-3.65,6.08Z" transform="translate(-2.44)"/><path class="cls-1" d="M434.43,197.19v-21.9c0-6.08,0-12.17,1.22-17v-17c0-4.87,0-8.52,1.22-13.39V76.72c3.65-6.08,3.65-12.17,4.87-18.25C443,53.6,443,50,443,45.08V43.86c-2.43-3.65-2.43-3.65-6.08-2.43A65.56,65.56,0,0,0,421,50c-7.3,3.65-12.17,9.74-17,15.82l-2.43,2.43c-2.43,2.43-3.65,4.87-6.08,6.08-2.43,2.43-4.87,6.08-8.52,8.52L385.75,84a16.8,16.8,0,0,1-3.65,4.87c-2.43,7.3-7.3,12.17-11,18.25s-7.3,13.39-11,20.69a43.23,43.23,0,0,0-4.87,11v1.22c-2.43,2.43-2.43,6.08-4.87,8.52l-11,21.9c-1.22,3.65-3.65,7.3-4.87,11-1.22,2.43-2.43,6.08-3.65,8.52A43.23,43.23,0,0,1,326,201c-1.22,3.65-2.43,6.08-3.65,9.74-1.22,2.43-1.22,3.65-2.43,6.08-1.22,1.22-1.22,3.65-2.43,4.87-2.43,4.87-6.08,9.74-9.74,14.6-1.22,2.43-2.43,3.65-3.65,6.08-2.43,3.65-6.08,7.3-9.74,11s-8.52,8.52-13.39,11c-1.22,1.22-2.43,1.22-3.65,2.43H275c-4.87,0-9.74,1.22-13.39,1.22H259.2c-6.08,0-13.39-1.22-19.47-2.43-3.65-1.22-8.52-1.22-12.17-2.43-2.43,0-4.87-1.22-7.3-2.43-1.22-1.22-3.65-1.22-4.87-1.22-4.87-2.43-11-4.87-15.82-7.3-6.08-2.43-11-4.87-17-7.3H177.7c-1.22,0-2.43,2.43-2.43,3.65a1.19,1.19,0,0,0,1.16,1.22h.06c2.43,3.65,4.87,7.3,6.08,11,0,1.22,1.22,1.22,1.22,2.43,2.43,3.65,6.08,7.3,7.3,11,1.22,2.43,3.65,4.87,4.87,7.3,2.43,3.65,4.87,8.52,8.52,12.17,1.22,2.43,3.65,4.87,4.87,7.3,2.43,3.65,3.65,7.3,6.08,9.74,2.43,3.65,4.87,6.08,7.3,9.74a1.19,1.19,0,0,0,1.16,1.22H224c-1.22,1.22-2.43,1.22-3.65,2.43-1.22-1.22-2.43-3.65-3.65-4.87a107,107,0,0,1-7.3-12.17c-6.08-8.52-12.17-15.82-17-24.34-2.43-3.65-3.65-6.08-7.3-9.74-1.22-1.22-2.43-3.65-3.65-4.87-2.43-4.87-6.08-8.52-8.52-12.17-3.65-7.3-9.74-12.17-13.39-19.47l-3.65-7.3c3.65-3.65,7.3-4.87,12.17-4.87,9.74,0,19.47,3.65,29.21,7.3a56.84,56.84,0,0,1,12.17,6.08c3.65,1.22,7.3,3.65,11,4.87,2.43,1.22,3.65,1.22,6.08,2.43A92.64,92.64,0,0,0,252,248.63h2.43c2.43,0,4.87,0,7.3-1.22s3.65-1.22,6.08-2.43,4.87-3.65,7.3-6.08a128.89,128.89,0,0,0,12.17-14.6c1.22-1.22,1.22-1.22,1.22-2.43,1.22-2.43,3.65-4.87,4.87-8.52s3.65-7.3,4.87-11a59.32,59.32,0,0,0,3.65-8.52,43.23,43.23,0,0,1,4.87-11c2.43-4.87,3.65-9.74,6.08-14.6,2.43-6.08,4.87-13.39,8.52-19.47l3.65-7.3c2.43-4.87,3.65-8.52,6.08-13.39,1.22-3.65,3.65-6.08,6.08-9.74l7.3-11L348,99.8a105.09,105.09,0,0,1,12.17-19.47c3.65-4.87,6.08-9.74,9.74-14.6a189.4,189.4,0,0,1,11-17A14.66,14.66,0,0,1,387,42.65l1.22-1.22c3.65-3.65,7.3-6.08,11-11s9.74-8.52,14.6-12.17c4.87-2.43,9.74-7.3,14.6-9.74a53.76,53.76,0,0,1,19.47-7.3c1.22,0,1.22,0,2.43-1.22,1.22,0,2.43,0,2.43,1.22h0c-1.22,6.08,0,12.17-1.22,18.25-1.22,7.3-3.65,14.6-3.65,20.69,0,7.3-2.43,14.6-2.43,21.9,0,4.87-1.22,9.74-1.22,14.6V88.83c1.22,4.87,0,9.74,0,13.39v14.6c0,1.22,0,3.65-1.22,4.87-1.22,3.65,0,8.52,0,12.17a111.36,111.36,0,0,1-1.22,19.47v6.08c0,7.3-1.22,14.6-1.22,23.12v6.08a1.19,1.19,0,0,1-1.16,1.22h-.06C438.08,196,436.87,197.19,434.43,197.19Z" transform="translate(-2.44)"/><path class="cls-1" d="M178.88,607.29c-2.43,1.22-4.87,0-6.08,0-2.43,0-4.87,0-7.3-1.22a21.53,21.53,0,0,1-9.74-6.08,29.07,29.07,0,0,1-8.52-15.82c-1.22-6.08,1.22-12.17,3.65-18.25A14.66,14.66,0,0,1,157,559.8c2.43-1.22,6.08-2.43,8.52-4.87,3.65-2.43,7.3-2.43,12.17-2.43,3.65,0,8.52,1.22,12.17,1.22,2.43,0,4.87,1.22,7.3,2.43,1.22,1.22,3.65,0,4.87,0,3.65-1.22,6.08-2.43,9.74-2.43h2.43c2.43-1.22,6.08-1.22,9.74-3.65,1.22-1.22,3.65-1.22,6.08-1.22,3.65-1.22,7.3-2.43,9.74-4.87a9.23,9.23,0,0,1,4.87-2.43h1.22c2.43-1.22,4.87-2.43,7.3-2.43l7.3-3.65c1.22-1.22,3.65-1.22,4.87-1.22A4.47,4.47,0,0,0,269,533a43.23,43.23,0,0,1,11-4.87c3.65-1.22,7.3-2.43,12.17-3.65,2.43,0,3.65-1.22,6.08-1.22,1.22,0,1.22,0,1.22-1.22,2.43-1.22,4.87-2.43,6.08-4.87,1.22-1.22,2.43-2.43,3.65-2.43,3.65-2.43,7.3-3.65,11-6.08s8.52-3.65,12.17-6.08c7.3-3.65,14.6-6.08,20.69-8.52,2.43-1.22,4.87-3.65,7.3-3.65,1.22-2.43,3.65-2.43,6.08-3.65A107.88,107.88,0,0,0,387,477.08c2.43-1.22,3.65-2.43,6.08-3.65a4.25,4.25,0,0,0,2.43-1.22c6.08-3.65,13.39-6.08,19.47-8.52,1.22-1.22,3.65,0,4.87-1.22,3.65-1.22,7.3-1.22,11-1.22,7.3-1.22,14.6,0,21.9-1.22,4.87,0,8.52,0,13.39-1.22h9.74c2.43,0,2.43,0,2.43,2.43,1.22,4.87,1.22,4.87-3.65,6.08-8.52,3.65-15.82,7.3-23.12,11-6.08,2.43-12.17,6.08-18.25,8.52-2.43,1.22-3.65,1.22-6.08,2.43a45,45,0,0,0-13.39,6.08l-7.3,3.65-7.3,3.65c-1.22,1.22-3.65,1.22-4.87,2.43A59.32,59.32,0,0,1,381,510c-4.87,2.43-8.52,4.87-13.39,7.3-7.3,2.43-13.39,6.08-20.69,9.74-4.87,2.43-8.52,4.87-13.39,6.08-6.08,2.43-12.17,4.87-17,8.52-2.43,2.43-6.08,3.65-9.74,4.87a59.33,59.33,0,0,1-8.52,3.65c-7.3,2.43-13.39,6.08-20.69,8.52-3.65,1.22-8.52,4.87-12.17,6.08s-7.3,3.65-11,6.08c-2.43,1.22-6.08,2.43-8.52,3.65a43.22,43.22,0,0,0-11,4.87c-1.22,1.22-2.43,1.22-3.65,2.43A1.19,1.19,0,0,0,230,582.9s0,0,0,.06c0,1.22-1.22,1.22-2.43,2.43-1.22,0-1.22,0-2.43,1.22-2.43,0-3.65,0-3.65-1.22s-1.22-1.22-1.22-2.43c-4.87-7.3-12.17-11-20.69-12.17h-7.3a11,11,0,0,0-6.08,1.22c-2.43,1.22-3.65,2.43-6.08,3.65a2.62,2.62,0,0,0-2.43,2.43l-1.22,1.22c-2.43,1.22-3.65,3.65-4.87,4.87-3.65,3.65-4.87,8.52-2.43,14.6C176.45,601.21,177.67,603.64,178.88,607.29Z" transform="translate(-2.44)"/><path class="cls-1" d="M411.31,366.34c-2.43-1.22-4.87-2.43-6.08-3.65,4.87,0,8.52-3.65,13.39-4.87,6.08-1.22,9.74,0,13.39,3.65,1.22,1.22,1.22,2.43,2.43,2.43,2.43,2.43,3.65,7.3,0,9.74-2.43,2.43-3.65,3.65-6.08,4.87-1.22,1.22-2.43,3.65-3.65,4.87a3.77,3.77,0,0,0-1.22,2.43c0,4.87,0,9.74,1.22,14.6,0,3.65,0,7.3,1.22,9.74s2.43,4.87,4.87,4.87,4.87,1.22,7.3,1.22c1.22,0,1.22,0,2.43,1.22,1.22,4.87,4.87,6.08,8.52,7.3,1.22,0,3.65,1.22,4.87,1.22,3.65,1.22,6.08,0,9.74-1.22h2.43c2.43,2.43,6.08,2.43,9.74,3.65a4.47,4.47,0,0,0,3.65-1.22c1.22,0,1.22,0,2.43-1.22a7.76,7.76,0,0,1,7.3,0c2.43,1.22,6.08,1.22,9.74,0h11c2.43,1.22,6.08,0,8.52-1.22,2.43,0,2.43,0,2.43,1.22v9.74c0,1.22-1.22,2.43,0,3.65a4.25,4.25,0,0,1,1.22-2.43c1.22,1.22,2.43,2.43,2.43,3.65,3.65,6.08,7.3,12.17,8.52,18.25,0,1.22,1.22,3.65,1.22,4.87a22.92,22.92,0,0,0,2.43,9.74c1.22,6.08,2.43,12.17,2.43,18.25v28c1.22,6.08,0,12.17,0,17a37.47,37.47,0,0,1-3.65,15.82,57.69,57.69,0,0,1-12.17-12.17c-2.43-2.43-4.87-6.08-7.3-8.52-1.22-1.22-2.43-3.65-3.65-4.87a56.84,56.84,0,0,1-6.15-12.15c-1.22-3.65-3.65-7.3-4.87-11l-3.65-7.3a123.57,123.57,0,0,1-7.3-30.42c-1.22-6.08-2.43-12.17-1.22-17h0c0-1.22,0-2.43-1.22-2.43a2.62,2.62,0,0,0-2.43,2.43v3.65a2.62,2.62,0,0,1-2.43,2.43H464.86c-4.87,1.22-8.52,0-13.39,1.22H422.26c-2.43,0-4.87,0-7.3-1.22a4.25,4.25,0,0,1-2.43-1.22c-2.43-2.43-6.08-3.65-8.52-6.08-1.22-1.22-2.43-1.22-2.43-2.43-1.22-1.22-2.43-1.22-3.65-2.43-2.43-1.22-2.43-3.65-2.43-6.08,0-4.87,0-9.74,1.22-14.6a89.9,89.9,0,0,0,0-25.55c-1.22-4.87-3.65-8.52-7.3-9.74s-6.08-3.65-8.52-6.08c-2.43-1.22-2.43-3.65-3.65-6.08-1.25-6.07-1.25-6.07,3.64-9.74,3.65-3.65,8.52-6.08,12.17-9.74,0-1.22,1.22-1.22,2.43-1.22h1.22c1.22,1.22,3.65,2.43,4.87,3.65a26.5,26.5,0,0,0,9.74,6.08C407.66,366.34,410.1,366.34,411.31,366.34ZM525.7,514.8c0-2.43-1.22-4.87-1.22-7.3,0-4.87-1.22-9.74-2.43-14.6-1.22-3.65-2.43-8.52-3.65-12.17-1.22-4.87-2.43-9.74-3.65-13.39,0-1.22-1.22-3.65-1.22-4.87v-1.22c1.22-1.22,2.43,0,3.65,1.22s1.22,3.65,2.43,4.87c1.22,2.43,2.43,4.87,2.43,7.3,1.22,4.87,2.43,8.52,3.65,13.39,1.22,3.65,1.22,7.3,2.43,11,1.22,6.08,1.22,12.17,2.43,17s1.22,8.52,1.22,13.39v9.74a4.47,4.47,0,0,0,1.22-3.65c0-6.08,0-12.17-1.22-18.25v-8.52l-3.63-21.94a22.56,22.56,0,0,0-2.43-8.52,57.37,57.37,0,0,0-7.3-18.25c0-1.22-1.22-2.43-1.22-3.65A11,11,0,0,0,516,450.3c-1.22,0-1.22,2.43-1.22,2.43-1.22,0-1.22-2.43-3.65-3.65v1.22c0,1.22,1.22,2.43,1.22,3.65,1.22,2.43,1.22,2.43-1.22,3.65,0-1.22-1.22-2.43-1.22-3.65s-1.22-2.43-3.65-1.22c0,1.22,1.22,3.65,1.22,4.87H505a2.62,2.62,0,0,1-2.43-2.43v-2.43c-1.22,0-1.22,0-1.22,1.22v2.43c0,1.22-1.22,1.22-2.43,1.22H497.7c-1.22,0-1.22,0-1.22-1.22v-3.65a1.19,1.19,0,0,0-1.16-1.22h-.06c0,1.22-1.22,2.43,0,3.65,0,1.22,0,1.22-1.22,1.22h-2.43v1.22c0,1.22,1.22,1.22,2.43,1.22a2.62,2.62,0,0,1,2.43,2.43v7.3c0,8.52,2.43,18.25,4.87,26.77,0,1.22,1.22,2.43,1.22,3.65,1.22,4.87,3.65,9.74,6.08,14.6,2.43,3.65,3.65,7.3,6.08,12.17l7.3,11c0,1.22,1.22,1.22,2.43,2.43-3.65-7.3-8.52-14.6-11-21.9a187.23,187.23,0,0,1-9.74-23.12c-1.22-4.87-2.43-11-3.65-15.82s-1.22-9.74-2.43-14.6V458.8h1.22c3.65,0,2.43,0,3.65,2.43,0,3.65,1.22,7.3,1.22,11,2.43,9.74,4.87,18.25,7.3,26.77a36.43,36.43,0,0,0,4.87,9.74A1.19,1.19,0,0,0,517,510h.06v-1.22c-1.22-4.87-3.65-8.52-3.65-13.39-1.22-3.65-1.22-6.08-2.43-9.74-2.43-7.3-4.87-15.82-4.87-24.34,0-3.65,0-3.65,2.43-3.65,1.22,0,1.22,0,2.43,1.22,0,1.22,1.22,2.43,1.22,3.65,1.22,7.3,2.43,14.6,4.87,20.69,2.43,7.3,3.65,14.6,6.08,20.69C523.27,509.94,524.48,512.37,525.7,514.8Z" transform="translate(-2.44)"/><path class="cls-1" d="M56,275.08c0-1.22,1.22-3.65,1.22-4.87,0-2.43,1.22-2.43,2.43-3.65,2.43,0,3.65-1.22,6.08-1.22,8.52-2.43,12.17-7.3,14.6-14.6,1.22-4.87,1.22-9.74,1.22-14.6-1.22-6.08-2.43-11-6.08-15.82-1.22-2.43-2.43-4.87-4.87-4.87-2.43-1.22-6.08-2.43-8.52-3.65-3.65,0-6.08-1.22-9.74-1.22H51.11c-2.43-1.22-3.65,0-6.08,1.22H43.81a4.47,4.47,0,0,1-1.22-3.65,11,11,0,0,0-1.22-6.08c-1.22-2.43,0-3.65,1.22-4.87,4.87-6.08,9.74-11,17-12.17,3.65-1.22,7.3,0,11,2.43a52.93,52.93,0,0,1,7.3,8.52c0,1.22,1.22,1.22,2.43,2.43A51.87,51.87,0,0,1,93.71,213c1.22,3.65,2.43,7.3,2.43,12.17s0,8.52-1.22,13.39c-1.22,3.65-1.22,8.52,1.22,12.17,3.65,6.08,7.3,11,12.17,14.6,3.65,0,4.87,2.43,7.3,4.87,2.43,3.65,6.08,6.08,9.74,8.52a109.72,109.72,0,0,1,12.17,11c2.43,2.43,6.08,4.87,8.52,7.3,2.43,1.22,6.08,4.87,8.52,6.08,6.08,3.65,9.74,8.52,15.82,12.17,4.87,3.65,8.52,7.3,13.39,9.74l21.9,14.6c3.65,2.43,6.08,3.65,9.74,6.08h1.22a43.71,43.71,0,0,0,12.17,8.52l1.22,1.22c1.22,7.3,4.87,13.39,7.3,19.47,1.22,3.65,3.65,7.3,6.08,11,2.43,4.87,4.87,9.74,9.74,13.39h0c4.87,7.3,12.17,12.17,18.25,18.25,3.65,3.65,8.52,6.08,13.39,8.52,1.22,0,2.43,2.43,3.65,2.43a41.12,41.12,0,0,0,14.6,7.3c2.43,1.22,6.08,2.43,8.52,3.65,3.65,1.22,7.3,1.22,11,2.43,4.87,0,9.74,1.22,14.6,1.22h13.39c1.22,0,1.22,0,2.43,1.22,4.87,4.87,12.17,8.52,17,12.17a112.23,112.23,0,0,0,9.74,6.08c2.43,2.43,6.08,3.65,8.52,6.08,1.22,1.22,3.65,2.43,4.87,3.65L385.8,476c-4.87,2.43-9.74,4.87-14.6,6.08a22.56,22.56,0,0,1-8.52,2.43H360.2c-2.43-1.22-3.65-3.65-6.08-4.87-6.08-3.65-11-8.52-15.82-12.17a147.64,147.64,0,0,0-17-12.17c-4.87-3.65-11-6.08-15.82-11-3.65-3.65-8.52-6.08-12.17-8.52-6.08-3.65-11-8.52-15.82-12.17-8.52-6.08-15.82-12.17-24.34-18.25-6.08-4.87-11-8.52-15.82-13.39-2.43-2.43-6.08-4.87-8.52-7.3-1.22,0-1.22-1.22-2.43-2.43-2.43-2.43-4.87-3.65-8.52-6.08L196,361.51c-4.87-2.43-8.52-6.08-12.17-9.74-7.3-6.08-15.82-11-23.12-17-9.74-7.3-18.25-13.39-28-20.69a246.77,246.77,0,0,0-21.9-15.82c-3.65-3.65-8.52-6.08-12.17-9.74-2.43-2.43-4.87-4.87-8.52-6.08-2.43-2.43-6.08-3.65-8.52-6.08s-4.87-3.65-8.52-4.87-6.08,0-9.74,1.22C60.85,275.08,58.41,275.08,56,275.08Z" transform="translate(-2.44)"/><path class="cls-1" d="M760.56,305.5a4.47,4.47,0,0,1,3.65,1.22l7.3,3.65a17.35,17.35,0,0,1,7.3,14.6c0,2.43,0,6.08-1.22,8.52-1.22,3.65-2.43,6.08-6.08,8.52a1.19,1.19,0,0,0-1.22,1.16s0,0,0,.06a13.82,13.82,0,0,1-9.74,3.65h0c-7.3,1.22-13.39-1.22-19.47-3.65-3.65-1.22-7.3,0-11,1.22-7.3,3.65-15.82,8.52-23.12,12.17l-14.6,7.3c-3.65,1.22-6.08,3.65-9.74,4.87s-7.3,3.65-9.74,4.87c-3.65,2.43-8.52,3.65-12.17,4.87-2.43,1.22-6.08,2.43-8.52,3.65a36.44,36.44,0,0,1-9.74,4.87c-2.43,1.22-4.87,2.43-7.3,2.43H634c-2.43,2.43-7.3,3.65-9.74,6.08-2.43,1.22-4.87,2.43-6.08,3.65-3.65,2.43-7.3,3.65-12.17,6.08-4.87,1.22-8.52,3.65-12.17,6.08-2.43,1.22-6.08,2.43-8.52,4.87-2.43,1.22-3.65,1.22-6.08,2.43-8.52,3.65-15.82,8.52-24.34,12.17l-7.3,3.65c-1.22,1.22-3.65,1.22-4.87,2.43s-2.43,1.22-4.87,1.22c-1.22,0-1.22,0-2.43,1.22-1.22,2.43-3.65,2.43-4.87,3.65a1.19,1.19,0,0,0-1.22,1.16s0,0,0,.06c-2.43,1.22-2.43,1.22-3.65-1.22l-2.43-2.43c-2.43-1.22-2.43-3.65-2.43-6.08v-4.87c0-2.43-1.22-6.08-1.22-8.52a4.47,4.47,0,0,1,1.22-3.65c2.43-1.22,3.65-2.43,6.08-2.43,4.87-1.22,8.52-4.87,13.39-6.08,6.08-3.65,12.17-7.3,18.25-9.74,4.87-2.43,11-6.08,15.82-8.52a65.56,65.56,0,0,0,15.82-8.52l18.25-11c3.65-2.43,8.52-3.65,12.17-6.08,4.87-2.43,9.74-6.08,14.6-8.52s8.52-4.87,13.39-7.3c3.65-2.43,8.52-3.65,12.17-6.08L662,342l18.25-11c3.65-2.43,7.3-4.87,12.17-6.08l7.3-3.65c3.65-2.43,6.08-6.08,9.74-8.52,1.22-1.22,2.43-2.43,2.43-3.65,1.22-2.43,2.43-6.08,3.65-8.52,0-1.22,1.22-2.43,2.43-1.22,1.22,0,1.22,1.22,1.22,2.43V303c-1.22,6.08-1.22,12.17,1.22,18.25,1.22,4.87,4.87,7.3,8.52,9.74,3.65,1.22,6.08,2.43,9.74,2.43,2.43,0,4.87,0,7.3-1.22l1.22-1.22c4.87-1.22,8.52-4.87,12.17-8.52,2.43-2.43,2.43-4.87,2.43-7.3C760.56,310.37,761.78,307.93,760.56,305.5Z" transform="translate(-2.44)"/><path class="cls-1" d="M187.4,620.68c1.22-2.43,1.22-4.87,0-6.08a112.24,112.24,0,0,0-6.08-9.74c0-1.22-1.22-1.22-1.22-2.43-2.43-3.65-2.43-7.3,0-12.17,1.22-3.65,3.65-7.3,7.3-8.52l1.22-1.22a4.47,4.47,0,0,1,3.65-1.22c1.22,0,3.65-1.22,4.87-1.22a4.25,4.25,0,0,1,2.43-1.22c3.65,0,8.52-1.22,12.17,0a17.54,17.54,0,0,1,13.39,11c1.22,3.65,2.43,7.3,2.43,12.17,2.43,1.22,2.43,0,3.65-1.22s0-3.65,0-6.08h1.22a10.39,10.39,0,0,0,8.52,0c1.22,0,3.65-1.22,4.87,0q3.65,0,3.65,3.65a4.47,4.47,0,0,0,1.22,3.65,2.62,2.62,0,0,0,2.43,2.43c1.22,0,2.43,1.22,3.65,2.43a26.55,26.55,0,0,0,6.08,4.87c4.87,6.08,12.17,8.52,18.25,11s12.17,3.65,18.25,6.08c3.65,1.22,7.3,2.43,12.17,2.43H345.6c8.52,0,17-2.43,25.55-4.87,1.22,0,2.43-1.22,3.65,0-3.65,6.08-7.3,11-14.6,12.17-1.22,0-2.43,1.22-3.65,2.43-3.65,2.43-8.52,3.65-13.39,4.87-8.52,3.65-17,4.87-24.34,6.08-2.43,0-4.87,0-7.3,1.22-2.43,0-3.65-2.43-4.87-1.22s-3.65,1.22-6.08,1.22h-6.08c-7.3,0-14.6-1.22-21.9-2.43-4.87-1.22-9.74-1.22-14.6,1.22-2.43,1.22-4.87,0-7.3-1.22s-4.87-2.43-7.3-2.43c-2.43-1.22-6.08,0-8.52,1.22-1.22,1.22-2.43,1.22-4.87,2.43-3.65,1.22-6.08-1.22-8.52-2.43-1.22-4.87-4.87-4.87-8.52-4.87-1.22,0-3.65,0-4.87,1.22l-1.22,1.22a23.39,23.39,0,0,1-14.6,4.87c-3.65,0-6.08-1.22-9.74-1.22a17.72,17.72,0,0,1-11-7.3l-3.65-3.65c-1.22-2.43-2.43-4.87-2.43-7.3V622c0-2.43,2.43-6.08,2.43-8.52a1.19,1.19,0,0,1,1.16-1.22h.06c3.65,0,6.08-1.22,9.74,0h2.43c1.22-1.22,1.22,0,1.22,0,1.22,1.22,1.22,3.65,2.43,4.87S186.19,619.46,187.4,620.68Z" transform="translate(-2.44)"/><path class="cls-1" d="M94.92,410.15c-1.22,0-2.43-1.22-3.65-1.22A158.54,158.54,0,0,1,73,396.8a187.16,187.16,0,0,1-15.82-14.6c-1.22-1.22-2.43-2.43-2.43-3.65-1.22-2.43-3.65-3.65-4.87-4.87-2.43-2.43-6.08-4.87-7.3-8.52-1.22-2.43-2.43-4.87-4.87-6.08a37,37,0,0,1-6.08-8.52c-2.43-2.43-3.65-6.08-6.08-9.74-2.43-4.87-4.87-9.74-4.87-14.6V320.1c0-3.65,0-6.08-2.43-9.74A13.73,13.73,0,0,1,14.6,297c0-3.65,0-6.08,1.22-9.74s0-7.3-1.22-11c-1.22-2.43-1.22-3.65-2.43-6.08v-8.52c2.43-6.08,0-12.17-3.65-17a28.09,28.09,0,0,1-6.08-8.52V222.75c0-2.43,1.22-3.65,2.43-4.87,2.43-3.65,4.87-7.3,8.52-9.74l1.22-1.22c2.43-2.43,4.87-2.43,8.52-1.22s6.08,2.43,8.52,4.87h1.22c2.43,0,3.65,0,3.65,2.43,2.43,0,2.43,2.43,3.65,3.65s0,2.43-1.22,3.65c-3.65,3.65-6.08,6.08-11,8.52h0c2.43,0,6.08,1.22,8.52-1.22s4.87-4.87,6.08-7.3a6.52,6.52,0,0,1,4.87-3.65c3.65-1.22,8.52,0,12.17,0,2.43,0,3.65,2.43,6.08,3.65,3.65,2.43,6.08,6.08,8.52,11,1.22,4.87,2.43,8.52,2.43,13.39,0,3.65-1.22,6.08-2.43,8.52-1.22,3.65-3.65,4.87-6.08,7.3a3.77,3.77,0,0,1-2.43,1.22c-2.43,0-4.87,1.22-8.52,1.22-1.22,0-2.43,1.22-3.65,2.43a43.24,43.24,0,0,0-2.43,12.17c0,2.43-1.22,6.08-4.87,6.08-1.22,0-2.43,1.22-2.43,3.65v4.87c0,2.43,1.22,3.65,2.43,6.08,1.22,1.22,2.43,2.43,1.22,4.87-1.22,4.87-1.22,11-1.22,15.82,0,2.43,1.22,4.87,1.22,6.08,3.65,3.65,4.87,8.52,6.08,13.39l7.3,18.25c1.22,1.22,2.43,2.43,2.43,4.87,1.22,3.65,3.65,6.08,4.87,9.74A291.14,291.14,0,0,0,84,396.8C88.83,400.42,91.27,405.28,94.92,410.15Z" transform="translate(-2.44)"/><path class="cls-1" d="M574.38,628c0,1.22-1.22,1.22-1.22,2.43a12.79,12.79,0,0,0,0,15.82c1.22,2.43,1.22,4.87,1.22,8.52V656c-2.43,2.43-3.65,4.87-6.08,7.3s-6.08,2.43-9.74,3.65h-6.08c-4.87-1.22-9.74-2.43-13.39-4.87h-1.22c-2.43,0-3.65-2.43-4.87-4.87-1.22-3.65-1.22-7.3-1.22-11,0-1.22,0-3.65-1.22-4.87,0-1.22-1.22-2.43,0-4.87V634c-1.22-4.87-4.87-9.74-8.52-13.39-3.65-4.87-9.74-7.3-14.6-11-2.43-1.22-3.65-3.65-6.08-4.87a16.8,16.8,0,0,0-4.87-3.65c-6.08-3.65-12.17-8.52-18.25-13.39-4.87-3.65-8.52-7.3-13.39-9.74-3.65-2.43-7.3-6.08-11-9.74a211.86,211.86,0,0,0-17-14.6,211.86,211.86,0,0,1-17-14.6c-3.65-3.65-7.3-7.3-12.17-9.74s-9.74-6.08-14.6-9.74l-1.22-1.22a3.77,3.77,0,0,1,2.43-1.22c6.08-1.22,11-4.87,17-7.3,3.65-2.43,7.3-3.65,9.74-4.87h2.43c4.87,4.87,11,8.52,15.82,12.17a128.89,128.89,0,0,0,14.6,12.17c2.43,2.43,4.87,3.65,6.08,6.08,4.87,4.87,9.74,8.52,14.6,13.39l3.65,3.65a129.32,129.32,0,0,0,13.39,11c2.43,2.43,4.87,3.65,8.52,6.08l11,7.3a81.85,81.85,0,0,1,13.39,8.52c2.43,1.22,4.87,3.65,7.3,4.87,3.65,2.43,8.52,2.43,12.17,3.65h1.22c2.43,0,2.43,1.22,1.22,3.65s-1.22,6.08-1.22,8.52v4.87c0,4.87,2.43,8.52,3.65,12.17v1.22c2.43,6.08,6.08,7.3,12.17,7.3h8.52C571.94,626.8,574.38,626.8,574.38,628Z" transform="translate(-2.44)"/><path class="cls-1" d="M631.57,447.88c2.43,0,3.65,1.22,4.87,2.43,6.08,4.87,9.74,11,13.39,17a84.49,84.49,0,0,1,6.08,15.82c1.22,2.43,1.22,6.08,1.22,8.52s1.22,4.87,1.22,7.3c1.22,2.43,0,4.87,1.22,7.3,1.22,3.65,1.22,7.3,1.22,11,0,1.22,0,3.65,1.22,4.87,1.22,6.08,0,11-1.22,15.82a43.75,43.75,0,0,1-2.43,13.39c0,1.22-1.22,2.43-1.22,3.65-1.22,7.3-3.65,13.39-8.52,18.25-2.43,2.43-3.65,7.3-3.65,11a6.69,6.69,0,0,1-3.65,6.08,11,11,0,0,0-7.3,7.3c-1.22,2.43-2.43,3.65-2.43,6.08-1.22,2.43-3.65,3.65-6.08,4.87a17.72,17.72,0,0,0-11,7.3c-3.65,1.22-3.65,3.65-3.65,4.87a20.56,20.56,0,0,1-3.63,12.07c-1.22,2.43-2.43,3.65-3.65,6.08-2.43,4.87-7.3,6.08-12.17,7.3h-6.08c-2.43,0-4.87-1.22-7.3-1.22-1.22,0-1.22-1.22-1.22-2.43-1.22-4.87,0-8.52,2.43-13.39,0-1.22,1.22-1.22,1.22,0,1.22,0,2.43,1.22,3.65,1.22s1.22,1.22,2.43,0V626.8l-1.22-1.22c-3.65-2.43-6.08-3.65-9.74-3.65-3.65-1.22-8.52-1.22-12.17-1.22-1.22,0-2.43-1.22-3.65-2.43a25.46,25.46,0,0,0-4.87-7.3,4.25,4.25,0,0,1-1.22-2.43v-7.3c0-3.65,1.22-6.08,1.22-9.74,0-2.43,0-4.87,2.43-6.08,2.43-2.43,4.87-3.65,8.52-4.87H578c2.43,0,6.08,1.22,8.52,1.22s3.65,0,4.87-2.43a16.8,16.8,0,0,1,4.87-3.65c7.3-1.22,13.39-4.87,19.47-9.74,2.43-2.43,4.87-3.65,6.08-6.08,1.22-1.22,2.43-3.65,3.65-6.08s3.65-6.08,4.87-8.52,3.65-6.08,2.43-9.74v-2.43c1.22-2.43,2.43-4.87,2.43-6.08s1.22-3.65,1.22-6.08c0-4.87,1.22-9.74,1.22-14.6,0-1.22-1.22-2.43,0-4.87,1.22-3.65,0-8.52,1.22-12.17v-8.52c0-6.08-2.43-12.17-2.43-18.25,0-2.43,0-4.87-2.43-7.3V454c0-2.43-1.22-3.65-2.43-6.08C631.57,449.09,630.35,447.88,631.57,447.88Z" transform="translate(-2.44)"/><path class="cls-1" d="M576.81,211.8c0-1.22,1.22-1.22,0,0,4.87-2.43,9.74-4.87,14.6-6.08,1.22,0,3.65,0,4.87-1.22a25,25,0,0,1,13.39,0c6.08,0,12.17,1.22,18.25,1.22,6.08,1.22,13.39,2.43,19.47,4.87a129.75,129.75,0,0,1,23.12,8.52c6.08,2.43,11,4.87,17,7.3,2.43,1.22,4.87,2.43,6.08,3.65,4.87,3.65,11,7.3,17,11,3.65,2.43,6.08,3.65,11,3.65q3.65,0,7.3,3.65c1.22,1.22,2.43,3.65,3.65,4.87,1.22,3.65,4.87,6.08,8.52,7.3,2.43,0,3.65,0,4.87,1.22,1.22,0,1.22,1.22,1.22,2.43h0c1.22,6.08,2.43,7.3,7.3,7.3h6.08c2.43,0,3.65,1.22,6.08,2.43,1.22,1.22,2.43,2.43,4.87,2.43,3.65,1.22,6.08,4.87,7.3,8.52,2.43,6.08,1.22,13.39-1.22,19.47-1.22,2.43-1.22,2.43-3.65,1.22-3.65-2.43-7.3-3.65-11-6.08-1.22,0-1.22-1.22-1.22-2.43,1.22-1.22,0-3.65,1.22-6.08v-1.22h-1.22c-1.22,1.22-1.22,3.65-2.43,4.87-2.43,7.3-3.65,12.17-2.43,17,0,2.43-1.22,6.08-1.22,8.52a1.19,1.19,0,0,1-1.16,1.22h-.06c-7.3,6.08-14.6,8.52-24.34,4.87h0c-2.43-2.43-6.08-4.87-7.3-8.52s-1.22-7.3,0-12.17c0-1.22,1.22-3.65,0-4.87a8.22,8.22,0,0,0-4.87-7.3c-7.3-3.65-4.87-2.43-4.87-8.52,0-3.65-1.22-7.3-6.08-8.52a16.8,16.8,0,0,1-4.87-3.65,85.2,85.2,0,0,0-19.47-17c-3.65-2.43-6.08-4.87-9.74-6.08-3.65-2.43-8.52-4.87-12.17-7.3a132.73,132.73,0,0,1-13.39-7.3,43.22,43.22,0,0,0-11-4.87c-7.3-2.43-14.6-6.08-21.9-8.52-8.52-2.43-18.25-4.87-26.77-7.3-2.43-1.22-4.87,0-7.3-1.22C579.25,213,578,211.8,576.81,211.8Z" transform="translate(-2.44)"/><path class="cls-1" d="M222.69,239.8c0-2.43,2.43-2.43,2.43-3.65,2.43-2.43,3.65-6.08,6.08-8.52,2.43-4.87,6.08-7.3,9.74-11,6.08-6.08,12.17-11,18.25-17,3.65-3.65,8.52-6.08,13.39-8.52,2.43-1.22,6.08-3.65,8.52-4.87,3.65-2.43,7.3-4.87,12.17-6.08l11-3.65h1.22c0,2.43-1.22,3.65-2.43,4.87-1.22-1.22-2.43,0-3.65,0a196.88,196.88,0,0,0-21.9,12.17c-2.43,2.43-6.08,3.65-8.52,6.08-4.87,3.65-8.52,6.08-13.39,9.74a16.8,16.8,0,0,0-3.65,4.87l-3.65,3.65a109.72,109.72,0,0,0-11,12.17,43.71,43.71,0,0,0-8.52,12.17c0,1.22-1.22,1.22-2.43,1.22C225.13,241,223.91,241,222.69,239.8Z" transform="translate(-2.44)"/><path class="cls-1" d="M497.71,337.14c0-3.65,2.43-4.87,4.87-7.3,1.22-1.22,3.65,0,4.87,1.22a13.82,13.82,0,0,1,3.65,9.74c0,2.43,1.22,4.87,1.22,7.3,0,3.65-1.22,6.08-4.87,6.08h-1.22c-1.22,0-2.43,1.22-2.43,0-2.43-2.43-2.43-3.65-2.43-4.87,0-2.43-1.22-4.87-2.43-7.3C498.93,339.57,497.71,338.35,497.71,337.14Z" transform="translate(-2.44)"/><path class="cls-1" d="M490.41,354.17c-3.65,0-6.08-1.22-6.08-4.87s-1.22-6.08,0-9.74,3.65-4.87,6.08-4.87h2.43c2.43,0,4.87,1.22,4.87,3.65s1.22,3.65,2.43,6.08c1.22,3.65,0,7.3-3.65,8.52S491.63,354.17,490.41,354.17Z" transform="translate(-2.44)"/><path class="cls-1" d="M455.12,424.8c-6.08,0-9.74-2.43-13.39-6.08,0-1.22-1.22-1.22,0-2.43,3.65-3.65,7.3-7.3,12.17-8.52,1.22,0,1.22,0,2.43,1.22,1.22,3.65,3.65,7.3,6.08,11,1.22,1.22,1.22,2.43-1.22,3.65C460,423.54,457.55,424.8,455.12,424.8Z" transform="translate(-2.44)"/><path class="cls-1" d="M483.11,417.45c0,2.43-1.22,4.87,0,7.3V426c-2.43,1.22-3.65,2.43-6.08,2.43a13.82,13.82,0,0,1-9.74-3.65c-2.43-1.22-2.43-2.43-2.43-3.65,0-2.43,2.43-4.87,2.43-7.3l1.22-1.22c1.22,0,2.43-1.22,3.65-1.22,3.65-1.22,6.08,0,9.74,1.22C483.11,413.8,483.11,415,483.11,417.45Z" transform="translate(-2.44)"/><path class="cls-1" d="M484.33,422.32c0-2.43,0-4.87,1.22-7.3a2.62,2.62,0,0,1,2.43-2.43c1.22,0,2.43-1.22,3.65,0,2.43,0,4.87,0,7.3,1.22,2.43,0,2.43,1.22,2.43,3.65v6.08c0,1.22,0,1.22-1.22,2.43-4.87,2.43-8.52,2.43-13.39,0C484.33,423.54,484.33,423.54,484.33,422.32Z" transform="translate(-2.44)"/><path class="cls-1" d="M453.9,370c-2.43-6.08-3.65-12.17,0-18.25,2.43-4.87,8.52-6.08,12.17-2.43,1.22,1.22,2.43,2.43,1.22,3.65,0,1.22-1.22,1.22-1.22,2.43a129.33,129.33,0,0,0-11,13.39A1.19,1.19,0,0,1,453.9,370Z" transform="translate(-2.44)"/><path class="cls-1" d="M501.36,422.32V415a2.62,2.62,0,0,1,2.43-2.43c2.43,0,6.08-1.22,8.52,0s2.43,1.22,2.43,3.65v6.08q0,3.65-3.65,3.65c-2.43,0-3.65,1.22-6.08,1.22a4.47,4.47,0,0,1-3.65-1.22V424.8C501.36,423.54,501.36,422.32,501.36,422.32Z" transform="translate(-2.44)"/><path class="cls-1" d="M475.81,357.8h-2.43q-3.65,0-3.65-3.65c-1.22-3.65,0-6.08,1.22-9.74,2.43-3.65,6.08-3.65,9.74-1.22a1.19,1.19,0,0,0,1.16,1.22h.06c0,2.43,0,4.87,1.22,7.3v1.22c-1.22,1.22-1.22,2.43-2.43,3.65a4.47,4.47,0,0,1-3.7,1.22Z" transform="translate(-2.44)"/></svg>