<svg id="Layer_1" data-name="Layer 1" xmlns="http://www.w3.org/2000/svg" viewBox="0 0 782.47 866.43"><defs><style>.cls-1{fill:#fff;}</style></defs><title>logo-rev</title><path class="cls-1" d="M450.25,468.51c-1.22-2.43,0-4.87,0-8.52,0-1.22,0-1.22,1.22-2.43,1.22-2.43,3.65-3.65,6.08-6.08a67.5,67.5,0,0,0,7.3-9.74,4.47,4.47,0,0,0,1.22-3.65v-1.22h-1.22l-2.43,2.43c-3.65,4.87-7.3,9.74-12.17,13.39-1.22,1.22-3.65,2.43-4.87,3.65s-2.43,0-2.43-1.22a9.23,9.23,0,0,1-2.43-4.87c-2.43-3.65-6.08-4.87-9.74-6.08s-6.08,0-9.74,1.22a56.84,56.84,0,0,0-12.17,6.08c-2.43,2.43-4.87,3.65-7.3,6.08-4.87,4.87-9.74,9.74-14.6,13.39-2.43,2.43-4.87,3.65-7.3,6.08a202.07,202.07,0,0,0-17,15.82,28.74,28.74,0,0,0-7.3,11v2.43a4.25,4.25,0,0,1,1.22-2.43,1.19,1.19,0,0,1,1.16-1.22h.06c2.43-1.22,2.43-2.43,3.65-3.65,2.43-1.22,3.65-3.65,6.08-6.08,1.22-1.22,1.22-2.43,3.65-2.43,0,2.43,0,4.87,1.22,6.08,2.43,4.87,6.08,7.3,9.74,9.74,2.43,1.22,3.65,2.43,6.08,3.65,2.43,2.43,3.65,4.87,4.87,8.52,1.22,6.08,0,13.39-1.22,19.47h0v4.87c-2.43,1.22-4.87,3.65-7.3,4.87-2.43,0-3.65,1.22-6.08,2.43h-1.22c-3.65,2.43-8.52,3.65-12.17,4.87s-7.3,0-11,1.22c-2.43,0-6.08,1.22-8.52,1.22h-6.08c-4.87,0-9.74,0-14.6-1.22-3.65,0-7.3-1.22-11-2.43a59.32,59.32,0,0,1-13.39-4.87c-4.87-2.43-9.74-3.65-13.39-7.3l-11-7.3c-2.43-1.22-4.87-3.65-7.3-6.08-3.65-3.65-7.3-6.08-9.74-9.74A54,54,0,0,1,249.46,505c0-1.22-1.22-1.22-1.22-2.43-3.65-4.87-6.08-12.17-8.52-18.25,0-1.22-1.22-2.43-1.22-3.65-2.43-6.08-3.65-13.39-4.87-20.69,0-3.65-1.22-7.3,0-11v-6c0-1.22,0-2.43,1.22-2.43,3.65-1.22,7.3-3.65,11-6.08,4.87-2.43,11-4.87,15.82-7.3,2.43-1.22,6.08-2.43,8.52-4.87,3.65-2.43,8.52-4.87,12.17-7.3,2.43-1.22,4.87-2.43,6.08-3.65l1.22-1.22c4.87-1.22,7.3-4.87,12.17-6.08a1.19,1.19,0,0,0,1.22-1.16s0,0,0-.06c2.43-1.22,4.87-3.65,7.3-3.65,2.43-1.22,4.87-2.43,6.08-3.65a189.4,189.4,0,0,0,17-11,37,37,0,0,0,8.52-6.08c2.43-2.43,6.08-3.65,8.52-6.08l11-7.3c8.52-4.87,15.82-9.74,24.34-14.6,2.43-1.22,4.87-3.65,7.3-4.87s2.43-2.43,4.87-3.65,6.08-3.65,8.52-4.87a2.62,2.62,0,0,0,2.43-2.43A16.8,16.8,0,0,1,413.8,331c4.87-2.43,8.52-6.08,13.39-8.52,3.65-1.22,6.08-3.65,9.74-6.08h2.43c1.22,0,2.43,1.22,3.65,2.43,3.65,3.65,7.3,8.52,11,12.17a1.19,1.19,0,0,0,1.16,1.22h.06c1.22,4.87,3.65,8.52,4.87,13.39,1.22,6.08,4.87,12.17,8.52,18.25,1.22,2.43,3.65,3.65,4.87,4.87a14.66,14.66,0,0,1,6.08,6.08,9.3,9.3,0,0,1,2.43,6.08v17c0,2.43,1.22,4.87,1.22,7.3,0,3.65,2.43,6.08,3.65,7.3,2.43,2.43,8.52,3.65,12.17,0a4.25,4.25,0,0,0,1.22-2.43c1.22,1.22,1.22,2.43,2.43,3.65a68.91,68.91,0,0,1,3.65,21.9c0,2.43,0,2.43-2.43,2.43a9.23,9.23,0,0,0-4.87,2.43c-1.22,0-1.22,1.22-2.43,2.43-1.22,2.43-1.22,2.43-2.43,1.22-1.22,0-1.22-1.22-2.43-1.22-6.08-1.22-8.52,1.22-11,6.08,0,1.22,0,1.22-1.22,1.22-4.87-1.22-8.52,1.22-11,4.87-1.22,1.22-1.22,1.22-2.43,1.22-2.43-1.22-6.08,0-8.52,1.22-1.22,1.22-2.43,1.22-4.87,2.43C451.47,468.51,450.25,468.51,450.25,468.51Zm-38.94-66.93c0,4.87,1.22,9.74,1.22,13.39,1.22,4.87,3.65,8.52,6.08,13.39,1.22,2.43,4.87,3.65,7.3,3.65a17.35,17.35,0,0,0,14.6-7.3,37,37,0,0,0,6.08-8.52c1.22-1.22,2.43-2.43,2.43-4.87,2.43-6.08,4.87-12.17,6.08-18.25,1.22-8.52,2.43-17-1.22-25.55-1.22-4.87-3.65-8.52-8.52-11-2.43-1.22-3.65-2.43-6.08-2.43-6.08-2.43-6.08-2.43-4.87-8.52v-6.08c0-1.22-1.22-1.22-2.43-1.22s-1.22,1.22-1.22,2.43v6.08c0,2.43-1.22,3.65-2.43,6.08,0,2.43-1.22,3.65-2.43,4.87a67.5,67.5,0,0,0-7.3,9.74c-3.6,11-7.29,21.94-7.29,34.11Zm-56,73,7.3-7.3c1.22-1.22,2.43-3.65,4.87-4.87,3.65-2.43,7.3-6.08,11-9.74s8.52-7.3,12.17-11l11-11c2.43-3.65,2.43-7.3,3.65-11v-1.22c-1.22-3.65-3.65-7.3-6.08-11L398,406.23c-1.22-4.87-3.65-9.74-4.87-15.82,0-2.43-1.22-2.43-3.65-3.65a13.12,13.12,0,0,0-8.52-2.43q-3.65,0-7.3-3.65c-1.22-2.43-2.43-3.65-3.65-6.08l-1.22-1.22c-1.22,1.22,0,2.43,0,3.65,0,2.43,2.43,4.87,2.43,7.3,1.22,3.65,3.65,3.65,6.08,3.65,1.22,0,3.65,0,4.87,1.22q3.65,0,3.65,3.65c0,2.43,1.22,4.87,2.43,7.3a4.47,4.47,0,0,1,1.22,3.65c0,2.43,1.22,4.87,2.43,7.3l3.65,3.65c2.43,2.43,2.43,4.87,2.43,7.3a11.07,11.07,0,0,1-4.87,9.74,4.25,4.25,0,0,0-1.22,2.43c0,1.22-1.22,2.43-2.43,3.65-4.87,4.87-11,9.74-15.82,14.6-3.65,3.65-7.3,8.52-12.17,11l-3.65,3.65c-1.22,2.43-2.43,4.87-3.65,6.08Z"/><path class="cls-1" d="M434.43,316.39v-21.9c0-6.08,0-12.17,1.22-17v-17c0-4.87,0-8.52,1.22-13.39V195.92c3.65-6.08,3.65-12.17,4.87-18.25,1.22-4.87,1.22-8.52,1.22-13.39v-1.22c-2.43-3.65-2.43-3.65-6.08-2.43A65.56,65.56,0,0,0,421,169.15c-7.3,3.65-12.17,9.74-17,15.82l-2.43,2.43c-2.43,2.43-3.65,4.87-6.08,6.08-2.43,2.43-4.87,6.08-8.52,8.52l-1.22,1.22a16.8,16.8,0,0,1-3.65,4.87c-2.43,7.3-7.3,12.17-11,18.25s-7.3,13.39-11,20.69a43.23,43.23,0,0,0-4.87,11v1.22c-2.43,2.43-2.43,6.08-4.87,8.52l-11,21.9c-1.22,3.65-3.65,7.3-4.87,11-1.22,2.43-2.43,6.08-3.65,8.52a43.23,43.23,0,0,1-4.87,11c-1.22,3.65-2.43,6.08-3.65,9.74-1.22,2.43-1.22,3.65-2.43,6.08-1.22,1.22-1.22,3.65-2.43,4.87-2.43,4.87-6.08,9.74-9.74,14.6-1.22,2.43-2.43,3.65-3.65,6.08-2.43,3.65-6.08,7.3-9.74,11s-8.52,8.52-13.39,11c-1.22,1.22-2.43,1.22-3.65,2.43H275c-4.87,0-9.74,1.22-13.39,1.22H259.2c-6.08,0-13.39-1.22-19.47-2.43-3.65-1.22-8.52-1.22-12.17-2.43-2.43,0-4.87-1.22-7.3-2.43-1.22-1.22-3.65-1.22-4.87-1.22-4.87-2.43-11-4.87-15.82-7.3-6.08-2.43-11-4.87-17-7.3H177.7c-1.22,0-2.43,2.43-2.43,3.65a1.19,1.19,0,0,0,1.16,1.22h.06c2.43,3.65,4.87,7.3,6.08,11,0,1.22,1.22,1.22,1.22,2.43,2.43,3.65,6.08,7.3,7.3,11,1.22,2.43,3.65,4.87,4.87,7.3,2.43,3.65,4.87,8.52,8.52,12.17,1.22,2.43,3.65,4.87,4.87,7.3,2.43,3.65,3.65,7.3,6.08,9.74,2.43,3.65,4.87,6.08,7.3,9.74a1.19,1.19,0,0,0,1.16,1.22H224c-1.22,1.22-2.43,1.22-3.65,2.43-1.22-1.22-2.43-3.65-3.65-4.87a107,107,0,0,1-7.3-12.17c-6.08-8.52-12.17-15.82-17-24.34-2.43-3.65-3.65-6.08-7.3-9.74-1.22-1.22-2.43-3.65-3.65-4.87-2.43-4.87-6.08-8.52-8.52-12.17-3.65-7.3-9.74-12.17-13.39-19.47l-3.65-7.3c3.65-3.65,7.3-4.87,12.17-4.87,9.74,0,19.47,3.65,29.21,7.3a56.84,56.84,0,0,1,12.17,6.08c3.65,1.22,7.3,3.65,11,4.87,2.43,1.22,3.65,1.22,6.08,2.43A92.64,92.64,0,0,0,252,367.83h2.43c2.43,0,4.87,0,7.3-1.22s3.65-1.22,6.08-2.43,4.87-3.65,7.3-6.08a128.89,128.89,0,0,0,12.17-14.6c1.22-1.22,1.22-1.22,1.22-2.43,1.22-2.43,3.65-4.87,4.87-8.52s3.65-7.3,4.87-11a59.32,59.32,0,0,0,3.65-8.52,43.23,43.23,0,0,1,4.87-11c2.43-4.87,3.65-9.74,6.08-14.6,2.43-6.08,4.87-13.39,8.52-19.47l3.65-7.3c2.43-4.87,3.65-8.52,6.08-13.39,1.22-3.65,3.65-6.08,6.08-9.74l7.3-11L348,219a105.09,105.09,0,0,1,12.17-19.47c3.65-4.87,6.08-9.74,9.74-14.6a189.4,189.4,0,0,1,11-17,14.66,14.66,0,0,1,6.08-6.08l1.22-1.22c3.65-3.65,7.3-6.08,11-11s9.74-8.52,14.6-12.17c4.87-2.43,9.74-7.3,14.6-9.74a53.76,53.76,0,0,1,19.47-7.3c1.22,0,1.22,0,2.43-1.22,1.22,0,2.43,0,2.43,1.22h0c-1.22,6.08,0,12.17-1.22,18.25-1.22,7.3-3.65,14.6-3.65,20.69,0,7.3-2.43,14.6-2.43,21.9,0,4.87-1.22,9.74-1.22,14.6V208c1.22,4.87,0,9.74,0,13.39V236c0,1.22,0,3.65-1.22,4.87-1.22,3.65,0,8.52,0,12.17a111.36,111.36,0,0,1-1.22,19.47v6.08c0,7.3-1.22,14.6-1.22,23.12v6.08A1.19,1.19,0,0,1,439.4,309h-.06C438.08,315.18,436.87,316.39,434.43,316.39Z"/><path class="cls-1" d="M178.88,726.49c-2.43,1.22-4.87,0-6.08,0-2.43,0-4.87,0-7.3-1.22a21.53,21.53,0,0,1-9.74-6.08,29.07,29.07,0,0,1-8.52-15.82c-1.22-6.08,1.22-12.17,3.65-18.25A14.66,14.66,0,0,1,157,679c2.43-1.22,6.08-2.43,8.52-4.87,3.65-2.43,7.3-2.43,12.17-2.43,3.65,0,8.52,1.22,12.17,1.22,2.43,0,4.87,1.22,7.3,2.43,1.22,1.22,3.65,0,4.87,0,3.65-1.22,6.08-2.43,9.74-2.43h2.43c2.43-1.22,6.08-1.22,9.74-3.65C225.16,668,227.59,668,230,668c3.65-1.22,7.3-2.43,9.74-4.87a9.23,9.23,0,0,1,4.87-2.43h1.22c2.43-1.22,4.87-2.43,7.3-2.43l7.3-3.65c1.22-1.22,3.65-1.22,4.87-1.22a4.47,4.47,0,0,0,3.65-1.22,43.23,43.23,0,0,1,11-4.87c3.65-1.22,7.3-2.43,12.17-3.65,2.43,0,3.65-1.22,6.08-1.22,1.22,0,1.22,0,1.22-1.22,2.43-1.22,4.87-2.43,6.08-4.87,1.22-1.22,2.43-2.43,3.65-2.43,3.65-2.43,7.3-3.65,11-6.08s8.52-3.65,12.17-6.08c7.3-3.65,14.6-6.08,20.69-8.52,2.43-1.22,4.87-3.65,7.3-3.65,1.22-2.43,3.65-2.43,6.08-3.65A107.88,107.88,0,0,0,387,596.28c2.43-1.22,3.65-2.43,6.08-3.65a4.25,4.25,0,0,0,2.43-1.22c6.08-3.65,13.39-6.08,19.47-8.52,1.22-1.22,3.65,0,4.87-1.22,3.65-1.22,7.3-1.22,11-1.22,7.3-1.22,14.6,0,21.9-1.22,4.87,0,8.52,0,13.39-1.22h9.74c2.43,0,2.43,0,2.43,2.43,1.22,4.87,1.22,4.87-3.65,6.08-8.52,3.65-15.82,7.3-23.12,11-6.08,2.43-12.17,6.08-18.25,8.52-2.43,1.22-3.65,1.22-6.08,2.43a45,45,0,0,0-13.39,6.08l-7.3,3.65-7.3,3.65c-1.22,1.22-3.65,1.22-4.87,2.43A59.32,59.32,0,0,1,381,629.15c-4.87,2.43-8.52,4.87-13.39,7.3-7.3,2.43-13.39,6.08-20.69,9.74-4.87,2.43-8.52,4.87-13.39,6.08-6.08,2.43-12.17,4.87-17,8.52-2.43,2.43-6.08,3.65-9.74,4.87a59.33,59.33,0,0,1-8.52,3.65c-7.3,2.43-13.39,6.08-20.69,8.52-3.65,1.22-8.52,4.87-12.17,6.08s-7.3,3.65-11,6.08c-2.43,1.22-6.08,2.43-8.52,3.65a43.22,43.22,0,0,0-11,4.87c-1.22,1.22-2.43,1.22-3.65,2.43A1.19,1.19,0,0,0,230,702.1s0,0,0,.06c0,1.22-1.22,1.22-2.43,2.43-1.22,0-1.22,0-2.43,1.22-2.43,0-3.65,0-3.65-1.22s-1.22-1.22-1.22-2.43c-4.87-7.3-12.17-11-20.69-12.17h-7.3a11,11,0,0,0-6.08,1.22c-2.43,1.22-3.65,2.43-6.08,3.65a2.62,2.62,0,0,0-2.43,2.43l-1.22,1.22c-2.43,1.22-3.65,3.65-4.87,4.87-3.65,3.65-4.87,8.52-2.43,14.6C176.45,720.41,177.67,722.84,178.88,726.49Z"/><path class="cls-1" d="M411.31,485.54c-2.43-1.22-4.87-2.43-6.08-3.65,4.87,0,8.52-3.65,13.39-4.87,6.08-1.22,9.74,0,13.39,3.65,1.22,1.22,1.22,2.43,2.43,2.43,2.43,2.43,3.65,7.3,0,9.74-2.43,2.43-3.65,3.65-6.08,4.87-1.22,1.22-2.43,3.65-3.65,4.87a3.77,3.77,0,0,0-1.22,2.43c0,4.87,0,9.74,1.22,14.6,0,3.65,0,7.3,1.22,9.74s2.43,4.87,4.87,4.87,4.87,1.22,7.3,1.22c1.22,0,1.22,0,2.43,1.22,1.22,4.87,4.87,6.08,8.52,7.3,1.22,0,3.65,1.22,4.87,1.22,3.65,1.22,6.08,0,9.74-1.22h2.43c2.43,2.43,6.08,2.43,9.74,3.65a4.47,4.47,0,0,0,3.65-1.22c1.22,0,1.22,0,2.43-1.22a7.76,7.76,0,0,1,7.3,0c2.43,1.22,6.08,1.22,9.74,0h11c2.43,1.22,6.08,0,8.52-1.22,2.43,0,2.43,0,2.43,1.22v9.74c0,1.22-1.22,2.43,0,3.65a4.25,4.25,0,0,1,1.22-2.43c1.22,1.22,2.43,2.43,2.43,3.65,3.65,6.08,7.3,12.17,8.52,18.25,0,1.22,1.22,3.65,1.22,4.87a22.92,22.92,0,0,0,2.43,9.74c1.22,6.08,2.43,12.17,2.43,18.25v28c1.22,6.08,0,12.17,0,17a37.47,37.47,0,0,1-3.65,15.82,57.69,57.69,0,0,1-12.17-12.17c-2.43-2.43-4.87-6.08-7.3-8.52-1.22-1.22-2.43-3.65-3.65-4.87A56.84,56.84,0,0,1,506.23,634c-1.22-3.65-3.65-7.3-4.87-11l-3.65-7.3a123.57,123.57,0,0,1-7.3-30.42c-1.22-6.08-2.43-12.17-1.22-17h0c0-1.22,0-2.43-1.22-2.43a2.62,2.62,0,0,0-2.43,2.43v3.65a2.62,2.62,0,0,1-2.43,2.43H464.86c-4.87,1.22-8.52,0-13.39,1.22H422.26c-2.43,0-4.87,0-7.3-1.22a4.25,4.25,0,0,1-2.43-1.22c-2.43-2.43-6.08-3.65-8.52-6.08-1.22-1.22-2.43-1.22-2.43-2.43-1.22-1.22-2.43-1.22-3.65-2.43-2.43-1.22-2.43-3.65-2.43-6.08,0-4.87,0-9.74,1.22-14.6a89.9,89.9,0,0,0,0-25.55c-1.22-4.87-3.65-8.52-7.3-9.74s-6.08-3.65-8.52-6.08c-2.43-1.22-2.43-3.65-3.65-6.08C376,488,376,488,380.89,484.33c3.65-3.65,8.52-6.08,12.17-9.74,0-1.22,1.22-1.22,2.43-1.22h1.22c1.22,1.22,3.65,2.43,4.87,3.65a26.5,26.5,0,0,0,9.74,6.08C407.66,485.54,410.1,485.54,411.31,485.54ZM525.7,634c0-2.43-1.22-4.87-1.22-7.3,0-4.87-1.22-9.74-2.43-14.6-1.22-3.65-2.43-8.52-3.65-12.17-1.22-4.87-2.43-9.74-3.65-13.39,0-1.22-1.22-3.65-1.22-4.87v-1.22c1.22-1.22,2.43,0,3.65,1.22s1.22,3.65,2.43,4.87c1.22,2.43,2.43,4.87,2.43,7.3,1.22,4.87,2.43,8.52,3.65,13.39,1.22,3.65,1.22,7.3,2.43,11,1.22,6.08,1.22,12.17,2.43,17s1.22,8.52,1.22,13.39v9.74a4.47,4.47,0,0,0,1.22-3.65c0-6.08,0-12.17-1.22-18.25v-8.52L528.14,606a22.56,22.56,0,0,0-2.43-8.52,57.37,57.37,0,0,0-7.3-18.25c0-1.22-1.22-2.43-1.22-3.65A11,11,0,0,0,516,569.5c-1.22,0-1.22,2.43-1.22,2.43-1.22,0-1.22-2.43-3.65-3.65v1.22c0,1.22,1.22,2.43,1.22,3.65,1.22,2.43,1.22,2.43-1.22,3.65,0-1.22-1.22-2.43-1.22-3.65s-1.22-2.43-3.65-1.22c0,1.22,1.22,3.65,1.22,4.87H505a2.62,2.62,0,0,1-2.43-2.43v-2.43c-1.22,0-1.22,0-1.22,1.22v2.43c0,1.22-1.22,1.22-2.43,1.22H497.7c-1.22,0-1.22,0-1.22-1.22v-3.65a1.19,1.19,0,0,0-1.16-1.22h-.06c0,1.22-1.22,2.43,0,3.65,0,1.22,0,1.22-1.22,1.22h-2.43v1.22c0,1.22,1.22,1.22,2.43,1.22a2.62,2.62,0,0,1,2.43,2.43v7.3c0,8.52,2.43,18.25,4.87,26.77,0,1.22,1.22,2.43,1.22,3.65,1.22,4.87,3.65,9.74,6.08,14.6,2.43,3.65,3.65,7.3,6.08,12.17l7.3,11c0,1.22,1.22,1.22,2.43,2.43-3.65-7.3-8.52-14.6-11-21.9a187.23,187.23,0,0,1-9.74-23.12c-1.22-4.87-2.43-11-3.65-15.82s-1.22-9.74-2.43-14.6V578h1.22c3.65,0,2.43,0,3.65,2.43,0,3.65,1.22,7.3,1.22,11,2.43,9.74,4.87,18.25,7.3,26.77a36.43,36.43,0,0,0,4.87,9.74,1.19,1.19,0,0,0,1.16,1.22h.06v-1.22c-1.22-4.87-3.65-8.52-3.65-13.39-1.22-3.65-1.22-6.08-2.43-9.74-2.43-7.3-4.87-15.82-4.87-24.34,0-3.65,0-3.65,2.43-3.65,1.22,0,1.22,0,2.43,1.22,0,1.22,1.22,2.43,1.22,3.65,1.22,7.3,2.43,14.6,4.87,20.69,2.43,7.3,3.65,14.6,6.08,20.69C523.27,629.14,524.48,631.57,525.7,634Z"/><path class="cls-1" d="M56,394.28c0-1.22,1.22-3.65,1.22-4.87,0-2.43,1.22-2.43,2.43-3.65,2.43,0,3.65-1.22,6.08-1.22,8.52-2.43,12.17-7.3,14.6-14.6,1.22-4.87,1.22-9.74,1.22-14.6-1.22-6.08-2.43-11-6.08-15.82-1.22-2.43-2.43-4.87-4.87-4.87-2.43-1.22-6.08-2.43-8.52-3.65-3.65,0-6.08-1.22-9.74-1.22H51.11c-2.43-1.22-3.65,0-6.08,1.22H43.81a4.47,4.47,0,0,1-1.22-3.65,11,11,0,0,0-1.22-6.08c-1.22-2.43,0-3.65,1.22-4.87,4.87-6.08,9.74-11,17-12.17,3.65-1.22,7.3,0,11,2.43a52.93,52.93,0,0,1,7.3,8.52c0,1.22,1.22,1.22,2.43,2.43a51.87,51.87,0,0,1,13.39,14.6c1.22,3.65,2.43,7.3,2.43,12.17s0,8.52-1.22,13.39c-1.22,3.65-1.22,8.52,1.22,12.17,3.65,6.08,7.3,11,12.17,14.6,3.65,0,4.87,2.43,7.3,4.87,2.43,3.65,6.08,6.08,9.74,8.52a109.72,109.72,0,0,1,12.17,11c2.43,2.43,6.08,4.87,8.52,7.3,2.43,1.22,6.08,4.87,8.52,6.08,6.08,3.65,9.74,8.52,15.82,12.17,4.87,3.65,8.52,7.3,13.39,9.74l21.9,14.6c3.65,2.43,6.08,3.65,9.74,6.08h1.22a43.71,43.71,0,0,0,12.17,8.52l1.22,1.22c1.22,7.3,4.87,13.39,7.3,19.47,1.22,3.65,3.65,7.3,6.08,11,2.43,4.87,4.87,9.74,9.74,13.39h0c4.87,7.3,12.17,12.17,18.25,18.25,3.65,3.65,8.52,6.08,13.39,8.52,1.22,0,2.43,2.43,3.65,2.43A41.12,41.12,0,0,0,303,555c2.43,1.22,6.08,2.43,8.52,3.65,3.65,1.22,7.3,1.22,11,2.43,4.87,0,9.74,1.22,14.6,1.22h13.39c1.22,0,1.22,0,2.43,1.22,4.87,4.87,12.17,8.52,17,12.17a112.23,112.23,0,0,0,9.74,6.08c2.43,2.43,6.08,3.65,8.52,6.08,1.22,1.22,3.65,2.43,4.87,3.65l-7.3,3.65c-4.87,2.43-9.74,4.87-14.6,6.08a22.56,22.56,0,0,1-8.52,2.43H360.2c-2.43-1.22-3.65-3.65-6.08-4.87-6.08-3.65-11-8.52-15.82-12.17a147.64,147.64,0,0,0-17-12.17c-4.87-3.65-11-6.08-15.82-11-3.65-3.65-8.52-6.08-12.17-8.52-6.08-3.65-11-8.52-15.82-12.17-8.52-6.08-15.82-12.17-24.34-18.25-6.08-4.87-11-8.52-15.82-13.39-2.43-2.43-6.08-4.87-8.52-7.3-1.22,0-1.22-1.22-2.43-2.43-2.43-2.43-4.87-3.65-8.52-6.08L196,480.71c-4.87-2.43-8.52-6.08-12.17-9.74-7.3-6.08-15.82-11-23.12-17-9.74-7.3-18.25-13.39-28-20.69a246.77,246.77,0,0,0-21.9-15.82c-3.65-3.65-8.52-6.08-12.17-9.74-2.43-2.43-4.87-4.87-8.52-6.08-2.43-2.43-6.08-3.65-8.52-6.08s-4.87-3.65-8.52-4.87-6.08,0-9.74,1.22C60.85,394.28,58.41,394.28,56,394.28Z"/><path class="cls-1" d="M760.56,424.7a4.47,4.47,0,0,1,3.65,1.22l7.3,3.65a17.35,17.35,0,0,1,7.3,14.6c0,2.43,0,6.08-1.22,8.52-1.22,3.65-2.43,6.08-6.08,8.52a1.19,1.19,0,0,0-1.22,1.16s0,0,0,.06a13.82,13.82,0,0,1-9.74,3.65h0c-7.3,1.22-13.39-1.22-19.47-3.65-3.65-1.22-7.3,0-11,1.22-7.3,3.65-15.82,8.52-23.12,12.17l-14.6,7.3c-3.65,1.22-6.08,3.65-9.74,4.87s-7.3,3.65-9.74,4.87c-3.65,2.43-8.52,3.65-12.17,4.87-2.43,1.22-6.08,2.43-8.52,3.65a36.44,36.44,0,0,1-9.74,4.87c-2.43,1.22-4.87,2.43-7.3,2.43H634c-2.43,2.43-7.3,3.65-9.74,6.08-2.43,1.22-4.87,2.43-6.08,3.65-3.65,2.43-7.3,3.65-12.17,6.08-4.87,1.22-8.52,3.65-12.17,6.08-2.43,1.22-6.08,2.43-8.52,4.87-2.43,1.22-3.65,1.22-6.08,2.43-8.52,3.65-15.82,8.52-24.34,12.17l-7.3,3.65c-1.22,1.22-3.65,1.22-4.87,2.43s-2.43,1.22-4.87,1.22c-1.22,0-1.22,0-2.43,1.22-1.22,2.43-3.65,2.43-4.87,3.65a1.19,1.19,0,0,0-1.22,1.16s0,0,0,.06c-2.43,1.22-2.43,1.22-3.65-1.22l-2.43-2.43c-2.43-1.22-2.43-3.65-2.43-6.08v-4.87c0-2.43-1.22-6.08-1.22-8.52a4.47,4.47,0,0,1,1.22-3.65c2.43-1.22,3.65-2.43,6.08-2.43,4.87-1.22,8.52-4.87,13.39-6.08,6.08-3.65,12.17-7.3,18.25-9.74,4.87-2.43,11-6.08,15.82-8.52a65.56,65.56,0,0,0,15.82-8.52l18.25-11c3.65-2.43,8.52-3.65,12.17-6.08,4.87-2.43,9.74-6.08,14.6-8.52s8.52-4.87,13.39-7.3c3.65-2.43,8.52-3.65,12.17-6.08l1.22-1.22,18.25-11c3.65-2.43,7.3-4.87,12.17-6.08l7.3-3.65c3.65-2.43,6.08-6.08,9.74-8.52,1.22-1.22,2.43-2.43,2.43-3.65,1.22-2.43,2.43-6.08,3.65-8.52,0-1.22,1.22-2.43,2.43-1.22,1.22,0,1.22,1.22,1.22,2.43v1.22c-1.22,6.08-1.22,12.17,1.22,18.25,1.22,4.87,4.87,7.3,8.52,9.74,3.65,1.22,6.08,2.43,9.74,2.43,2.43,0,4.87,0,7.3-1.22l1.22-1.22c4.87-1.22,8.52-4.87,12.17-8.52,2.43-2.43,2.43-4.87,2.43-7.3C760.56,429.57,761.78,427.13,760.56,424.7Z"/><path class="cls-1" d="M187.4,739.88c1.22-2.43,1.22-4.87,0-6.08a112.24,112.24,0,0,0-6.08-9.74c0-1.22-1.22-1.22-1.22-2.43-2.43-3.65-2.43-7.3,0-12.17,1.22-3.65,3.65-7.3,7.3-8.52l1.22-1.22a4.47,4.47,0,0,1,3.65-1.22c1.22,0,3.65-1.22,4.87-1.22a4.25,4.25,0,0,1,2.43-1.22c3.65,0,8.52-1.22,12.17,0a17.54,17.54,0,0,1,13.39,11c1.22,3.65,2.43,7.3,2.43,12.17,2.43,1.22,2.43,0,3.65-1.22s0-3.65,0-6.08h1.22a10.39,10.39,0,0,0,8.52,0c1.22,0,3.65-1.22,4.87,0q3.65,0,3.65,3.65a4.47,4.47,0,0,0,1.22,3.65,2.62,2.62,0,0,0,2.43,2.43c1.22,0,2.43,1.22,3.65,2.43a26.55,26.55,0,0,0,6.08,4.87c4.87,6.08,12.17,8.52,18.25,11s12.17,3.65,18.25,6.08c3.65,1.22,7.3,2.43,12.17,2.43H345.6c8.52,0,17-2.43,25.55-4.87,1.22,0,2.43-1.22,3.65,0-3.65,6.08-7.3,11-14.6,12.17-1.22,0-2.43,1.22-3.65,2.43-3.65,2.43-8.52,3.65-13.39,4.87-8.52,3.65-17,4.87-24.34,6.08-2.43,0-4.87,0-7.3,1.22-2.43,0-3.65-2.43-4.87-1.22s-3.65,1.22-6.08,1.22h-6.08c-7.3,0-14.6-1.22-21.9-2.43-4.87-1.22-9.74-1.22-14.6,1.22-2.43,1.22-4.87,0-7.3-1.22s-4.87-2.43-7.3-2.43c-2.43-1.22-6.08,0-8.52,1.22-1.22,1.22-2.43,1.22-4.87,2.43-3.65,1.22-6.08-1.22-8.52-2.43-1.22-4.87-4.87-4.87-8.52-4.87-1.22,0-3.65,0-4.87,1.22l-1.22,1.22a23.39,23.39,0,0,1-14.6,4.87c-3.65,0-6.08-1.22-9.74-1.22a17.72,17.72,0,0,1-11-7.3L167.88,757c-1.22-2.43-2.43-4.87-2.43-7.3v-8.52c0-2.43,2.43-6.08,2.43-8.52a1.19,1.19,0,0,1,1.16-1.22h.06c3.65,0,6.08-1.22,9.74,0h2.43c1.22-1.22,1.22,0,1.22,0,1.22,1.22,1.22,3.65,2.43,4.87S186.19,738.66,187.4,739.88Z"/><path class="cls-1" d="M94.92,529.35c-1.22,0-2.43-1.22-3.65-1.22A158.54,158.54,0,0,1,73,516a187.16,187.16,0,0,1-15.82-14.6c-1.22-1.22-2.43-2.43-2.43-3.65-1.22-2.43-3.65-3.65-4.87-4.87-2.43-2.43-6.08-4.87-7.3-8.52-1.22-2.43-2.43-4.87-4.87-6.08a37,37,0,0,1-6.08-8.52c-2.43-2.43-3.65-6.08-6.08-9.74-2.43-4.87-4.87-9.74-4.87-14.6V439.3c0-3.65,0-6.08-2.43-9.74a13.73,13.73,0,0,1-3.65-13.39c0-3.65,0-6.08,1.22-9.74s0-7.3-1.22-11c-1.22-2.43-1.22-3.65-2.43-6.08v-8.52c2.43-6.08,0-12.17-3.65-17a28.09,28.09,0,0,1-6.08-8.52V342c0-2.43,1.22-3.65,2.43-4.87,2.43-3.65,4.87-7.3,8.52-9.74l1.22-1.22c2.43-2.43,4.87-2.43,8.52-1.22s6.08,2.43,8.52,4.87h1.22c2.43,0,3.65,0,3.65,2.43,2.43,0,2.43,2.43,3.65,3.65s0,2.43-1.22,3.65c-3.65,3.65-6.08,6.08-11,8.52h0c2.43,0,6.08,1.22,8.52-1.22s4.87-4.87,6.08-7.3a6.52,6.52,0,0,1,4.87-3.65c3.65-1.22,8.52,0,12.17,0,2.43,0,3.65,2.43,6.08,3.65,3.65,2.43,6.08,6.08,8.52,11,1.22,4.87,2.43,8.52,2.43,13.39,0,3.65-1.22,6.08-2.43,8.52-1.22,3.65-3.65,4.87-6.08,7.3a3.77,3.77,0,0,1-2.43,1.22c-2.43,0-4.87,1.22-8.52,1.22-1.22,0-2.43,1.22-3.65,2.43a43.24,43.24,0,0,0-2.43,12.17c0,2.43-1.22,6.08-4.87,6.08-1.22,0-2.43,1.22-2.43,3.65v4.87c0,2.43,1.22,3.65,2.43,6.08,1.22,1.22,2.43,2.43,1.22,4.87-1.22,4.87-1.22,11-1.22,15.82,0,2.43,1.22,4.87,1.22,6.08,3.65,3.65,4.87,8.52,6.08,13.39l7.3,18.25c1.22,1.22,2.43,2.43,2.43,4.87,1.22,3.65,3.65,6.08,4.87,9.74A291.14,291.14,0,0,0,84,516C88.83,519.62,91.27,524.48,94.92,529.35Z"/><path class="cls-1" d="M574.38,747.18c0,1.22-1.22,1.22-1.22,2.43a12.79,12.79,0,0,0,0,15.82c1.22,2.43,1.22,4.87,1.22,8.52v1.22c-2.43,2.43-3.65,4.87-6.08,7.3s-6.08,2.43-9.74,3.65h-6.08c-4.87-1.22-9.74-2.43-13.39-4.87h-1.22c-2.43,0-3.65-2.43-4.87-4.87-1.22-3.65-1.22-7.3-1.22-11,0-1.22,0-3.65-1.22-4.87,0-1.22-1.22-2.43,0-4.87v-2.43c-1.22-4.87-4.87-9.74-8.52-13.39-3.65-4.87-9.74-7.3-14.6-11-2.43-1.22-3.65-3.65-6.08-4.87a16.8,16.8,0,0,0-4.87-3.65c-6.08-3.65-12.17-8.52-18.25-13.39-4.87-3.65-8.52-7.3-13.39-9.74-3.65-2.43-7.3-6.08-11-9.74a211.86,211.86,0,0,0-17-14.6,211.86,211.86,0,0,1-17-14.6c-3.65-3.65-7.3-7.3-12.17-9.74s-9.74-6.08-14.6-9.74l-1.22-1.22a3.77,3.77,0,0,1,2.43-1.22c6.08-1.22,11-4.87,17-7.3,3.65-2.43,7.3-3.65,9.74-4.87h2.43c4.87,4.87,11,8.52,15.82,12.17a128.89,128.89,0,0,0,14.6,12.17c2.43,2.43,4.87,3.65,6.08,6.08,4.87,4.87,9.74,8.52,14.6,13.39l3.65,3.65a129.32,129.32,0,0,0,13.39,11c2.43,2.43,4.87,3.65,8.52,6.08l11,7.3a81.85,81.85,0,0,1,13.39,8.52c2.43,1.22,4.87,3.65,7.3,4.87,3.65,2.43,8.52,2.43,12.17,3.65h1.22c2.43,0,2.43,1.22,1.22,3.65s-1.22,6.08-1.22,8.52v4.87c0,4.87,2.43,8.52,3.65,12.17v1.22c2.43,6.08,6.08,7.3,12.17,7.3h8.52C571.94,746,574.38,746,574.38,747.18Z"/><path class="cls-1" d="M631.57,567.08c2.43,0,3.65,1.22,4.87,2.43,6.08,4.87,9.74,11,13.39,17a84.49,84.49,0,0,1,6.08,15.82c1.22,2.43,1.22,6.08,1.22,8.52s1.22,4.87,1.22,7.3c1.22,2.43,0,4.87,1.22,7.3,1.22,3.65,1.22,7.3,1.22,11,0,1.22,0,3.65,1.22,4.87,1.22,6.08,0,11-1.22,15.82a43.75,43.75,0,0,1-2.43,13.39c0,1.22-1.22,2.43-1.22,3.65-1.22,7.3-3.65,13.39-8.52,18.25-2.43,2.43-3.65,7.3-3.65,11a6.69,6.69,0,0,1-3.65,6.08,11,11,0,0,0-7.3,7.3c-1.22,2.43-2.43,3.65-2.43,6.08-1.22,2.43-3.65,3.65-6.08,4.87a17.72,17.72,0,0,0-11,7.3c-3.65,1.22-3.65,3.65-3.65,4.87A20.56,20.56,0,0,1,607.23,752c-1.22,2.43-2.43,3.65-3.65,6.08-2.43,4.87-7.3,6.08-12.17,7.3h-6.08c-2.43,0-4.87-1.22-7.3-1.22-1.22,0-1.22-1.22-1.22-2.43-1.22-4.87,0-8.52,2.43-13.39,0-1.22,1.22-1.22,1.22,0,1.22,0,2.43,1.22,3.65,1.22s1.22,1.22,2.43,0V746l-1.22-1.22c-3.65-2.43-6.08-3.65-9.74-3.65-3.65-1.22-8.52-1.22-12.17-1.22-1.22,0-2.43-1.22-3.65-2.43a25.46,25.46,0,0,0-4.87-7.3,4.25,4.25,0,0,1-1.22-2.43v-7.3c0-3.65,1.22-6.08,1.22-9.74,0-2.43,0-4.87,2.43-6.08,2.43-2.43,4.87-3.65,8.52-4.87H578c2.43,0,6.08,1.22,8.52,1.22s3.65,0,4.87-2.43a16.8,16.8,0,0,1,4.87-3.65c7.3-1.22,13.39-4.87,19.47-9.74,2.43-2.43,4.87-3.65,6.08-6.08,1.22-1.22,2.43-3.65,3.65-6.08s3.65-6.08,4.87-8.52,3.65-6.08,2.43-9.74v-2.43c1.22-2.43,2.43-4.87,2.43-6.08s1.22-3.65,1.22-6.08c0-4.87,1.22-9.74,1.22-14.6,0-1.22-1.22-2.43,0-4.87,1.22-3.65,0-8.52,1.22-12.17V600c0-6.08-2.43-12.17-2.43-18.25,0-2.43,0-4.87-2.43-7.3v-1.22c0-2.43-1.22-3.65-2.43-6.08C631.57,568.29,630.35,567.08,631.57,567.08Z"/><path class="cls-1" d="M576.81,331c0-1.22,1.22-1.22,0,0,4.87-2.43,9.74-4.87,14.6-6.08,1.22,0,3.65,0,4.87-1.22a25,25,0,0,1,13.39,0c6.08,0,12.17,1.22,18.25,1.22,6.08,1.22,13.39,2.43,19.47,4.87a129.75,129.75,0,0,1,23.12,8.52c6.08,2.43,11,4.87,17,7.3,2.43,1.22,4.87,2.43,6.08,3.65,4.87,3.65,11,7.3,17,11,3.65,2.43,6.08,3.65,11,3.65q3.65,0,7.3,3.65c1.22,1.22,2.43,3.65,3.65,4.87,1.22,3.65,4.87,6.08,8.52,7.3,2.43,0,3.65,0,4.87,1.22,1.22,0,1.22,1.22,1.22,2.43h0c1.22,6.08,2.43,7.3,7.3,7.3h6.08c2.43,0,3.65,1.22,6.08,2.43,1.22,1.22,2.43,2.43,4.87,2.43,3.65,1.22,6.08,4.87,7.3,8.52,2.43,6.08,1.22,13.39-1.22,19.47-1.22,2.43-1.22,2.43-3.65,1.22-3.65-2.43-7.3-3.65-11-6.08-1.22,0-1.22-1.22-1.22-2.43,1.22-1.22,0-3.65,1.22-6.08v-1.22h-1.22c-1.22,1.22-1.22,3.65-2.43,4.87-2.43,7.3-3.65,12.17-2.43,17,0,2.43-1.22,6.08-1.22,8.52a1.19,1.19,0,0,1-1.16,1.22h-.06c-7.3,6.08-14.6,8.52-24.34,4.87h0c-2.43-2.43-6.08-4.87-7.3-8.52s-1.22-7.3,0-12.17c0-1.22,1.22-3.65,0-4.87a8.22,8.22,0,0,0-4.87-7.3c-7.3-3.65-4.87-2.43-4.87-8.52,0-3.65-1.22-7.3-6.08-8.52a16.8,16.8,0,0,1-4.87-3.65,85.2,85.2,0,0,0-19.47-17c-3.65-2.43-6.08-4.87-9.74-6.08-3.65-2.43-8.52-4.87-12.17-7.3a132.73,132.73,0,0,1-13.39-7.3,43.22,43.22,0,0,0-11-4.87c-7.3-2.43-14.6-6.08-21.9-8.52-8.52-2.43-18.25-4.87-26.77-7.3-2.43-1.22-4.87,0-7.3-1.22C579.25,332.21,578,331,576.81,331Z"/><path class="cls-1" d="M222.69,359c0-2.43,2.43-2.43,2.43-3.65,2.43-2.43,3.65-6.08,6.08-8.52,2.43-4.87,6.08-7.3,9.74-11,6.08-6.08,12.17-11,18.25-17,3.65-3.65,8.52-6.08,13.39-8.52,2.43-1.22,6.08-3.65,8.52-4.87,3.65-2.43,7.3-4.87,12.17-6.08l11-3.65h1.22c0,2.43-1.22,3.65-2.43,4.87-1.22-1.22-2.43,0-3.65,0a196.88,196.88,0,0,0-21.9,12.17c-2.43,2.43-6.08,3.65-8.52,6.08-4.87,3.65-8.52,6.08-13.39,9.74a16.8,16.8,0,0,0-3.65,4.87l-3.65,3.65a109.72,109.72,0,0,0-11,12.17,43.71,43.71,0,0,0-8.52,12.17c0,1.22-1.22,1.22-2.43,1.22C225.13,360.2,223.91,360.2,222.69,359Z"/><path class="cls-1" d="M497.71,456.34c0-3.65,2.43-4.87,4.87-7.3,1.22-1.22,3.65,0,4.87,1.22A13.82,13.82,0,0,1,511.1,460c0,2.43,1.22,4.87,1.22,7.3,0,3.65-1.22,6.08-4.87,6.08h-1.22c-1.22,0-2.43,1.22-2.43,0-2.43-2.43-2.43-3.65-2.43-4.87,0-2.43-1.22-4.87-2.43-7.3C498.93,458.77,497.71,457.55,497.71,456.34Z"/><path class="cls-1" d="M490.41,473.37c-3.65,0-6.08-1.22-6.08-4.87s-1.22-6.08,0-9.74,3.65-4.87,6.08-4.87h2.43c2.43,0,4.87,1.22,4.87,3.65s1.22,3.65,2.43,6.08c1.22,3.65,0,7.3-3.65,8.52S491.63,473.37,490.41,473.37Z"/><path class="cls-1" d="M455.12,544c-6.08,0-9.74-2.43-13.39-6.08,0-1.22-1.22-1.22,0-2.43,3.65-3.65,7.3-7.3,12.17-8.52,1.22,0,1.22,0,2.43,1.22,1.22,3.65,3.65,7.3,6.08,11,1.22,1.22,1.22,2.43-1.22,3.65C460,542.74,457.55,544,455.12,544Z"/><path class="cls-1" d="M483.11,536.65c0,2.43-1.22,4.87,0,7.3v1.22c-2.43,1.22-3.65,2.43-6.08,2.43a13.82,13.82,0,0,1-9.74-3.65c-2.43-1.22-2.43-2.43-2.43-3.65,0-2.43,2.43-4.87,2.43-7.3l1.22-1.22c1.22,0,2.43-1.22,3.65-1.22,3.65-1.22,6.08,0,9.74,1.22C483.11,533,483.11,534.22,483.11,536.65Z"/><path class="cls-1" d="M484.33,541.52c0-2.43,0-4.87,1.22-7.3a2.62,2.62,0,0,1,2.43-2.43c1.22,0,2.43-1.22,3.65,0,2.43,0,4.87,0,7.3,1.22,2.43,0,2.43,1.22,2.43,3.65v6.08c0,1.22,0,1.22-1.22,2.43-4.87,2.43-8.52,2.43-13.39,0C484.33,542.74,484.33,542.74,484.33,541.52Z"/><path class="cls-1" d="M453.9,489.19c-2.43-6.08-3.65-12.17,0-18.25,2.43-4.87,8.52-6.08,12.17-2.43,1.22,1.22,2.43,2.43,1.22,3.65,0,1.22-1.22,1.22-1.22,2.43a129.33,129.33,0,0,0-11,13.39,1.19,1.19,0,0,1-1.17,1.21Z"/><path class="cls-1" d="M501.36,541.52v-7.3a2.62,2.62,0,0,1,2.43-2.43c2.43,0,6.08-1.22,8.52,0s2.43,1.22,2.43,3.65v6.08q0,3.65-3.65,3.65c-2.43,0-3.65,1.22-6.08,1.22a4.47,4.47,0,0,1-3.65-1.22V544C501.36,542.74,501.36,541.52,501.36,541.52Z"/><path class="cls-1" d="M475.81,477h-2.43q-3.65,0-3.65-3.65c-1.22-3.65,0-6.08,1.22-9.74,2.43-3.65,6.08-3.65,9.74-1.22a1.19,1.19,0,0,0,1.16,1.22h.06c0,2.43,0,4.87,1.22,7.3v1.22c-1.22,1.22-1.22,2.43-2.43,3.65A4.47,4.47,0,0,1,477,477Z"/><path class="cls-1" d="M40.16,848.18a4.47,4.47,0,0,1-1.22,3.65v2.43c0,6.08,1.22,9.74,2.43,9.74-2.43,0-4.87-1.22-8.52-1.22s-7.3,0-11,1.22c2.43-1.22,3.65-3.65,4.87-7.3,0-1.22,1.22-2.43,1.22-4.87v-1.22c0-2.43-1.22-3.65-4.87-3.65H17c-2.43,0-3.65,2.43-3.65,6.08v6.08c0,1.22,0,1.22,1.22,2.43A4.25,4.25,0,0,0,15.82,864c-1.22-1.22-3.65-1.22-6.08-1.22s-4.87,0-7.3,1.22c1.22,0,1.22-1.22,2.43-1.22,1.22-1.22,1.22-3.65,1.22-7.3V853c-1.22-7.3-2.43-11-4.87-9.74,2.43-1.22,3.65-2.43,3.65-4.87a4.47,4.47,0,0,1,1.22-3.65c0-3.65,0-6.08-1.22-7.3A9.5,9.5,0,0,0,0,822.63H17a12.78,12.78,0,0,0-6.08,11v1.22c0,3.65,1.22,4.87,4.87,4.87h4.87q3.65-1.83,3.65-7.3c0-6.08-1.22-8.52-3.65-11,3.65,1.22,6.08,2.43,9.74,2.43s6.08,0,8.52-1.22c2.43,1.22,0,3.65,0,8.52s1.22,9.74,4.87,11A13,13,0,0,0,40.16,848.18Zm-4.87-3.65V842.1H32.86v2.43Z"/><path class="cls-1" d="M64.5,847a4.47,4.47,0,0,1-1.22,3.65V853c0,6.08,1.22,9.74,2.43,9.74-2.43,0-4.87-1.22-8.52-1.22s-7.3,0-11,1.22c2.43-1.22,3.65-3.65,4.87-7.3,0-1.22,0-3.65,1.22-4.87,0-6.08-2.43-8.52-4.87-9.74,2.43,0,4.87-2.43,4.87-9.74q0-7.3-3.65-11c3.65,1.22,6.08,2.43,9.74,2.43s6.08,0,8.52-1.22c-1.22,2.43-3.65,6.08-3.65,9.74,0,4.87,1.22,8.52,4.87,11A16.8,16.8,0,0,0,64.5,847Zm-4.87-3.65v-2.43H57.19v2.43h1.22c1.22,1.18,1.22,1.18,1.22,0Z"/><path class="cls-1" d="M115.61,842.1c-1.22,0-2.43,1.22-2.43,3.65v11c-1.22,3.65-4.87,6.08-9.74,7.3-2.43,0-4.87,1.22-7.3,1.22-6.08,0-12.17-1.22-15.82-6.08-3.65-2.43-6.08-6.08-6.08-9.74A12.13,12.13,0,0,1,73,844.53c0-1.22-1.22-1.22-3.65-2.43a16.8,16.8,0,0,0,4.87-3.65c0-1.22,1.22-1.22,1.22-2.43,1.22-3.65,2.43-6.08,6.08-8.52,2.43-2.43,7.3-4.87,13.39-4.87,7.3,0,13.39,2.43,15.82,7.3,1.22,2.43,2.43,4.87,2.43,7.3a6.07,6.07,0,0,0-7.3,0c0-4.87-2.43-7.3-6.08-9.74-1.22-1.22-3.65-1.22-4.87-1.22-2.43,0-3.65,0-4.87,1.22a8.22,8.22,0,0,0-4.87,7.3v2.43c0,2.43,1.22,3.65,3.65,4.87-2.43,0-3.65,2.43-3.65,6.08,1.22,8.52,4.87,12.17,11,12.17,3.65,0,6.08-1.22,6.08-4.87V850.6c-1.22-1.22-2.43-2.43-3.65-2.43H96.14a4.47,4.47,0,0,0,1.22-3.65c0-2.43-1.22-3.65-2.43-3.65l20.69,1.22Zm-35.29,1.22v-2.43H77.88v2.43h2.44Z"/><path class="cls-1" d="M152.11,848.18a4.47,4.47,0,0,1-1.22,3.65v2.43c0,6.08,1.22,9.74,2.43,9.74-2.43,0-4.87-1.22-8.52-1.22s-7.3,0-11,1.22c2.43-1.22,3.65-3.65,4.87-7.3,0-1.22,1.22-2.43,1.22-4.87v-1.22c0-2.43-1.22-3.65-4.87-3.65h-6c-2.43,0-3.65,2.43-3.65,6.08v6.08c0,1.22,0,1.22,1.22,2.43a4.25,4.25,0,0,0,1.22,2.43c-1.22-1.22-3.65-1.22-6.08-1.22s-4.87,0-7.3,1.22c1.22,0,1.22-1.22,2.43-1.22,1.22-1.22,1.22-3.65,1.22-7.3V853c-1.22-7.3-2.43-11-4.87-9.74,2.43-1.22,3.65-2.43,3.65-4.87a4.47,4.47,0,0,1,1.22-3.65c0-3.65,0-6.08-1.22-7.3a9.5,9.5,0,0,0-4.87-4.87h17a12.78,12.78,0,0,0-6.08,11v1.22c0,3.65,1.22,4.87,4.87,4.87h4.87q3.65-1.83,3.65-7.3c0-6.08-1.22-8.52-3.65-11,3.65,1.22,6.08,2.43,9.74,2.43s6.08,0,8.52-1.22c-2.43,1.22-4.87,4.87-4.87,9.74s1.22,9.74,4.87,11C153.33,843.31,152.11,844.53,152.11,848.18Zm-4.87-3.65V842.1h-2.43v2.43Z"/><path class="cls-1" d="M186.19,859.13c0,2.43,0,4.87,1.22,6.08q-5.48-3.65-18.25-3.65a54.57,54.57,0,0,0-13.39,1.22,15.06,15.06,0,0,0,3.65-2.43c1.22-1.22,1.22-3.65,1.22-7.3v-6c-1.22-3.65-2.43-4.87-4.87-4.87,2.43,0,3.65-2.43,4.87-4.87v-3.65c0-3.65,0-6.08-1.22-7.3,0-1.22-2.43-1.22-3.65-2.43,4.87,0,9.74,1.22,13.39,1.22q12.78,0,18.25-3.65c0,2.43-1.22,4.87-1.22,7.3v3.65c-1.22-2.43-3.65-3.65-8.52-3.65h-2.43q-3.65,0-3.65,3.65v4.87c0,1.22,1.22,2.43,3.65,2.43a4.47,4.47,0,0,0,3.65-1.22,1.19,1.19,0,0,0,1.22-1.16s0,0,0-.06V847c-1.22-1.22-2.43-2.43-3.65-2.43H174c-2.43,0-3.65,1.22-3.65,2.43v8.52q0,3.65,3.65,3.65h2.43c3.65,0,7.3-1.22,8.52-3.65A4.47,4.47,0,0,1,186.19,859.13Zm-21.9-19.47v2.43h2.43v-2.43Z"/><path class="cls-1" d="M223.91,860.35c2.43,1.22,3.65,2.43,6.08,3.65h-4.87c-4.87,0-8.52,0-12.17,1.22,2.43,0,2.43-1.22,2.43-3.65s-1.22-3.65-2.43-7.3l-3.65-3.65h-1.22a2.62,2.62,0,0,0-2.43,2.43v3.65h0c0,3.65,1.22,6.08,4.87,7.3h-21.9c3.65-1.22,6.08-2.43,6.08-6.08v-7.3c0-3.65-2.43-4.87-4.87-6.08,3.65-1.22,4.87-3.65,4.87-6.08v-9.74a5.23,5.23,0,0,0-4.87-4.87c18.25,0,28,1.22,28,1.22,4.87,0,9.74,3.65,12.17,9.74a15.06,15.06,0,0,0,2.43,3.65,2.62,2.62,0,0,0-2.43,2.43c-1.22,1.22-1.22,2.43-2.43,3.65s-3.65,2.43-7.3,3.65A1.19,1.19,0,0,0,219,849.3s0,.07,0,.1c0,1.22,1.22,2.43,2.43,4.87A9.31,9.31,0,0,0,223.91,860.35Zm-25.55-14.6v-2.43h-2.43v2.43Zm4.87-14.6v9.74c0,1.22,0,2.43,1.22,2.43a1.19,1.19,0,0,1,1.22,1.16s0,0,0,.06h3.65c2.43,0,3.65-1.22,4.87-3.65,0-2.43,0-3.65-2.43-4.87a2.62,2.62,0,0,0,2.43-2.43v-1.22c0-2.43-1.22-3.65-4.87-3.65h-3.65a2.62,2.62,0,0,0-2.45,2.42ZM219,836v2.43h2.43V836Z"/><path class="cls-1" d="M299.36,842.1c-1.22,0-2.43,1.22-2.43,3.65v11c-1.22,3.65-4.87,6.08-9.74,7.3-2.43,0-4.87,1.22-7.3,1.22-6.08,0-12.17-1.22-15.82-6.08C260.42,856.7,258,853,258,849.4a12.13,12.13,0,0,1-1.22-4.87c0-1.22-1.22-1.22-3.65-2.43a16.8,16.8,0,0,0,4.87-3.65c0-1.22,1.22-1.22,1.22-2.43,1.22-3.65,2.43-6.08,6.08-8.52,3.65-3.65,9.74-4.87,14.6-4.87,7.3,0,13.39,2.43,15.82,7.3,1.22,2.43,2.43,4.87,2.43,7.3a6.08,6.08,0,0,0-7.3,0c0-4.87-2.43-7.3-6.08-9.74-1.22-1.22-3.65-1.22-4.87-1.22-2.43,0-3.65,0-4.87,1.22-3.65,1.22-4.87,3.65-4.87,7.3v2.43c0,2.43,1.22,3.65,3.65,4.87-2.43,0-3.65,2.43-3.65,6.08,1.22,8.52,4.87,12.17,11,12.17,3.65,0,6.08-1.22,6.08-4.87V850.6c-1.22-1.22-2.43-2.43-3.65-2.43H281.1a4.47,4.47,0,0,0,1.22-3.65c0-2.43-1.22-3.65-2.43-3.65l19.47,1.22Zm-36.51,1.22v-2.43h-2.43v2.43Z"/><path class="cls-1" d="M332.21,860.35c2.43,1.22,3.65,2.43,6.08,3.65h-4.87c-4.87,0-8.52,0-12.17,1.22,2.43,0,2.43-1.22,2.43-3.65s-1.22-3.65-2.43-7.3l-3.65-3.65h-1.22A2.62,2.62,0,0,0,314,853v3.65h0c0,3.65,1.22,6.08,4.87,7.3H297c3.65-1.22,6.08-2.43,6.08-6.08v-7.3c0-3.65-2.43-4.87-4.87-6.08,3.65-1.22,4.87-3.65,4.87-6.08v-9.74a5.23,5.23,0,0,0-4.87-4.87c18.25,0,28,1.22,28,1.22,4.87,0,9.74,3.65,12.17,9.74a15.06,15.06,0,0,0,2.43,3.65,2.62,2.62,0,0,0-2.43,2.43c-1.22,1.22-1.22,2.43-2.43,3.65s-3.65,2.43-7.3,3.65a1.19,1.19,0,0,0-1.22,1.16s0,0,0,.06c0,1.22,1.22,2.43,2.43,4.87A51.16,51.16,0,0,0,332.21,860.35Zm-24.34-14.6v-2.43h-2.43v2.43Zm4.87-14.6v9.74c0,1.22,0,2.43,1.22,2.43a1.19,1.19,0,0,1,1.22,1.16s0,0,0,.06h3.65c2.43,0,3.65-1.22,4.87-3.65,0-2.43,0-3.65-2.43-4.87a2.62,2.62,0,0,0,2.43-2.43v-1.22c0-2.43-1.22-3.65-4.87-3.65h-3.65a2.62,2.62,0,0,0-2.44,2.42ZM328.56,836v2.43H331V836h-2.44Z"/><path class="cls-1" d="M382.11,836c1.22,2.43,1.22,2.43,2.43,3.65a16.8,16.8,0,0,0,4.87,3.65c-2.43,0-3.65,2.43-4.87,4.87,0,1.22-1.22,2.43-1.22,4.87-1.22,3.65-2.43,7.3-7.3,9.74q-5.48,3.65-14.6,3.65c-7.3,0-12.17-1.22-15.82-4.87-1.22-1.22-2.43-3.65-3.65-4.87a89.41,89.41,0,0,0-2.43-9.74c0-1.22-2.43-2.43-4.87-2.43,2.43-1.22,3.65-2.43,6.08-4.87,1.22-1.22,1.22-2.43,2.43-3.65,3.65-7.3,9.74-12.17,20.69-12.17h2.43c4.87,0,11,2.43,15.82,8.52C380.89,832.36,382.11,833.58,382.11,836Zm-35.29,7.3v-2.43h-2.43v2.43Zm20.69-1.22q3.65,0,3.65-7.3,0-3.65-3.65-7.3a9.3,9.3,0,0,0-6.08-2.43c-2.43,0-4.87,0-6.08,2.43q-3.65,1.83-3.65,7.3V836c0,3.65,1.22,6.08,3.65,6.08q-3.65,1.83-3.65,7.3c0,2.43,1.22,3.65,1.22,4.87,1.22,3.65,3.65,4.87,6.08,4.87h2.43c3.65,0,6.08-2.43,7.3-6.08,0-1.22,1.22-3.65,1.22-6.08,1.2-2.43,0-4.86-2.45-4.86Zm12.17,1.22v-2.43h-2.43v2.43h1.22s0,1.23,1.2,0Z"/><path class="cls-1" d="M422.26,857.92c-1.22,2.43-2.43,4.87-3.65,6.08a22.93,22.93,0,0,1-9.74,2.43c-7.3,0-12.17-2.43-15.82-6.08a13.15,13.15,0,0,1-3.65-8.52c0-4.87-2.43-7.3-6.08-7.3,3.65-1.22,4.87-4.87,4.87-12.17,0-2.43-1.22-4.87-1.22-7.3l-2.43-2.43h-2.43c3.65,1.22,8.52,1.22,12.17,1.22s8.52,0,12.17-1.22c-2.43,0-3.65,2.43-4.87,4.87v3.65c0,3.65,0,6.08,1.22,7.3,0,1.22,1.22,2.43,3.65,4.87-1.22,0-2.43,1.22-2.43,3.65v2.43q0,7.3,7.3,7.3c3.65,0,6.08-1.22,7.3-2.43a4.47,4.47,0,0,0,1.22-3.65V849.4c-1.22-4.87-2.43-6.08-4.87-6.08,2.43-1.22,3.65-3.65,3.65-8.52v-2.43c0-2.43-1.22-4.87-1.22-7.3a2.62,2.62,0,0,0-2.43-2.43c-1.22,0-1.22-1.22-2.43-1.22,3.65,1.22,6.08,1.22,9.74,1.22s6.08,0,8.52-1.22c-1.22,1.22-2.43,3.65-3.65,6.08v11c0,1.22,1.22,2.43,2.43,3.65-1.22,0-1.22,1.22-2.43,3.65a4.47,4.47,0,0,1-1.22,3.65C423.48,854.26,422.26,856.7,422.26,857.92Zm-26.77-13.39V842.1h-2.43v2.43h1.22c0,1.22,1.21,1.22,1.21,0Z"/><path class="cls-1" d="M452.69,861.57c0-2.43-1.22-4.87-2.43-7.3l-8.52-14.6v2.43c0,2.43,1.22,3.65,2.43,4.87q-3.65,0-3.65,7.3c0,2.43,0,4.87,1.22,6.08,0,1.22,1.22,2.43,3.65,4.87-1.22,0-3.65-1.22-7.3-1.22a45.65,45.65,0,0,0-12.17,1.22c1.22,0,1.22-1.22,2.43-1.22s1.22-1.22,2.43-2.43c0-1.22,1.22-2.43,1.22-4.87q0-9.13-3.65-11l2.43-2.43c0-1.22,1.22-2.43,1.22-3.65V836c-1.22-4.87-2.43-8.52-6.08-9.74h17l15.82,31.64v-2.43c0-6.08-1.22-8.52-3.65-8.52q3.65-3.65,3.65-11c0-3.65-1.22-6.08-2.43-8.52L453.88,825H469.7a9.5,9.5,0,0,0-4.87,4.87c0,1.22-1.22,3.65-1.22,7.3s2.43,7.3,4.87,8.52c-2.43,0-3.65,2.43-4.87,9.74v2.43c0,2.43,0,4.87,1.22,7.3,0,1.22,1.22,1.22,2.43,1.22-2.43,0-6.08-1.22-9.74-1.22h-7.3C451.47,864,452.69,862.78,452.69,861.57Zm-15.82-15.82v-2.43h-2.43v2.43h1.22C436.87,847,436.87,845.75,436.87,845.75Z"/><path class="cls-1" d="M506.23,842.1c0,1.22,1.22,1.22,3.65,2.43-2.43,0-4.87,3.65-6.08,11-1.22,6.08-3.65,9.74-7.3,9.74H467.29q3.65,0,3.65-3.65a3.77,3.77,0,0,1,1.22-2.43V849.4c0-2.43-1.22-4.87-4.87-6.08,2.43,0,3.65-1.22,4.87-3.65,0-1.22,0-1.22,1.22-2.43v-8.52a6.52,6.52,0,0,0-3.65-4.87c-1.22,0-1.22-1.22-2.43-1.22h23.12c4.87,0,9.74,1.22,12.17,4.87,1.22,1.22,2.43,2.43,2.43,4.87A12,12,0,0,0,506.23,842.1Zm-28,1.22v-2.43H475.8v2.43H477c1.24,1.21,1.24,1.21,1.24,0Zm12.17,0c2.43-1.22,3.65-2.43,3.65-6.08v-2.43c0-2.43-1.22-3.65-3.65-4.87-1.22,0-1.22-1.22-2.43-1.22-2.43,0-4.87,1.22-4.87,3.65v19.47c0,4.87,1.22,6.08,3.65,6.08H488c3.65,0,6.08-2.43,6.08-7.3s-1.23-7.31-3.67-7.31Zm11,1.22V842.1H499v2.43h1.22c0,1.22,0,0,1.17,0Z"/><path class="cls-1" d="M568.29,837.23c0-3.65-1.22-4.87-2.43-6.08s-2.43-1.22-4.87-1.22c-3.65,0-6.08,2.43-4.87,4.87,0,6.08,1.22,9.74,3.65,9.74a1.19,1.19,0,0,0-1.22,1.16s0,0,0,.06c-1.22,0-1.22,1.22-1.22,2.43s-1.22,2.43-1.22,4.87c0,4.87,1.22,9.74,4.87,12.17H542.74c3.65-1.22,4.87-6.08,4.87-12.17,0-4.87-1.22-7.3-3.65-8.52q3.65-1.83,3.65-7.3v-3.65c0-2.43-1.22-3.65-2.43-3.65H544c-4.87,0-7.3,3.65-7.3,8.52v-3.65a30.24,30.24,0,0,0-1.22-9.74H572C568.29,826.28,568.29,829.93,568.29,837.23Zm-15.82,7.3V842.1H550v2.43h2.47Z"/><path class="cls-1" d="M609.67,864c-2.43,0-4.87-1.22-8.52-1.22s-8.52,0-12.17,1.22c2.43-1.22,3.65-2.43,3.65-6.08v-3.65c-1.22-4.87-3.65-6.08-7.3-6.08-2.43,0-2.43,1.22-3.65,1.22L578,853c-1.22,1.22-1.22,3.65-1.22,4.87s0,3.65,1.22,3.65a4.25,4.25,0,0,0,2.43,1.22H568.29l2.43-2.43c0-1.22,1.22-1.22,1.22-2.43s1.22-2.43,1.22-6.08v-3.65c0-3.65-1.22-6.08-2.43-6.08,3.65-2.43,6.08-4.87,6.08-8.52v-2.43c0-3.65-1.22-7.3-3.65-8.52h29.21a1.19,1.19,0,0,0-1.22,1.16s0,0,0,.06c-1.22,1.22-1.22,2.43-1.22,4.87v2.43a17.72,17.72,0,0,0,7.3,11c-1.22,0-2.43,2.43-2.43,4.87v2.43C604.8,859.13,607.23,864,609.67,864ZM590.2,833.58q-1.83-3.65-3.65-3.65t-3.65,3.65a11,11,0,0,0-1.22,6.08c0,2.43,1.22,4.87,3.65,3.65,2.43,0,4.87-1.22,4.87-4.87C591.41,837.23,590.2,834.79,590.2,833.58Zm8.52,12.17v-2.43h-2.43v2.43Z"/><path class="cls-1" d="M645,837.23c0-3.65-1.22-4.87-2.43-6.08s-2.43-1.22-4.87-1.22c-3.65,0-6.08,2.43-4.87,4.87,0,6.08,1.22,9.74,3.65,9.74a1.19,1.19,0,0,0-1.22,1.16s0,0,0,.06c-1.22,0-1.22,1.22-1.22,2.43s-1.22,2.43-1.22,4.87c0,4.87,1.22,9.74,4.87,12.17H619.4c3.65-1.22,4.87-6.08,4.87-12.17,0-4.87-1.22-7.3-3.65-8.52q3.65-1.83,3.65-7.3v-3.65c0-2.43-1.22-3.65-2.43-3.65h-1.22c-4.87,0-7.3,3.65-7.3,8.52v-3.65a30.24,30.24,0,0,0-1.22-9.74h36.51C645,826.28,645,829.93,645,837.23Zm-15.82,7.3V842.1H626.7v2.43h2.48Z"/><path class="cls-1" d="M681.46,837.23c0-3.65-1.22-4.87-2.43-6.08s-2.43-1.22-4.87-1.22c-3.65,0-6.08,2.43-4.87,4.87,0,6.08,1.22,9.74,3.65,9.74a1.19,1.19,0,0,0-1.22,1.16s0,0,0,.06c-1.22,0-1.22,1.22-1.22,2.43s-1.22,2.43-1.22,4.87c0,4.87,1.22,9.74,4.87,12.17H655.91c3.65-1.22,4.87-6.08,4.87-12.17,0-4.87-1.22-7.3-3.65-8.52q3.65-1.83,3.65-7.3v-3.65c0-2.43-1.22-3.65-2.43-3.65h-1.22c-4.87,0-7.3,3.65-7.3,8.52v-3.65a30.24,30.24,0,0,0-1.22-9.74h36.51C681.46,826.28,681.46,829.93,681.46,837.23Zm-15.82,7.3V842.1h-2.43v2.43Z"/><path class="cls-1" d="M726.49,836c1.22,2.43,1.22,2.43,2.43,3.65a16.8,16.8,0,0,0,4.87,3.65c-2.43,0-3.65,2.43-4.87,4.87,0,1.22-1.22,2.43-1.22,4.87-1.22,3.65-2.43,7.3-7.3,9.74q-5.48,3.65-14.6,3.65c-7.3,0-12.17-1.22-15.82-4.87-1.22-1.22-2.43-3.65-3.65-4.87A89.39,89.39,0,0,0,683.9,847c0-1.22-2.43-2.43-4.87-2.43,2.43-1.22,3.65-2.43,6.08-4.87,1.22-1.22,1.22-2.43,2.43-3.65,3.65-7.3,9.74-12.17,20.69-12.17h2.43c4.87,0,11,2.43,15.82,8.52C725.27,832.36,726.49,833.58,726.49,836Zm-35.29,7.3v-2.43h-2.43v2.43H690c0,1.23,1.2,0,1.2,0Zm20.69-1.22q3.65,0,3.65-7.3,0-3.65-3.65-7.3a9.3,9.3,0,0,0-6.08-2.43c-2.43,0-4.87,0-6.08,2.43q-3.65,3.65-3.65,7.3V836c0,3.65,1.22,6.08,3.65,6.08q-3.65,1.83-3.65,7.3c0,2.43,1.22,3.65,1.22,4.87,1.22,3.65,3.65,4.87,6.08,4.87h2.43c3.65,0,6.08-2.43,7.3-6.08,0-1.22,1.22-3.65,1.22-6.08,1.21-2.43,0-4.86-2.44-4.86Zm12.17,1.22v-2.43h-2.43v2.43h1.22c0,1.23,0,1.23,1.21,0Z"/><path class="cls-1" d="M775.17,836c1.22,2.43,1.22,2.43,2.43,3.65a16.8,16.8,0,0,0,4.87,3.65c-2.43,0-3.65,2.43-4.87,4.87,0,1.22-1.22,2.43-1.22,4.87-1.22,3.65-2.43,7.3-7.3,9.74q-5.48,3.65-14.6,3.65c-7.3,0-12.17-1.22-15.82-4.87-1.22-1.22-2.43-3.65-3.65-4.87a89.41,89.41,0,0,0-2.43-9.74c0-1.22-2.43-2.43-4.87-2.43,2.43-1.22,3.65-2.43,6.08-4.87,1.22-1.22,1.22-2.43,2.43-3.65,3.65-7.3,9.74-12.17,20.69-12.17h2.43c4.87,0,11,2.43,15.82,8.52C772.73,832.36,774,833.58,775.17,836Zm-36.51,7.3v-2.43h-2.43v2.43h1.22c1.21,1.23,1.21,0,1.21,0Zm20.69-1.22q3.65,0,3.65-7.3,0-3.65-3.65-7.3a9.3,9.3,0,0,0-6.08-2.43c-2.43,0-4.87,0-6.08,2.43q-3.65,1.83-3.65,7.3V836c0,3.65,1.22,6.08,3.65,6.08-2.43,1.22-2.43,3.65-2.43,7.3,0,2.43,1.22,3.65,1.22,4.87,1.22,3.65,3.65,4.87,6.08,4.87h2.43c3.65,0,6.08-2.43,7.3-6.08,0-1.22,1.22-3.65,1.22-6.08s-1.23-4.86-3.66-4.86Zm12.17,1.22v-2.43h-2.43v2.43h1.22c0,1.23,1.21,1.23,1.21,0Z"/><path class="cls-1" d="M137.51,108.3c2.43,1.22,6.08,1.22,9.74,0-6.08,3.65-6.08,13.39,2.43,32.86C155.76,157,155.76,167.93,146,174c-1.22,1.22-2.43,1.22-3.65,2.43L81.53,216.61c4.87-6.08,6.08-9.74,4.87-14.6,0-2.43-1.22-3.65-1.22-6.08-3.65-6.08-8.52-13.39-12.17-20.69s-11-8.52-19.47-6.08c3.65-3.65,4.87-8.52,4.87-13.39,0-2.43-1.22-3.65-2.43-6.08q-7.3-12.78-11-18.25c-3.65-3.65-8.52-4.87-13.39-4.87-2.43,0-4.87,1.22-7.3,1.22L75.45,94.92q18.25-11,32.86-7.3c3.65,0,7.3,2.43,11,4.87C127.77,102.22,133.86,107.09,137.51,108.3Zm-57.19,45a4.47,4.47,0,0,0-1.22-3.65c0-1.22-1.22-1.22-2.43-2.43A4.47,4.47,0,0,0,73,148.46c-1.22,1.22-2.43,2.43-2.43,3.65a4.47,4.47,0,0,0,1.22,3.65C73,157,73,157,75.45,158.2A4.47,4.47,0,0,0,79.1,157c0-1.24,1.22-2.45,1.22-3.67Zm25.55-17c4.87-6.08,3.65-12.17,0-19.47L101,112c-3.65-4.87-8.52-6.08-14.6-6.08-2.43,0-4.87,0-7.3,1.22-7.3,3.65-8.52,8.52-4.87,13.39A4.25,4.25,0,0,1,75.45,123c9.74,14.6,19.47,29.21,26.77,41.37,6.08,9.74,12.17,12.17,17,9.74,1.22,0,1.22-1.22,2.43-2.43,8.52-4.87,9.74-12.17,3.65-24.34-7.3-11-13.3-14.66-19.43-11Zm24.34-13.39a4.47,4.47,0,0,0-1.22-3.65c-1.22-1.22-1.22-1.22-3.65-2.43s-1.22,0-2.43,1.22-2.43,1.22-2.43,3.65a4.47,4.47,0,0,0,1.22,3.65c0,1.22,1.22,1.22,2.43,1.22a4.47,4.47,0,0,0,3.65-1.22,2.62,2.62,0,0,0,2.43-2.44Z"/><path class="cls-1" d="M255.55,48.68l7.3,7.3q5.48,3.65,14.6,3.65c-4.87,2.43-8.52,8.52-8.52,17v12.2c2.43,11-1.22,21.9-8.52,30.42s-19.47,17-34.07,21.9q-25.55,9.13-43.81,0c-4.87-2.43-9.74-4.87-13.39-9.74-9.74-13.39-14.6-20.69-15.82-20.69-2.43-2.43-7.3-3.65-13.39-3.65,3.65-3.65,7.3-9.74,9.74-17,1.22-3.65,1.22-6.08,2.43-9.74,1.22-21.9,15.82-37.72,41.37-46.24,0-1.22,1.22-2.43,3.65-2.43,13.39-4.87,29.21-1.22,47.46,8.52C248.25,41.37,251.9,45,255.55,48.68ZM174,98.57a2.28,2.28,0,0,0,0-3.65c-1.22-1.22-1.22-2.43-2.43-3.65a2.28,2.28,0,0,0-3.65,0,2.62,2.62,0,0,0-2.43,2.43,2.28,2.28,0,0,0,0,3.65,2.62,2.62,0,0,0,2.43,2.43,2.28,2.28,0,0,0,3.65,0C171.58,101,172.8,99.79,174,98.57Zm49.89-20.69c6.08-3.65,8.52-11,3.65-20.69-3.65-7.3-7.3-11-13.39-14.6-6.08-2.43-12.17-2.43-18.25-1.22-6.08,2.43-11,4.87-14.6,9.74a27.05,27.05,0,0,0-3.65,19.47,4.47,4.47,0,0,0,1.22,3.65c2.43,8.52,8.52,13.39,15.82,13.39-4.87,4.87-4.87,11-2.43,20.69a107,107,0,0,0,7.3,12.17c6.08,7.3,13.39,9.74,20.69,7.3,1.22,0,1.22-1.22,2.43-1.22a4.47,4.47,0,0,0,3.65-1.22c9.74-3.65,14.6-9.74,14.6-20.69,0-4.87,0-9.74-2.43-14.6-3.64-9.73-8.5-13.39-14.59-12.17Zm30.42-6.08c0-1.22,1.22-2.43,0-3.65a2.62,2.62,0,0,0-2.43-2.43,2.28,2.28,0,0,0-3.65,0,2.62,2.62,0,0,0-2.43,2.43c0,1.22-1.22,2.43,0,3.65a2.62,2.62,0,0,0,2.43,2.43,2.28,2.28,0,0,0,3.65,0c1.24,0,1.24-1.23,2.45-2.43Z"/><path class="cls-1" d="M345.6,104.65c0-4.87-3.65-12.17-8.52-19.47L311.53,47.46v6.08c1.22,6.08,3.65,11,8.52,13.39-4.87,3.65-7.3,11-6.08,20.69,1.22,7.3,2.43,12.17,4.87,15.82,1.22,2.43,4.87,6.08,9.74,11q-7.3-1.83-18.25,0c-9.74,1.22-20.69,3.65-32.86,6.08,2.43-1.22,4.87-2.43,6.08-4.87,2.43-1.22,3.65-3.65,4.87-6.08,1.22-3.65,1.22-7.3,1.22-13.39-2.43-17-6.08-25.55-13.39-25.55a28.09,28.09,0,0,0,6.08-8.52v-11c0-2.43-1.22-6.08-1.22-9.74q-5.48-20.08-18.25-25.55L309.09,11,360.2,87.62a11,11,0,0,0-1.2-6.09c-2.43-14.6-6.08-20.69-11-19.47,4.87-8.52,7.3-18.25,4.87-28-1.22-8.52-4.87-15.82-9.74-20.69a25.46,25.46,0,0,0-7.3-4.87L377.2,2.42c-6.08,3.65-8.52,8.52-11,13.39-1.22,3.65-1.22,11,0,19.47,2.43,11,7.3,17,14.6,20.69-6.08,0-9.74,8.52-8.52,26.77v6.08c2.43,6.08,4.87,12.17,7.3,15.82,2.43,2.43,3.65,3.65,6.08,3.65-7.3,0-15.82,0-24.34,1.22-7.3,1.22-13.39,2.43-19.47,3.65C345.6,110.74,346.82,108.3,345.6,104.65ZM301.79,69.36A4.47,4.47,0,0,0,303,65.71c0-1.22-1.22-2.43-1.22-3.65s-2.43-1.22-3.65-1.22-2.43,1.22-3.65,1.22-1.22,2.43-1.22,3.65,1.22,2.43,1.22,3.65,2.43,1.22,3.65,1.22A5.33,5.33,0,0,0,301.79,69.36Z"/><path class="cls-1" d="M451.47,103.44c0-4.87-1.22-12.17-4.87-20.69L428.35,41.37c0,2.43-1.22,3.65-1.22,6.08,0,6.08,1.22,11,6.08,14.6-6.08,2.43-8.52,8.52-9.74,19.47,0,7.3,0,12.17,1.22,15.82,1.22,2.43,3.65,6.08,7.3,12.17q-5.48-1.83-18.25-3.65c-9.74-1.22-20.69,0-34.07,0l7.3-3.65c2.43-1.22,4.87-2.43,6.08-4.87s2.43-7.3,3.65-13.39c1.22-17-1.22-26.77-8.52-28q5.48-3.65,7.3-7.3a24.3,24.3,0,0,0,2.43-11V28c-1.22-14.6-6.08-23.12-13.39-28l46.24,3.65,36.51,85.18V82.75q0-21.9-7.3-21.9c6.08-7.3,9.74-17,11-26.77,0-8.52-1.22-15.82-6.08-21.9L460,7.3l41.37,2.43c-6.08,2.43-11,6.08-12.17,11-1.22,3.65-2.43,9.74-3.65,19.47q0,16.43,11,21.9c-6.08-1.22-11,7.3-13.39,24.34a11,11,0,0,1-1.22,6.08c0,7.3,0,13.39,2.43,18.25,1.22,2.43,3.65,4.87,4.87,4.87A78.46,78.46,0,0,0,464.86,112H445.39C449,110.74,451.47,108.3,451.47,103.44ZM415,60.85c1.22-1.22,1.22-1.22,1.22-3.65a4.88,4.88,0,1,0-9.74,0A5.18,5.18,0,0,0,415,60.85Z"/><path class="cls-1" d="M624.27,73c1.22,4.87,1.22,8.52,2.43,11,1.22,3.65,4.87,7.3,9.74,11-6.08-1.22-11,2.43-17,8.52a26.5,26.5,0,0,0-6.08,9.74A41.25,41.25,0,0,1,589,133.86c-12.17,3.65-25.55,2.43-40.16-1.22-17-4.87-29.21-13.39-36.51-24.34-2.43-4.87-4.87-9.74-4.87-15.82,0-15.82,0-25.55-1.22-26.77-1.22-3.65-3.65-7.3-8.52-11,6.08-1.22,12.17-3.65,17-8.52l7.3-7.3c14.6-17,34.07-21.9,60.85-14.6A13.23,13.23,0,0,1,589,25.55c13.39,3.65,24.34,14.6,34.07,34.07C621.84,63.28,623,68.15,624.27,73Zm-96.14-6.08c1.22-1.22,2.43-1.22,2.43-2.43V60.85c0-1.22-1.22-2.43-3.65-2.43h-3.65c-1.22,1.22-2.43,1.22-2.43,3.65v3.65c1.22,1.22,1.22,2.43,2.43,2.43,2.44,0,3.66,0,4.88-1.22ZM581.68,79.1q11,0,14.6-14.6A27.05,27.05,0,0,0,592.63,45c-3.65-4.87-8.52-9.74-14.6-11a23.73,23.73,0,0,0-18.25,0q-9.13,3.65-14.6,14.6c0,1.22-1.22,2.43-1.22,3.65-2.43,8.52-1.22,14.6,4.87,19.47-6.08,1.22-11,6.08-13.39,15.82-1.22,4.87-1.22,9.74,0,13.39,2.43,8.52,7.3,14.6,14.6,17h2.43a4.47,4.47,0,0,0,3.65,1.22c9.74,2.43,17,0,23.12-8.52,3.65-2.43,6.08-6.08,7.3-12.17C589,87.62,587.76,81.53,581.68,79.1Zm28,12.17c1.22-1.22,2.43-1.22,2.43-2.43V85.18c0-1.22-1.22-3.65-2.43-3.65H606c-1.22,0-2.43,1.22-2.43,3.65v3.65c1.22,1.22,1.22,2.43,3.65,2.43Z"/><path class="cls-1" d="M665.65,70.58c-4.87,8.52-12.17,13.39-23.12,17,3.65-2.43,6.08-3.65,7.3-4.87s1.22-2.43,2.43-3.65V77.88l1.22-1.22a1.19,1.19,0,0,0-1.16-1.22h-.06a14.66,14.66,0,0,1-6.08-6.08,10.39,10.39,0,0,1,0-8.52,14.66,14.66,0,0,1,6.08-6.08,10.39,10.39,0,0,1,8.52,0C668.08,58.41,669.3,63.28,665.65,70.58Z"/><path class="cls-1" d="M742.31,193.49c-4.87-2.43-12.17-1.22-20.69,2.43C713.1,202,703.37,202,690,197.14c-4.87-2.43-11-4.87-17-8.52-13.39-9.74-20.69-18.25-24.34-26.77-2.43-4.87-2.43-12.17,0-19.47,1.22-8.52-1.22-15.82-8.52-24.34l43.81,31.64c-4.87-2.43-8.52-1.22-12.17,3.65a4.25,4.25,0,0,0-1.22,2.43c-2.43,8.52,1.22,14.6,8.52,19.47,4.87,4.87,12.17,3.65,19.47-1.22,2.43-2.43,6.08-4.87,8.52-9.74,3.65-8.52,0-17-13.39-29.21q-14.6-12.78-18.25-21.9c-1.22-3.65-1.22-7.3,0-12.17s1.22-9.74-1.22-13.39c-1.22-2.43-2.43-4.87-4.87-6.08,2.43,2.43,4.87,3.65,8.52,4.87,6.08,2.43,11,1.22,14.6-1.22q7.3-3.65,21.9,0A107.88,107.88,0,0,1,735,94.92c13.39,8.52,19.47,19.47,18.25,30.42,0,8.52,0,15.82,2.43,19.47-3.65-4.87-11-9.74-18.25-15.82-4.87-3.65-11-7.3-17-11,6.08,2.43,9.74,1.22,11-1.22a4.47,4.47,0,0,0,1.22-3.65c0-2.43-2.43-4.87-6.08-7.3a9.23,9.23,0,0,0-4.87-2.43c-4.87-2.43-8.52-3.65-12.17-1.22-1.22,1.22-3.65,2.43-4.87,3.65-3.65,7.3-1.22,14.6,7.3,20.69,13.39,9.74,21.9,18.25,25.55,29.21,2.43,7.3,3.65,14.6,1.22,20.69C737.44,185,738.66,189.84,742.31,193.49Zm-47.46-87.62c1.22,0,2.43-1.22,3.65-2.43a4.47,4.47,0,0,0,1.22-3.65c0-1.22-1.22-2.43-2.43-3.65a4.47,4.47,0,0,0-3.65-1.22c-1.22,0-2.43,1.22-3.65,2.43a4.47,4.47,0,0,0-1.22,3.65c0,1.22,1.22,2.43,2.43,3.65A4.47,4.47,0,0,0,694.85,105.87Zm28,75.45c1.22,0,2.43-1.22,3.65-2.43a4.47,4.47,0,0,0,1.22-3.65c0-1.22-1.22-2.43-2.43-3.65a4.47,4.47,0,0,0-3.65-1.22c-1.22,0-2.43,1.22-3.65,2.43a4.47,4.47,0,0,0-1.22,3.65c0,1.22,1.22,2.43,2.43,3.65a4.47,4.47,0,0,0,3.64,1.22Z"/></svg>