<?xml version="1.0" encoding="utf-8"?>
<!-- Generator: Adobe Illustrator 21.0.2, SVG Export Plug-In . SVG Version: 6.00 Build 0)  -->
<svg version="1.1" id="Layer_1" xmlns="http://www.w3.org/2000/svg" xmlns:xlink="http://www.w3.org/1999/xlink" x="0px" y="0px"
	 viewBox="0 0 782.5 866.4" style="enable-background:new 0 0 782.5 866.4;" xml:space="preserve">
<title>logo</title>
<path d="M450.2,468.5c-1.2-2.4,0-4.9,0-8.5c0-1.2,0-1.2,1.2-2.4c1.2-2.4,3.6-3.6,6.1-6.1c2.7-3,5.2-6.3,7.3-9.7
	c0.9-1,1.4-2.3,1.2-3.6V437h-1.2l-2.4,2.4c-3.6,4.9-7.3,9.7-12.2,13.4c-1.2,1.2-3.6,2.4-4.9,3.6s-2.4,0-2.4-1.2
	c-1.3-1.3-2.1-3-2.4-4.9c-2.4-3.6-6.1-4.9-9.7-6.1s-6.1,0-9.7,1.2c-4.3,1.5-8.4,3.6-12.2,6.1c-2.4,2.4-4.9,3.6-7.3,6.1
	c-4.9,4.9-9.7,9.7-14.6,13.4c-2.4,2.4-4.9,3.6-7.3,6.1c-6,4.9-11.6,10.2-17,15.8c-3.3,3.1-5.8,6.8-7.3,11v2.4
	c0.1-0.9,0.6-1.8,1.2-2.4c0-0.7,0.5-1.2,1.2-1.2c0,0,0,0,0.1,0c2.4-1.2,2.4-2.4,3.6-3.6c2.4-1.2,3.6-3.6,6.1-6.1
	c1.2-1.2,1.2-2.4,3.6-2.4c0,2.4,0,4.9,1.2,6.1c2.4,4.9,6.1,7.3,9.7,9.7c2.4,1.2,3.6,2.4,6.1,3.6c2.4,2.4,3.6,4.9,4.9,8.5
	c1.2,6.1,0,13.4-1.2,19.5l0,0v4.9c-2.4,1.2-4.9,3.7-7.3,4.9c-2.4,0-3.6,1.2-6.1,2.4h-1.2c-3.6,2.4-8.5,3.7-12.2,4.9s-7.3,0-11,1.2
	c-2.4,0-6.1,1.2-8.5,1.2h-6.1c-4.9,0-9.7,0-14.6-1.2c-3.6,0-7.3-1.2-11-2.4c-4.6-1.1-9.1-2.7-13.4-4.9c-4.9-2.4-9.7-3.7-13.4-7.3
	l-11-7.3c-2.4-1.2-4.9-3.7-7.3-6.1c-3.6-3.7-7.3-6.1-9.7-9.7c-3.9-4-7.1-8.5-9.6-13.5c0-1.2-1.2-1.2-1.2-2.4
	c-3.6-4.9-6.1-12.2-8.5-18.2c0-1.2-1.2-2.4-1.2-3.6c-2.4-6.1-3.6-13.4-4.9-20.7c0-3.6-1.2-7.3,0-11v-6c0-1.2,0-2.4,1.2-2.4
	c3.6-1.2,7.3-3.6,11-6.1c4.9-2.4,11-4.9,15.8-7.3c2.4-1.2,6.1-2.4,8.5-4.9c3.6-2.4,8.5-4.9,12.2-7.3c2.4-1.2,4.9-2.4,6.1-3.6
	l1.2-1.2c4.9-1.2,7.3-4.9,12.2-6.1c0.7,0,1.2-0.5,1.2-1.2c0,0,0,0,0-0.1c2.4-1.2,4.9-3.6,7.3-3.6c2.4-1.2,4.9-2.4,6.1-3.6
	c6.1-3.6,12.2-7.3,17-11c3.1-1.6,6-3.7,8.5-6.1c2.4-2.4,6.1-3.6,8.5-6.1l11-7.3c8.5-4.9,15.8-9.7,24.3-14.6c2.4-1.2,4.9-3.6,7.3-4.9
	s2.4-2.4,4.9-3.6s6.1-3.6,8.5-4.9c1.3-0.1,2.3-1.1,2.4-2.4c1.4-1.5,3-2.7,4.9-3.6c4.9-2.4,8.5-6.1,13.4-8.5c3.6-1.2,6.1-3.6,9.7-6.1
	h2.4c1.2,0,2.4,1.2,3.6,2.4c3.6,3.6,7.3,8.5,11,12.2c0,0.7,0.5,1.2,1.2,1.2c0,0,0,0,0.1,0c1.2,4.9,3.6,8.5,4.9,13.4
	c1.2,6.1,4.9,12.2,8.5,18.2c1.2,2.4,3.6,3.6,4.9,4.9c2.6,1.4,4.7,3.5,6.1,6.1c1.5,1.7,2.4,3.8,2.4,6.1v17c0,2.4,1.2,4.9,1.2,7.3
	c0,3.6,2.4,6.1,3.6,7.3c2.4,2.4,8.5,3.6,12.2,0c0.7-0.7,1.1-1.5,1.2-2.4c1.2,1.2,1.2,2.4,2.4,3.6c2.4,7.1,3.6,14.5,3.6,21.9
	c0,2.4,0,2.4-2.4,2.4c-1.8,0.3-3.5,1.1-4.9,2.4c-1.2,0-1.2,1.2-2.4,2.4c-1.2,2.4-1.2,2.4-2.4,1.2c-1.2,0-1.2-1.2-2.4-1.2
	c-6.1-1.2-8.5,1.2-11,6.1c0,1.2,0,1.2-1.2,1.2c-4.9-1.2-8.5,1.2-11,4.9c-1.2,1.2-1.2,1.2-2.4,1.2c-2.4-1.2-6.1,0-8.5,1.2
	c-1.2,1.2-2.4,1.2-4.9,2.4C451.5,468.5,450.2,468.5,450.2,468.5z M411.3,401.6c0,4.9,1.2,9.7,1.2,13.4c1.2,4.9,3.6,8.5,6.1,13.4
	c1.2,2.4,4.9,3.6,7.3,3.6c5.8,0.2,11.3-2.6,14.6-7.3c2.4-2.5,4.5-5.4,6.1-8.5c1.2-1.2,2.4-2.4,2.4-4.9c2.4-6.1,4.9-12.2,6.1-18.2
	c1.2-8.5,2.4-17-1.2-25.5c-1.2-4.9-3.6-8.5-8.5-11c-2.4-1.2-3.6-2.4-6.1-2.4c-6.1-2.4-6.1-2.4-4.9-8.5v-6.1c0-1.2-1.2-1.2-2.4-1.2
	s-1.2,1.2-1.2,2.4v6.1c0,2.4-1.2,3.6-2.4,6.1c0,2.4-1.2,3.6-2.4,4.9c-2.7,3-5.2,6.3-7.3,9.7C415,378.5,411.3,389.4,411.3,401.6
	L411.3,401.6z M355.3,474.6l7.3-7.3c1.2-1.2,2.4-3.6,4.9-4.9c3.6-2.4,7.3-6.1,11-9.7s8.5-7.3,12.2-11l11-11c2.4-3.6,2.4-7.3,3.6-11
	v-1.2c-1.2-3.6-3.6-7.3-6.1-11l-1.2-1.2c-1.2-4.9-3.6-9.7-4.9-15.8c0-2.4-1.2-2.4-3.6-3.6c-2.5-1.8-5.5-2.6-8.5-2.4
	c-2.4,0-4.9-1.2-7.3-3.6c-1.2-2.4-2.4-3.6-3.6-6.1l-1.2-1.2c-1.2,1.2,0,2.4,0,3.6c0,2.4,2.4,4.9,2.4,7.3c1.2,3.6,3.6,3.6,6.1,3.6
	c1.2,0,3.6,0,4.9,1.2c2.4,0,3.6,1.2,3.6,3.6s1.2,4.9,2.4,7.3c0.9,1,1.4,2.3,1.2,3.6c0,2.4,1.2,4.9,2.4,7.3l3.6,3.6
	c2.4,2.4,2.4,4.9,2.4,7.3c0.2,3.9-1.7,7.6-4.9,9.7c-0.7,0.7-1.1,1.5-1.2,2.4c0,1.2-1.2,2.4-2.4,3.6c-4.9,4.9-11,9.7-15.8,14.6
	c-3.6,3.6-7.3,8.5-12.2,11l-3.6,3.6c-1.2,2.4-2.4,4.9-3.6,6.1L355.3,474.6z"/>
<path d="M434.4,316.4v-21.9c0-6.1,0-12.2,1.2-17v-17c0-4.9,0-8.5,1.2-13.4v-51.2c3.6-6.1,3.6-12.2,4.9-18.2
	c1.2-4.9,1.2-8.5,1.2-13.4v-1.2c-2.4-3.6-2.4-3.6-6.1-2.4c-5.7,2.1-11,5-15.9,8.5c-7.3,3.6-12.2,9.7-17,15.8l-2.4,2.4
	c-2.4,2.4-3.6,4.9-6.1,6.1c-2.4,2.4-4.9,6.1-8.5,8.5l-1.2,1.2c-0.9,1.8-2.1,3.5-3.6,4.9c-2.4,7.3-7.3,12.2-11,18.2
	s-7.3,13.4-11,20.7c-2.1,3.4-3.8,7.1-4.9,11v1.2c-2.4,2.4-2.4,6.1-4.9,8.5l-11,21.9c-1.2,3.6-3.6,7.3-4.9,11
	c-1.2,2.4-2.4,6.1-3.6,8.5c-1.1,3.9-2.7,7.6-4.9,11c-1.2,3.6-2.4,6.1-3.6,9.7c-1.2,2.4-1.2,3.6-2.4,6.1c-1.2,1.2-1.2,3.6-2.4,4.9
	c-2.4,4.9-6.1,9.7-9.7,14.6c-1.2,2.4-2.4,3.6-3.6,6.1c-2.4,3.6-6.1,7.3-9.7,11s-8.5,8.5-13.4,11c-1.2,1.2-2.4,1.2-3.6,2.4H275
	c-4.9,0-9.7,1.2-13.4,1.2h-2.4c-6.1,0-13.4-1.2-19.5-2.4c-3.6-1.2-8.5-1.2-12.2-2.4c-2.4,0-4.9-1.2-7.3-2.4
	c-1.2-1.2-3.6-1.2-4.9-1.2c-4.9-2.4-11-4.9-15.8-7.3c-6.1-2.4-11-4.9-17-7.3h-4.9c-1.2,0-2.4,2.4-2.4,3.6c0,0.7,0.5,1.2,1.2,1.2
	c0,0,0,0,0.1,0c2.4,3.6,4.9,7.3,6.1,11c0,1.2,1.2,1.2,1.2,2.4c2.4,3.6,6.1,7.3,7.3,11c1.2,2.4,3.6,4.9,4.9,7.3
	c2.4,3.6,4.9,8.5,8.5,12.2c1.2,2.4,3.6,4.9,4.9,7.3c2.4,3.6,3.6,7.3,6.1,9.7c2.4,3.6,4.9,6.1,7.3,9.7c0,0.7,0.5,1.2,1.2,1.2
	c0,0,0,0,0.1,0c-1.2,1.2-2.4,1.2-3.6,2.4c-1.2-1.2-2.4-3.6-3.6-4.9c-2.7-3.9-5.1-8-7.3-12.2c-6.1-8.5-12.2-15.8-17-24.3
	c-2.4-3.6-3.6-6.1-7.3-9.7c-1.2-1.2-2.4-3.6-3.6-4.9c-2.4-4.9-6.1-8.5-8.5-12.2c-3.6-7.3-9.7-12.2-13.4-19.5l-3.6-7.3
	c3.6-3.6,7.3-4.9,12.2-4.9c9.7,0,19.5,3.6,29.2,7.3c4.3,1.5,8.4,3.6,12.2,6.1c3.6,1.2,7.3,3.6,11,4.9c2.4,1.2,3.6,1.2,6.1,2.4
	c8.3,2.4,16.9,3.6,25.6,3.6h2.4c2.4,0,4.9,0,7.3-1.2s3.6-1.2,6.1-2.4s4.9-3.6,7.3-6.1c4.4-4.6,8.5-9.4,12.2-14.6
	c1.2-1.2,1.2-1.2,1.2-2.4c1.2-2.4,3.6-4.9,4.9-8.5s3.6-7.3,4.9-11c1.4-2.7,2.7-5.6,3.6-8.5c1.1-3.9,2.7-7.6,4.9-11
	c2.4-4.9,3.6-9.7,6.1-14.6c2.4-6.1,4.9-13.4,8.5-19.5l3.6-7.3c2.4-4.9,3.6-8.5,6.1-13.4c1.2-3.6,3.6-6.1,6.1-9.7l7.3-11l3.5-7.5
	c3.3-6.9,7.4-13.4,12.2-19.5c3.6-4.9,6.1-9.7,9.7-14.6c3.6-6.1,7.3-12.2,11-17c1.4-2.6,3.5-4.7,6.1-6.1l1.2-1.2
	c3.6-3.6,7.3-6.1,11-11s9.7-8.5,14.6-12.2c4.9-2.4,9.7-7.3,14.6-9.7c6-3.7,12.6-6.2,19.5-7.3c1.2,0,1.2,0,2.4-1.2
	c1.2,0,2.4,0,2.4,1.2l0,0c-1.2,6.1,0,12.2-1.2,18.2c-1.2,7.3-3.6,14.6-3.6,20.7c0,7.3-2.4,14.6-2.4,21.9c0,4.9-1.2,9.7-1.2,14.6V208
	c1.2,4.9,0,9.7,0,13.4V236c0,1.2,0,3.6-1.2,4.9c-1.2,3.6,0,8.5,0,12.2c0.2,6.5-0.2,13-1.2,19.5v6.1c0,7.3-1.2,14.6-1.2,23.1v6.1
	c0,0.7-0.5,1.2-1.2,1.2c0,0,0,0-0.1,0C438.1,315.2,436.9,316.4,434.4,316.4z"/>
<path d="M178.9,726.5c-2.4,1.2-4.9,0-6.1,0c-2.4,0-4.9,0-7.3-1.2c-3.7-1.1-7.1-3.2-9.7-6.1c-4.4-4.2-7.4-9.8-8.5-15.8
	c-1.2-6.1,1.2-12.2,3.6-18.2c1.4-2.6,3.5-4.7,6.1-6.1c2.4-1.2,6.1-2.4,8.5-4.9c3.6-2.4,7.3-2.4,12.2-2.4c3.6,0,8.5,1.2,12.2,1.2
	c2.4,0,4.9,1.2,7.3,2.4c1.2,1.2,3.6,0,4.9,0c3.6-1.2,6.1-2.4,9.7-2.4h2.4c2.4-1.2,6.1-1.2,9.7-3.7c1.2-1.2,3.6-1.2,6.1-1.2
	c3.6-1.2,7.3-2.4,9.7-4.9c1.3-1.3,3-2.1,4.9-2.4h1.2c2.4-1.2,4.9-2.4,7.3-2.4l7.3-3.7c1.2-1.2,3.6-1.2,4.9-1.2
	c1.3,0.2,2.7-0.3,3.6-1.2c3.4-2.1,7.1-3.8,11-4.9c3.6-1.2,7.3-2.4,12.2-3.7c2.4,0,3.6-1.2,6.1-1.2c1.2,0,1.2,0,1.2-1.2
	c2.4-1.2,4.9-2.4,6.1-4.9c1.2-1.2,2.4-2.4,3.6-2.4c3.6-2.4,7.3-3.7,11-6.1s8.5-3.7,12.2-6.1c7.3-3.7,14.6-6.1,20.7-8.5
	c2.4-1.2,4.9-3.7,7.3-3.7c1.2-2.4,3.6-2.4,6.1-3.7c7.2-2.5,14.1-5.8,20.6-9.7c2.4-1.2,3.6-2.4,6.1-3.7c0.9-0.1,1.8-0.6,2.4-1.2
	c6.1-3.7,13.4-6.1,19.5-8.5c1.2-1.2,3.6,0,4.9-1.2c3.6-1.2,7.3-1.2,11-1.2c7.3-1.2,14.6,0,21.9-1.2c4.9,0,8.5,0,13.4-1.2h9.7
	c2.4,0,2.4,0,2.4,2.4c1.2,4.9,1.2,4.9-3.6,6.1c-8.5,3.7-15.8,7.3-23.1,11c-6.1,2.4-12.2,6.1-18.2,8.5c-2.4,1.2-3.6,1.2-6.1,2.4
	c-4.8,1.3-9.3,3.3-13.4,6.1l-7.3,3.7l-7.3,3.7c-1.2,1.2-3.6,1.2-4.9,2.4c-4.3,2.2-8.7,3.8-13.4,4.9c-4.9,2.4-8.5,4.9-13.4,7.3
	c-7.3,2.4-13.4,6.1-20.7,9.7c-4.9,2.4-8.5,4.9-13.4,6.1c-6.1,2.4-12.2,4.9-17,8.5c-2.4,2.4-6.1,3.7-9.7,4.9
	c-2.7,1.4-5.6,2.7-8.5,3.7c-7.3,2.4-13.4,6.1-20.7,8.5c-3.6,1.2-8.5,4.9-12.2,6.1s-7.3,3.7-11,6.1c-2.4,1.2-6.1,2.4-8.5,3.7
	c-3.9,1.1-7.6,2.7-11,4.9c-1.2,1.2-2.4,1.2-3.6,2.4c-0.7,0-1.2,0.5-1.2,1.2c0,0,0,0,0,0.1c0,1.2-1.2,1.2-2.4,2.4
	c-1.2,0-1.2,0-2.4,1.2c-2.4,0-3.6,0-3.6-1.2s-1.2-1.2-1.2-2.4c-4.9-7.3-12.2-11-20.7-12.2h-7.3c-2.1-0.2-4.2,0.2-6.1,1.2
	c-2.4,1.2-3.6,2.4-6.1,3.7c-1.3,0.1-2.3,1.1-2.4,2.4l-1.2,1.2c-2.4,1.2-3.6,3.7-4.9,4.9c-3.6,3.7-4.9,8.5-2.4,14.6
	C176.4,720.4,177.7,722.8,178.9,726.5z"/>
<path d="M411.3,485.5c-2.4-1.2-4.9-2.4-6.1-3.6c4.9,0,8.5-3.6,13.4-4.9c6.1-1.2,9.7,0,13.4,3.6c1.2,1.2,1.2,2.4,2.4,2.4
	c2.4,2.4,3.6,7.3,0,9.7c-2.4,2.4-3.6,3.6-6.1,4.9c-1.2,1.2-2.4,3.6-3.6,4.9c-0.7,0.6-1.1,1.5-1.2,2.4c0,4.9,0,9.7,1.2,14.6
	c0,3.7,0,7.3,1.2,9.7s2.4,4.9,4.9,4.9s4.9,1.2,7.3,1.2c1.2,0,1.2,0,2.4,1.2c1.2,4.9,4.9,6.1,8.5,7.3c1.2,0,3.6,1.2,4.9,1.2
	c3.6,1.2,6.1,0,9.7-1.2h2.4c2.4,2.4,6.1,2.4,9.7,3.7c1.3,0.2,2.7-0.3,3.6-1.2c1.2,0,1.2,0,2.4-1.2c2.3-1.2,5-1.2,7.3,0
	c2.4,1.2,6.1,1.2,9.7,0h11c2.4,1.2,6.1,0,8.5-1.2c2.4,0,2.4,0,2.4,1.2v9.7c0,1.2-1.2,2.4,0,3.7c0.1-0.9,0.6-1.8,1.2-2.4
	c1.2,1.2,2.4,2.4,2.4,3.7c3.7,6.1,7.3,12.2,8.5,18.2c0,1.2,1.2,3.7,1.2,4.9c0.1,3.4,0.9,6.7,2.4,9.7c1.2,6.1,2.4,12.2,2.4,18.2v28
	c1.2,6.1,0,12.2,0,17c0,5.5-1.3,10.9-3.7,15.8c-4.6-3.4-8.7-7.5-12.2-12.2c-2.4-2.4-4.9-6.1-7.3-8.5c-1.2-1.2-2.4-3.7-3.7-4.9
	c-2.5-3.8-4.6-7.9-6.1-12.2c-1.2-3.7-3.6-7.3-4.9-11l-3.6-7.3c-3.7-9.8-6.2-20-7.3-30.4c-1.2-6.1-2.4-12.2-1.2-17l0,0
	c0-1.2,0-2.4-1.2-2.4c-1.3,0.1-2.3,1.1-2.4,2.4v3.7c-0.1,1.3-1.1,2.3-2.4,2.4h-18.3c-4.9,1.2-8.5,0-13.4,1.2h-29.2
	c-2.4,0-4.9,0-7.3-1.2c-0.9-0.1-1.8-0.6-2.4-1.2c-2.4-2.4-6.1-3.7-8.5-6.1c-1.2-1.2-2.4-1.2-2.4-2.4c-1.2-1.2-2.4-1.2-3.6-2.4
	c-2.4-1.2-2.4-3.7-2.4-6.1c0-4.9,0-9.7,1.2-14.6c1.2-8.5,1.2-17.1,0-25.5c-1.2-4.9-3.6-8.5-7.3-9.7s-6.1-3.6-8.5-6.1
	c-2.4-1.2-2.4-3.6-3.6-6.1c-1.3-6.1-1.3-6.1,3.6-9.7c3.6-3.6,8.5-6.1,12.2-9.7c0-1.2,1.2-1.2,2.4-1.2h1.2c1.2,1.2,3.6,2.4,4.9,3.6
	c2.8,2.7,6.1,4.8,9.7,6.1C407.7,485.5,410.1,485.5,411.3,485.5z M525.7,634c0-2.4-1.2-4.9-1.2-7.3c0-4.9-1.2-9.7-2.4-14.6
	c-1.2-3.7-2.4-8.5-3.7-12.2c-1.2-4.9-2.4-9.7-3.7-13.4c0-1.2-1.2-3.7-1.2-4.9v-1.2c1.2-1.2,2.4,0,3.7,1.2s1.2,3.7,2.4,4.9
	c1.2,2.4,2.4,4.9,2.4,7.3c1.2,4.9,2.4,8.5,3.7,13.4c1.2,3.7,1.2,7.3,2.4,11c1.2,6.1,1.2,12.2,2.4,17s1.2,8.5,1.2,13.4v9.7
	c0.9-1,1.4-2.3,1.2-3.7c0-6.1,0-12.2-1.2-18.2v-8.5l-3.6-21.9c-0.2-3-1.1-5.9-2.4-8.5c-1.4-6.5-3.8-12.6-7.3-18.2
	c0-1.2-1.2-2.4-1.2-3.7c0.2-2.1-0.2-4.2-1.2-6.1c-1.2,0-1.2,2.4-1.2,2.4c-1.2,0-1.2-2.4-3.6-3.7v1.2c0,1.2,1.2,2.4,1.2,3.7
	c1.2,2.4,1.2,2.4-1.2,3.7c0-1.2-1.2-2.4-1.2-3.7s-1.2-2.4-3.6-1.2c0,1.2,1.2,3.7,1.2,4.9H505c-1.3-0.1-2.3-1.1-2.4-2.4V572
	c-1.2,0-1.2,0-1.2,1.2v2.4c0,1.2-1.2,1.2-2.4,1.2h-1.2c-1.2,0-1.2,0-1.2-1.2v-3.7c0-0.7-0.5-1.2-1.2-1.2c0,0,0,0-0.1,0l0,0
	c0,1.2-1.2,2.4,0,3.7c0,1.2,0,1.2-1.2,1.2h-2.4v1.2c0,1.2,1.2,1.2,2.4,1.2c1.3,0.1,2.3,1.1,2.4,2.4v7.3c0,8.5,2.4,18.2,4.9,26.8
	c0,1.2,1.2,2.4,1.2,3.7c1.2,4.9,3.6,9.7,6.1,14.6c2.4,3.7,3.6,7.3,6.1,12.2l7.3,11c0,1.2,1.2,1.2,2.4,2.4c-3.7-7.3-8.5-14.6-11-21.9
	c-3.8-7.5-7-15.2-9.7-23.1c-1.2-4.9-2.4-11-3.6-15.8s-1.2-9.7-2.4-14.6v-5h1.2c3.6,0,2.4,0,3.6,2.4c0,3.7,1.2,7.3,1.2,11
	c2.4,9.7,4.9,18.2,7.3,26.8c1.1,3.5,2.8,6.8,4.9,9.7c0,0.7,0.5,1.2,1.2,1.2c0,0,0,0,0.1,0v-1.2c-1.2-4.9-3.7-8.5-3.7-13.4
	c-1.2-3.7-1.2-6.1-2.4-9.7c-2.4-7.3-4.9-15.8-4.9-24.3c0-3.7,0-3.7,2.4-3.7c1.2,0,1.2,0,2.4,1.2c0,1.2,1.2,2.4,1.2,3.7
	c1.2,7.3,2.4,14.6,4.9,20.7c2.4,7.3,3.7,14.6,6.1,20.7C523.3,629.1,524.5,631.6,525.7,634z"/>
<path d="M56,394.3c0-1.2,1.2-3.6,1.2-4.9c0-2.4,1.2-2.4,2.4-3.6c2.4,0,3.7-1.2,6.1-1.2c8.5-2.4,12.2-7.3,14.6-14.6
	c1.2-4.9,1.2-9.7,1.2-14.6c-1.2-6.1-2.4-11-6.1-15.8c-1.2-2.4-2.4-4.9-4.9-4.9c-2.4-1.2-6.1-2.4-8.5-3.6c-3.7,0-6.1-1.2-9.7-1.2
	h-1.2c-2.4-1.2-3.7,0-6.1,1.2h-1.2c-0.9-1-1.4-2.3-1.2-3.6c0.2-2.1-0.2-4.2-1.2-6.1c-1.2-2.4,0-3.6,1.2-4.9c4.9-6.1,9.7-11,17-12.2
	c3.7-1.2,7.3,0,11,2.4c2.7,2.6,5.2,5.4,7.3,8.5c0,1.2,1.2,1.2,2.4,2.4c5.4,4,9.9,8.9,13.4,14.6c1.2,3.6,2.4,7.3,2.4,12.2
	s0,8.5-1.2,13.4c-1.2,3.6-1.2,8.5,1.2,12.2c3.7,6.1,7.3,11,12.2,14.6c3.7,0,4.9,2.4,7.3,4.9c2.4,3.6,6.1,6.1,9.7,8.5
	c4.3,3.4,8.4,7,12.2,11c2.4,2.4,6.1,4.9,8.5,7.3c2.4,1.2,6.1,4.9,8.5,6.1c6.1,3.6,9.7,8.5,15.8,12.2c4.9,3.6,8.5,7.3,13.4,9.7
	l21.9,14.6c3.6,2.4,6.1,3.6,9.7,6.1h1.2c3.5,3.5,7.7,6.4,12.2,8.5l1.2,1.2c1.2,7.3,4.9,13.4,7.3,19.5c1.2,3.6,3.6,7.3,6.1,11
	c2.4,4.9,4.9,9.7,9.7,13.4l0,0c4.9,7.3,12.2,12.2,18.2,18.2c3.6,3.7,8.5,6.1,13.4,8.5c1.2,0,2.4,2.4,3.6,2.4
	c4.3,3.4,9.3,5.9,14.6,7.3c2.4,1.2,6.1,2.4,8.5,3.7c3.6,1.2,7.3,1.2,11,2.4c4.9,0,9.7,1.2,14.6,1.2h13.4c1.2,0,1.2,0,2.4,1.2
	c4.9,4.9,12.2,8.5,17,12.2c3.1,2.2,6.4,4.2,9.7,6.1c2.4,2.4,6.1,3.7,8.5,6.1c1.2,1.2,3.6,2.4,4.9,3.7l-7.3,3.7
	c-4.9,2.4-9.7,4.9-14.6,6.1c-2.7,1.4-5.5,2.2-8.5,2.4h-2.5c-2.4-1.2-3.6-3.7-6.1-4.9c-6.1-3.7-11-8.5-15.8-12.2
	c-5.4-4.5-11.1-8.5-17-12.2c-4.9-3.7-11-6.1-15.8-11c-3.6-3.7-8.5-6.1-12.2-8.5c-6.1-3.7-11-8.5-15.8-12.2
	c-8.5-6.1-15.8-12.2-24.3-18.2c-6.1-4.9-11-8.5-15.8-13.4c-2.4-2.4-6.1-4.9-8.5-7.3c-1.2,0-1.2-1.2-2.4-2.4
	c-2.4-2.4-4.9-3.6-8.5-6.1L196,480.7c-4.9-2.4-8.5-6.1-12.2-9.7c-7.3-6.1-15.8-11-23.1-17c-9.7-7.3-18.2-13.4-28-20.7
	c-7-5.7-14.3-11-21.9-15.8c-3.7-3.6-8.5-6.1-12.2-9.7c-2.4-2.4-4.9-4.9-8.5-6.1c-2.4-2.4-6.1-3.6-8.5-6.1s-4.9-3.6-8.5-4.9
	s-6.1,0-9.7,1.2C60.8,394.3,58.4,394.3,56,394.3z"/>
<path d="M760.6,424.7c1.3-0.2,2.7,0.3,3.7,1.2l7.3,3.6c4.7,3.3,7.5,8.8,7.3,14.6c0,2.4,0,6.1-1.2,8.5c-1.2,3.6-2.4,6.1-6.1,8.5
	c-0.7,0-1.2,0.5-1.2,1.2c0,0,0,0,0,0.1c-2.6,2.4-6.1,3.7-9.7,3.6l0,0c-7.3,1.2-13.4-1.2-19.5-3.6c-3.7-1.2-7.3,0-11,1.2
	c-7.3,3.6-15.8,8.5-23.1,12.2l-14.6,7.3c-3.7,1.2-6.1,3.6-9.7,4.9s-7.3,3.6-9.7,4.9c-3.7,2.4-8.5,3.6-12.2,4.9
	c-2.4,1.2-6.1,2.4-8.5,3.6c-3,2.1-6.3,3.7-9.7,4.9c-2.4,1.2-4.9,2.4-7.3,2.4H634c-2.4,2.4-7.3,3.6-9.7,6.1c-2.4,1.2-4.9,2.4-6.1,3.7
	c-3.7,2.4-7.3,3.7-12.2,6.1c-4.9,1.2-8.5,3.7-12.2,6.1c-2.4,1.2-6.1,2.4-8.5,4.9c-2.4,1.2-3.7,1.2-6.1,2.4
	c-8.5,3.7-15.8,8.5-24.3,12.2l-7.3,3.7c-1.2,1.2-3.7,1.2-4.9,2.4s-2.4,1.2-4.9,1.2c-1.2,0-1.2,0-2.4,1.2c-1.2,2.4-3.7,2.4-4.9,3.7
	c-0.7,0-1.2,0.5-1.2,1.2c0,0,0,0,0,0.1c-2.4,1.2-2.4,1.2-3.7-1.2l-2.4-2.4c-2.4-1.2-2.4-3.7-2.4-6.1v-4.9c0-2.4-1.2-6.1-1.2-8.5
	c-0.2-1.3,0.3-2.7,1.2-3.7c2.4-1.2,3.7-2.4,6.1-2.4c4.9-1.2,8.5-4.9,13.4-6.1c6.1-3.7,12.2-7.3,18.2-9.7c4.9-2.4,11-6.1,15.8-8.5
	c5.6-2.1,11-5,15.8-8.5l18.2-11c3.7-2.4,8.5-3.6,12.2-6.1c4.9-2.4,9.7-6.1,14.6-8.5s8.5-4.9,13.4-7.3c3.7-2.4,8.5-3.6,12.2-6.1
	l1.2-1.2l18.2-11c3.7-2.4,7.3-4.9,12.2-6.1l7.3-3.6c3.7-2.4,6.1-6.1,9.7-8.5c1.2-1.2,2.4-2.4,2.4-3.6c1.2-2.4,2.4-6.1,3.7-8.5
	c0-1.2,1.2-2.4,2.4-1.2c1.2,0,1.2,1.2,1.2,2.4v1.2c-1.2,6.1-1.2,12.2,1.2,18.2c1.2,4.9,4.9,7.3,8.5,9.7c3.7,1.2,6.1,2.4,9.7,2.4
	c2.4,0,4.9,0,7.3-1.2l1.2-1.2c4.9-1.2,8.5-4.9,12.2-8.5c2.4-2.4,2.4-4.9,2.4-7.3C760.6,429.6,761.8,427.1,760.6,424.7z"/>
<path d="M187.4,739.9c1.2-2.4,1.2-4.9,0-6.1c-1.9-3.3-3.9-6.6-6.1-9.7c0-1.2-1.2-1.2-1.2-2.4c-2.4-3.7-2.4-7.3,0-12.2
	c1.2-3.7,3.6-7.3,7.3-8.5l1.2-1.2c1-0.9,2.3-1.4,3.6-1.2c1.2,0,3.6-1.2,4.9-1.2c0.7-0.7,1.5-1.1,2.4-1.2c3.6,0,8.5-1.2,12.2,0
	c6.1,1.1,11.2,5.2,13.4,11c1.2,3.7,2.4,7.3,2.4,12.2c2.4,1.2,2.4,0,3.6-1.2s0-3.7,0-6.1h1.2c2.7,1.2,5.8,1.2,8.5,0
	c1.2,0,3.6-1.2,4.9,0c2.4,0,3.6,1.2,3.6,3.7c-0.2,1.3,0.3,2.7,1.2,3.7c0.1,1.3,1.1,2.3,2.4,2.4c1.2,0,2.4,1.2,3.7,2.4
	c1.8,1.9,3.8,3.6,6.1,4.9c4.9,6.1,12.2,8.5,18.2,11s12.2,3.7,18.2,6.1c3.6,1.2,7.3,2.4,12.2,2.4h34.1c8.5,0,17-2.4,25.5-4.9
	c1.2,0,2.4-1.2,3.6,0c-3.6,6.1-7.3,11-14.6,12.2c-1.2,0-2.4,1.2-3.6,2.4c-3.6,2.4-8.5,3.7-13.4,4.9c-8.5,3.7-17,4.9-24.3,6.1
	c-2.4,0-4.9,0-7.3,1.2c-2.4,0-3.6-2.4-4.9-1.2s-3.6,1.2-6.1,1.2h-6.1c-7.3,0-14.6-1.2-21.9-2.4c-4.9-1.2-9.7-1.2-14.6,1.2
	c-2.4,1.2-4.9,0-7.3-1.2s-4.9-2.4-7.3-2.4c-2.4-1.2-6.1,0-8.5,1.2c-1.2,1.2-2.4,1.2-4.9,2.4c-3.6,1.2-6.1-1.2-8.5-2.4
	c-1.2-4.9-4.9-4.9-8.5-4.9c-1.2,0-3.6,0-4.9,1.2l-1.2,1.2c-4.2,3.2-9.3,4.9-14.6,4.9c-3.6,0-6.1-1.2-9.7-1.2
	c-4.5-0.9-8.4-3.5-11-7.3l-3.6-3.7c-1.2-2.4-2.4-4.9-2.4-7.3v-8.5c0-2.4,2.4-6.1,2.4-8.5c0-0.7,0.5-1.2,1.2-1.2c0,0,0,0,0.1,0
	c3.6,0,6.1-1.2,9.7,0h2.4c1.2-1.2,1.2,0,1.2,0c1.2,1.2,1.2,3.7,2.4,4.9S186.2,738.7,187.4,739.9z"/>
<path d="M94.9,529.3c-1.2,0-2.4-1.2-3.7-1.2c-6.4-3.6-12.5-7.7-18.3-12.1c-5.5-4.6-10.8-9.4-15.8-14.6c-1.2-1.2-2.4-2.4-2.4-3.6
	c-1.2-2.4-3.7-3.6-4.9-4.9c-2.4-2.4-6.1-4.9-7.3-8.5c-1.2-2.4-2.4-4.9-4.9-6.1c-2.4-2.5-4.5-5.4-6.1-8.5c-2.4-2.4-3.6-6.1-6.1-9.7
	c-2.4-4.9-4.9-9.7-4.9-14.6v-6.1c0-3.6,0-6.1-2.4-9.7c-3.5-3.5-4.9-8.6-3.6-13.4c0-3.6,0-6.1,1.2-9.7s0-7.3-1.2-11
	c-1.2-2.4-1.2-3.6-2.4-6.1V381c2.4-6.1,0-12.2-3.6-17c-2.5-2.4-4.6-5.3-6.1-8.5V342c0-2.4,1.2-3.6,2.4-4.9c2.4-3.6,4.9-7.3,8.5-9.7
	l1.2-1.2c2.4-2.4,4.9-2.4,8.5-1.2s6.1,2.4,8.5,4.9h1.2c2.4,0,3.7,0,3.7,2.4c2.4,0,2.4,2.4,3.7,3.6s0,2.4-1.2,3.6
	c-3.7,3.6-6.1,6.1-11,8.5l0,0c2.4,0,6.1,1.2,8.5-1.2s4.9-4.9,6.1-7.3c0.9-1.9,2.7-3.3,4.9-3.6c3.7-1.2,8.5,0,12.2,0
	c2.4,0,3.7,2.4,6.1,3.6c3.7,2.4,6.1,6.1,8.5,11c1.2,4.9,2.4,8.5,2.4,13.4c0,3.6-1.2,6.1-2.4,8.5c-1.2,3.6-3.7,4.9-6.1,7.3
	c-0.6,0.7-1.5,1.1-2.4,1.2c-2.4,0-4.9,1.2-8.5,1.2c-1.2,0-2.4,1.2-3.7,2.4c-1.4,3.9-2.2,8-2.4,12.2c0,2.4-1.2,6.1-4.9,6.1
	c-1.2,0-2.4,1.2-2.4,3.6v4.9c0,2.4,1.2,3.6,2.4,6.1c1.2,1.2,2.4,2.4,1.2,4.9c-1.2,4.9-1.2,11-1.2,15.8c0,2.4,1.2,4.9,1.2,6.1
	c3.7,3.6,4.9,8.5,6.1,13.4l7.3,18.2c1.2,1.2,2.4,2.4,2.4,4.9c1.2,3.6,3.6,6.1,4.9,9.7C73,499.2,78.3,507.8,84,516
	C88.8,519.6,91.3,524.5,94.9,529.3z"/>
<path d="M574.4,747.2c0,1.2-1.2,1.2-1.2,2.4c-3.7,4.6-3.7,11.2,0,15.8c1.2,2.4,1.2,4.9,1.2,8.5v1.2c-2.4,2.4-3.7,4.9-6.1,7.3
	s-6.1,2.4-9.7,3.7h-6.1c-4.9-1.2-9.7-2.4-13.4-4.9h-1.2c-2.4,0-3.7-2.4-4.9-4.9c-1.2-3.7-1.2-7.3-1.2-11c0-1.2,0-3.7-1.2-4.9
	c0-1.2-1.2-2.4,0-4.9v-2.4c-1.2-4.9-4.9-9.7-8.5-13.4c-3.7-4.9-9.7-7.3-14.6-11c-2.4-1.2-3.6-3.7-6.1-4.9c-1.4-1.5-3-2.7-4.9-3.7
	c-6.1-3.7-12.2-8.5-18.2-13.4c-4.9-3.7-8.5-7.3-13.4-9.7c-3.6-2.4-7.3-6.1-11-9.7c-5.4-5.2-11.1-10-17-14.6s-11.6-9.4-17-14.6
	c-3.6-3.7-7.3-7.3-12.2-9.7s-9.7-6.1-14.6-9.7l-1.2-1.2c0.6-0.7,1.5-1.1,2.4-1.2c6.1-1.2,11-4.9,17-7.3c3.6-2.4,7.3-3.7,9.7-4.9h2.4
	c4.9,4.9,11,8.5,15.8,12.2c4.6,4.4,9.4,8.5,14.6,12.2c2.4,2.4,4.9,3.7,6.1,6.1c4.9,4.9,9.7,8.5,14.6,13.4l3.6,3.7
	c4.2,4,8.7,7.6,13.4,11c2.4,2.4,4.9,3.7,8.5,6.1l11,7.3c4.7,2.4,9.2,5.3,13.4,8.5c2.4,1.2,4.9,3.7,7.3,4.9c3.7,2.4,8.5,2.4,12.2,3.7
	h1.2c2.4,0,2.4,1.2,1.2,3.7s-1.2,6.1-1.2,8.5v4.9c0,4.9,2.4,8.5,3.7,12.2v1.2c2.4,6.1,6.1,7.3,12.2,7.3h8.5
	C571.9,746,574.4,746,574.4,747.2z"/>
<path d="M631.6,567.1c2.4,0,3.7,1.2,4.9,2.4c6.1,4.9,9.7,11,13.4,17c2.6,5.1,4.6,10.4,6.1,15.8c1.2,2.4,1.2,6.1,1.2,8.5
	s1.2,4.9,1.2,7.3c1.2,2.4,0,4.9,1.2,7.3c1.2,3.7,1.2,7.3,1.2,11c0,1.2,0,3.7,1.2,4.9c1.2,6.1,0,11-1.2,15.8
	c-0.1,4.6-0.9,9.1-2.4,13.4c0,1.2-1.2,2.4-1.2,3.7c-1.2,7.3-3.7,13.4-8.5,18.2c-2.4,2.4-3.7,7.3-3.7,11c0,2.6-1.4,4.9-3.7,6.1
	c-3.5,1.1-6.2,3.8-7.3,7.3c-1.2,2.4-2.4,3.7-2.4,6.1c-1.2,2.4-3.7,3.7-6.1,4.9c-4.5,0.9-8.4,3.5-11,7.3c-3.7,1.2-3.7,3.7-3.7,4.9
	c0.1,4.3-1.2,8.5-3.6,12.1c-1.2,2.4-2.4,3.7-3.7,6.1c-2.4,4.9-7.3,6.1-12.2,7.3h-6.1c-2.4,0-4.9-1.2-7.3-1.2c-1.2,0-1.2-1.2-1.2-2.4
	c-1.2-4.9,0-8.5,2.4-13.4c0-1.2,1.2-1.2,1.2,0c1.2,0,2.4,1.2,3.7,1.2s1.2,1.2,2.4,0V746l-1.2-1.2c-3.7-2.4-6.1-3.7-9.7-3.7
	c-3.7-1.2-8.5-1.2-12.2-1.2c-1.2,0-2.4-1.2-3.7-2.4c-1.2-2.7-2.8-5.2-4.9-7.3c-0.7-0.7-1.1-1.5-1.2-2.4v-7.3c0-3.7,1.2-6.1,1.2-9.7
	c0-2.4,0-4.9,2.4-6.1c2.4-2.4,4.9-3.7,8.5-4.9H578c2.4,0,6.1,1.2,8.5,1.2s3.7,0,4.9-2.4c1.4-1.5,3-2.7,4.9-3.7
	c7.3-1.2,13.4-4.9,19.5-9.7c2.4-2.4,4.9-3.7,6.1-6.1c1.2-1.2,2.4-3.7,3.7-6.1s3.7-6.1,4.9-8.5s3.7-6.1,2.4-9.7v-2.4
	c1.2-2.4,2.4-4.9,2.4-6.1s1.2-3.7,1.2-6.1c0-4.9,1.2-9.7,1.2-14.6c0-1.2-1.2-2.4,0-4.9c1.2-3.7,0-8.5,1.2-12.2V600
	c0-6.1-2.4-12.2-2.4-18.2c0-2.4,0-4.9-2.4-7.3v-1.2C634,570.8,632.8,569.6,631.6,567.1C631.6,568.3,630.3,567.1,631.6,567.1z"/>
<path d="M576.8,331C576.8,329.8,578,329.8,576.8,331c4.9-2.4,9.7-4.9,14.6-6.1c1.2,0,3.7,0,4.9-1.2c4.4-1.2,9-1.2,13.4,0
	c6.1,0,12.2,1.2,18.2,1.2c6.1,1.2,13.4,2.4,19.5,4.9c8,2.1,15.7,5,23.1,8.5c6.1,2.4,11,4.9,17,7.3c2.4,1.2,4.9,2.4,6.1,3.6
	c4.9,3.6,11,7.3,17,11c3.7,2.4,6.1,3.6,11,3.6c2.4,0,4.9,1.2,7.3,3.6c1.2,1.2,2.4,3.6,3.7,4.9c1.2,3.6,4.9,6.1,8.5,7.3
	c2.4,0,3.7,0,4.9,1.2c1.2,0,1.2,1.2,1.2,2.4l0,0c1.2,6.1,2.4,7.3,7.3,7.3h6.1c2.4,0,3.7,1.2,6.1,2.4c1.2,1.2,2.4,2.4,4.9,2.4
	c3.7,1.2,6.1,4.9,7.3,8.5c2.4,6.1,1.2,13.4-1.2,19.5c-1.2,2.4-1.2,2.4-3.7,1.2c-3.7-2.4-7.3-3.6-11-6.1c-1.2,0-1.2-1.2-1.2-2.4
	c1.2-1.2,0-3.6,1.2-6.1v-1.2h-1.2c-1.2,1.2-1.2,3.6-2.4,4.9c-2.4,7.3-3.7,12.2-2.4,17c0,2.4-1.2,6.1-1.2,8.5c0,0.7-0.5,1.2-1.2,1.2
	c0,0,0,0-0.1,0c-7.3,6.1-14.6,8.5-24.3,4.9l0,0c-2.4-2.4-6.1-4.9-7.3-8.5s-1.2-7.3,0-12.2c0-1.2,1.2-3.6,0-4.9c-0.1-3.2-2-6-4.9-7.3
	c-7.3-3.6-4.9-2.4-4.9-8.5c0-3.6-1.2-7.3-6.1-8.5c-1.8-0.9-3.5-2.1-4.9-3.6c-5.6-6.6-12.2-12.4-19.5-17c-3.7-2.4-6.1-4.9-9.7-6.1
	c-3.7-2.4-8.5-4.9-12.2-7.3c-4.6-2.2-9.1-4.6-13.4-7.3c-3.4-2.1-7.1-3.8-11-4.9c-7.3-2.4-14.6-6.1-21.9-8.5
	c-8.5-2.4-18.2-4.9-26.8-7.3c-2.4-1.2-4.9,0-7.3-1.2C579.2,332.2,578,331,576.8,331z"/>
<path d="M222.7,359c0-2.4,2.4-2.4,2.4-3.6c2.4-2.4,3.6-6.1,6.1-8.5c2.4-4.9,6.1-7.3,9.7-11c6.1-6.1,12.2-11,18.2-17
	c3.6-3.6,8.5-6.1,13.4-8.5c2.4-1.2,6.1-3.6,8.5-4.9c3.6-2.4,7.3-4.9,12.2-6.1l11-3.6h1.2c0,2.4-1.2,3.6-2.4,4.9
	c-1.2-1.2-2.4,0-3.6,0c-7.6,3.6-14.9,7.7-21.9,12.2c-2.4,2.4-6.1,3.6-8.5,6.1c-4.9,3.6-8.5,6.1-13.4,9.7c-1.5,1.4-2.7,3-3.6,4.9
	l-3.6,3.6c-4,3.8-7.6,7.8-11,12.2c-3.5,3.5-6.4,7.7-8.5,12.2c0,1.2-1.2,1.2-2.4,1.2C225.1,360.2,223.9,360.2,222.7,359z"/>
<path d="M497.7,456.3c0-3.6,2.4-4.9,4.9-7.3c1.2-1.2,3.6,0,4.9,1.2c2.4,2.6,3.7,6.1,3.7,9.7c0,2.4,1.2,4.9,1.2,7.3
	c0,3.6-1.2,6.1-4.9,6.1h-1.2c-1.2,0-2.4,1.2-2.4,0c-2.4-2.4-2.4-3.6-2.4-4.9c0-2.4-1.2-4.9-2.4-7.3
	C498.9,458.8,497.7,457.5,497.7,456.3z"/>
<path d="M490.4,473.4c-3.6,0-6.1-1.2-6.1-4.9s-1.2-6.1,0-9.7s3.6-4.9,6.1-4.9h2.4c2.4,0,4.9,1.2,4.9,3.6s1.2,3.6,2.4,6.1
	c1.2,3.6,0,7.3-3.6,8.5S491.6,473.4,490.4,473.4z"/>
<path d="M455.1,544c-6.1,0-9.7-2.4-13.4-6.1c0-1.2-1.2-1.2,0-2.4c3.6-3.7,7.3-7.3,12.2-8.5c1.2,0,1.2,0,2.4,1.2
	c1.2,3.7,3.6,7.3,6.1,11c1.2,1.2,1.2,2.4-1.2,3.7C460,542.7,457.5,544,455.1,544z"/>
<path d="M483.1,536.7c0,2.4-1.2,4.9,0,7.3v1.2c-2.4,1.2-3.6,2.4-6.1,2.4c-3.6,0.1-7.1-1.2-9.7-3.7c-2.4-1.2-2.4-2.4-2.4-3.7
	c0-2.4,2.4-4.9,2.4-7.3l1.2-1.2c1.2,0,2.4-1.2,3.6-1.2c3.6-1.2,6.1,0,9.7,1.2C483.1,533,483.1,534.2,483.1,536.7z"/>
<path d="M484.3,541.5c0-2.4,0-4.9,1.2-7.3c0.1-1.3,1.1-2.3,2.4-2.4c1.2,0,2.4-1.2,3.6,0c2.4,0,4.9,0,7.3,1.2c2.4,0,2.4,1.2,2.4,3.7
	v6.1c0,1.2,0,1.2-1.2,2.4c-4.9,2.4-8.5,2.4-13.4,0C484.3,542.7,484.3,542.7,484.3,541.5z"/>
<path d="M453.9,489.2c-2.4-6.1-3.6-12.2,0-18.2c2.4-4.9,8.5-6.1,12.2-2.4c1.2,1.2,2.4,2.4,1.2,3.6c0,1.2-1.2,1.2-1.2,2.4
	c-4,4.2-7.6,8.7-11,13.4C455.1,488.6,454.6,489.2,453.9,489.2L453.9,489.2z"/>
<path d="M501.4,541.5v-7.3c0.1-1.3,1.1-2.3,2.4-2.4c2.4,0,6.1-1.2,8.5,0c2.4,1.2,2.4,1.2,2.4,3.7v6.1c0,2.4-1.2,3.7-3.6,3.7
	s-3.6,1.2-6.1,1.2c-1.3,0.2-2.7-0.3-3.6-1.2V544C501.4,542.7,501.4,541.5,501.4,541.5z"/>
<path d="M475.8,477h-2.4c-2.4,0-3.6-1.2-3.6-3.6c-1.2-3.6,0-6.1,1.2-9.7c2.4-3.6,6.1-3.6,9.7-1.2c0,0.7,0.5,1.2,1.2,1.2
	c0,0,0,0,0.1,0c0,2.4,0,4.9,1.2,7.3v1.2c-1.2,1.2-1.2,2.4-2.4,3.6c-1,1-2.3,1.4-3.7,1.2H475.8z"/>
<path d="M40.2,848.2c0.2,1.3-0.3,2.7-1.2,3.7v2.4c0,6.1,1.2,9.7,2.4,9.7c-2.4,0-4.9-1.2-8.5-1.2s-7.3,0-11,1.2
	c2.4-1.2,3.6-3.7,4.9-7.3c0-1.2,1.2-2.4,1.2-4.9v-1.2c0-2.4-1.2-3.7-4.9-3.7H17c-2.4,0-3.6,2.4-3.6,6.1v6.1c0,1.2,0,1.2,1.2,2.4
	c0.1,0.9,0.6,1.8,1.2,2.4c-1.2-1.2-3.6-1.2-6.1-1.2s-4.9,0-7.3,1.2c1.2,0,1.2-1.2,2.4-1.2C6,861.5,6,859,6,855.4V853
	c-1.2-7.3-2.4-11-4.9-9.7c2.4-1.2,3.7-2.4,3.7-4.9c-0.2-1.3,0.3-2.7,1.2-3.7c0-3.7,0-6.1-1.2-7.3c-1-2.2-2.7-3.9-4.9-4.8h17
	c-3.8,2.3-6.1,6.5-6.1,11v1.2c0,3.7,1.2,4.9,4.9,4.9h4.9c2.4-1.2,3.6-3.7,3.6-7.3c0-6.1-1.2-8.5-3.6-11c3.6,1.2,6.1,2.4,9.7,2.4
	s6.1,0,8.5-1.2c2.4,1.2,0,3.7,0,8.5s1.2,9.7,4.9,11C42,843.8,40.8,845.9,40.2,848.2z M35.3,844.5v-2.4h-2.4v2.4H35.3z"/>
<path d="M64.5,847c0.2,1.3-0.3,2.7-1.2,3.7v2.3c0,6.1,1.2,9.7,2.4,9.7c-2.4,0-4.9-1.2-8.5-1.2s-7.3,0-11,1.2
	c2.4-1.2,3.7-3.7,4.9-7.3c0-1.2,0-3.7,1.2-4.9c0-6.1-2.4-8.5-4.9-9.7c2.4,0,4.9-2.4,4.9-9.7c0-4.9-1.2-8.5-3.7-11
	c3.7,1.2,6.1,2.4,9.7,2.4s6.1,0,8.5-1.2c-1.2,2.4-3.7,6.1-3.7,9.7c0,4.9,1.2,8.5,4.9,11C66.6,843.5,65.4,845.1,64.5,847z
	 M59.6,843.3v-2.4h-2.4v2.4h1.2C59.6,844.5,59.6,844.5,59.6,843.3L59.6,843.3z"/>
<path d="M115.6,842.1c-1.2,0-2.4,1.2-2.4,3.7v11c-1.2,3.7-4.9,6.1-9.7,7.3c-2.4,0-4.9,1.2-7.3,1.2c-6.1,0-12.2-1.2-15.8-6.1
	c-3.7-2.4-6.1-6.1-6.1-9.7c-0.8-1.5-1.2-3.2-1.2-4.9c0-1.2-1.2-1.2-3.7-2.4c1.8-0.9,3.5-2.1,4.9-3.7c0-1.2,1.2-1.2,1.2-2.4
	c1.2-3.7,2.4-6.1,6.1-8.5c2.4-2.4,7.3-4.9,13.4-4.9c7.3,0,13.4,2.4,15.8,7.3c1.2,2.4,2.4,4.9,2.4,7.3c-1-0.9-2.3-1.4-3.7-1.2
	c-1.3-0.2-2.7,0.3-3.7,1.2c0-4.9-2.4-7.3-6.1-9.7c-1.2-1.2-3.7-1.2-4.9-1.2c-2.4,0-3.7,0-4.9,1.2c-2.9,1.3-4.8,4.1-4.9,7.3v2.4
	c0,2.4,1.2,3.7,3.7,4.9c-2.4,0-3.7,2.4-3.7,6.1c1.2,8.5,4.9,12.2,11,12.2c3.7,0,6.1-1.2,6.1-4.9v-4.9c-1.2-1.2-2.4-2.4-3.7-2.4h-2.5
	c0.9-1,1.4-2.3,1.2-3.7c0-2.4-1.2-3.7-2.4-3.7L115.6,842.1L115.6,842.1z M80.3,843.3v-2.4h-2.4v2.4H80.3L80.3,843.3z"/>
<path d="M152.1,848.2c0.2,1.3-0.3,2.7-1.2,3.7v2.4c0,6.1,1.2,9.7,2.4,9.7c-2.4,0-4.9-1.2-8.5-1.2s-7.3,0-11,1.2
	c2.4-1.2,3.6-3.7,4.9-7.3c0-1.2,1.2-2.4,1.2-4.9v-1.2c0-2.4-1.2-3.7-4.9-3.7h-6c-2.4,0-3.7,2.4-3.7,6.1v6.1c0,1.2,0,1.2,1.2,2.4
	c0.1,0.9,0.6,1.8,1.2,2.4c-1.2-1.2-3.7-1.2-6.1-1.2s-4.9,0-7.3,1.2c1.2,0,1.2-1.2,2.4-1.2c1.2-1.2,1.2-3.7,1.2-7.3V853
	c-1.2-7.3-2.4-11-4.9-9.7c2.4-1.2,3.7-2.4,3.7-4.9c-0.2-1.3,0.3-2.7,1.2-3.7c0-3.7,0-6.1-1.2-7.3c-1-2.2-2.7-3.9-4.9-4.9h17
	c-3.8,2.3-6.1,6.5-6.1,11v1.2c0,3.7,1.2,4.9,4.9,4.9h4.9c2.4-1.2,3.6-3.7,3.6-7.3c0-6.1-1.2-8.5-3.6-11c3.6,1.2,6.1,2.4,9.7,2.4
	s6.1,0,8.5-1.2c-2.4,1.2-4.9,4.9-4.9,9.7s1.2,9.7,4.9,11C153.3,843.3,152.1,844.5,152.1,848.2z M147.2,844.5v-2.4h-2.4v2.4H147.2z"
	/>
<path d="M186.2,859.1c0,2.4,0,4.9,1.2,6.1c-3.7-2.4-9.7-3.7-18.2-3.7c-4.5-0.1-9,0.3-13.4,1.2c1.3-0.6,2.6-1.4,3.6-2.4
	c1.2-1.2,1.2-3.7,1.2-7.3v-6c-1.2-3.7-2.4-4.9-4.9-4.9c2.4,0,3.6-2.4,4.9-4.9v-3.7c0-3.7,0-6.1-1.2-7.3c0-1.2-2.4-1.2-3.6-2.4
	c4.9,0,9.7,1.2,13.4,1.2c8.5,0,14.6-1.2,18.2-3.7c0,2.4-1.2,4.9-1.2,7.3v3.7c-1.2-2.4-3.6-3.7-8.5-3.7h-2.4c-2.4,0-3.6,1.2-3.6,3.7
	v4.9c0,1.2,1.2,2.4,3.6,2.4c1.3,0.2,2.7-0.3,3.6-1.2c0.7,0,1.2-0.5,1.2-1.2c0,0,0,0,0-0.1v9.7c-1.2-1.2-2.4-2.4-3.6-2.4H174
	c-2.4,0-3.6,1.2-3.6,2.4v8.5c0,2.4,1.2,3.7,3.6,3.7h2.4c3.6,0,7.3-1.2,8.5-3.7C185.9,856.5,186.3,857.8,186.2,859.1z M164.3,839.7
	v2.4h2.4v-2.4H164.3z"/>
<path d="M223.9,860.3c2.4,1.2,3.6,2.4,6.1,3.7h-4.9c-4.9,0-8.5,0-12.2,1.2c2.4,0,2.4-1.2,2.4-3.7s-1.2-3.7-2.4-7.3l-3.6-3.7h-1.2
	c-1.3,0.1-2.3,1.1-2.4,2.4v3.7l0,0c0,3.7,1.2,6.1,4.9,7.3h-21.9c3.6-1.2,6.1-2.4,6.1-6.1v-7.3c0-3.7-2.4-4.9-4.9-6.1
	c3.6-1.2,4.9-3.7,4.9-6.1v-9.7c-0.2-2.6-2.3-4.7-4.9-4.9c18.2,0,28,1.2,28,1.2c4.9,0,9.7,3.7,12.2,9.7c0.6,1.3,1.4,2.6,2.4,3.7
	c-1.3,0.1-2.3,1.1-2.4,2.4c-1.2,1.2-1.2,2.4-2.4,3.7s-3.6,2.4-7.3,3.7c-0.7,0-1.2,0.5-1.3,1.1v0.1c0,1.2,1.2,2.4,2.4,4.9
	C221.5,856.5,222.4,858.7,223.9,860.3z M198.4,845.8v-2.4H196v2.4H198.4z M203.2,831.2v9.7c0,1.2,0,2.4,1.2,2.4
	c0.7,0,1.2,0.5,1.2,1.2c0,0,0,0,0,0.1h3.6c2.4,0,3.6-1.2,4.9-3.7c0-2.4,0-3.7-2.4-4.9c1.3-0.1,2.3-1.1,2.4-2.4v-1.2
	c0-2.4-1.2-3.7-4.9-3.7h-3.6C204.4,828.8,203.3,829.8,203.2,831.2L203.2,831.2z M219,836v2.4h2.4V836H219z"/>
<path d="M299.4,842.1c-1.2,0-2.4,1.2-2.4,3.7v11c-1.2,3.7-4.9,6.1-9.7,7.3c-2.4,0-4.9,1.2-7.3,1.2c-6.1,0-12.2-1.2-15.8-6.1
	c-3.6-2.5-6.1-6.2-6.1-9.8c-0.7-1.5-1.2-3.2-1.2-4.9c0-1.2-1.2-1.2-3.6-2.4c1.8-0.9,3.5-2.1,4.9-3.7c0-1.2,1.2-1.2,1.2-2.4
	c1.2-3.7,2.4-6.1,6.1-8.5c3.6-3.7,9.7-4.9,14.6-4.9c7.3,0,13.4,2.4,15.8,7.3c1.2,2.4,2.4,4.9,2.4,7.3c-2.2-1.6-5.1-1.6-7.3,0
	c0-4.9-2.4-7.3-6.1-9.7c-1.2-1.2-3.6-1.2-4.9-1.2c-2.4,0-3.6,0-4.9,1.2c-3.6,1.2-4.9,3.7-4.9,7.3v2.4c0,2.4,1.2,3.7,3.6,4.9
	c-2.4,0-3.6,2.4-3.6,6.1c1.2,8.5,4.9,12.2,11,12.2c3.6,0,6.1-1.2,6.1-4.9v-4.9c-1.2-1.2-2.4-2.4-3.6-2.4h-2.5c0.9-1,1.4-2.3,1.2-3.7
	c0-2.4-1.2-3.7-2.4-3.7L299.4,842.1L299.4,842.1z M262.8,843.3v-2.4h-2.4v2.4H262.8z"/>
<path d="M332.2,860.3c2.4,1.2,3.6,2.4,6.1,3.7h-4.9c-4.9,0-8.5,0-12.2,1.2c2.4,0,2.4-1.2,2.4-3.7s-1.2-3.7-2.4-7.3l-3.6-3.7h-1.2
	c-1.3,0.1-2.3,1.1-2.4,2.4v3.7l0,0c0,3.7,1.2,6.1,4.9,7.3H297c3.6-1.2,6.1-2.4,6.1-6.1v-7.3c0-3.7-2.4-4.9-4.9-6.1
	c3.6-1.2,4.9-3.7,4.9-6.1v-9.7c-0.2-2.6-2.3-4.7-4.9-4.9c18.2,0,28,1.2,28,1.2c4.9,0,9.7,3.7,12.2,9.7c0.6,1.3,1.4,2.6,2.4,3.7
	c-1.3,0.1-2.3,1.1-2.4,2.4c-1.2,1.2-1.2,2.4-2.4,3.7s-3.6,2.4-7.3,3.7c-0.7,0-1.2,0.5-1.2,1.2c0,0,0,0,0,0.1c0,1.2,1.2,2.4,2.4,4.9
	C330.5,856.3,331.3,858.4,332.2,860.3z M307.9,845.8v-2.4h-2.4v2.4H307.9z M312.7,831.2v9.7c0,1.2,0,2.4,1.2,2.4
	c0.7,0,1.2,0.5,1.2,1.2c0,0,0,0,0,0.1h3.6c2.4,0,3.6-1.2,4.9-3.7c0-2.4,0-3.7-2.4-4.9c1.3-0.1,2.3-1.1,2.4-2.4v-1.2
	c0-2.4-1.2-3.7-4.9-3.7h-3.6C313.9,828.8,312.8,829.8,312.7,831.2L312.7,831.2z M328.6,836v2.4h2.4V836H328.6L328.6,836z"/>
<path d="M382.1,836c1.2,2.4,1.2,2.4,2.4,3.7c1.4,1.5,3,2.7,4.9,3.7c-2.4,0-3.6,2.4-4.9,4.9c0,1.2-1.2,2.4-1.2,4.9
	c-1.2,3.7-2.4,7.3-7.3,9.7c-3.7,2.4-8.5,3.6-14.6,3.7c-7.3,0-12.2-1.2-15.8-4.9c-1.2-1.2-2.4-3.7-3.6-4.9c-0.6-3.3-1.4-6.5-2.4-9.7
	c0-1.2-2.4-2.4-4.9-2.4c2.4-1.2,3.6-2.4,6.1-4.9c1.2-1.2,1.2-2.4,2.4-3.7c3.6-7.3,9.7-12.2,20.7-12.2h2.4c4.9,0,11,2.4,15.8,8.5
	C380.9,832.4,382.1,833.6,382.1,836z M346.8,843.3v-2.4h-2.4v2.4H346.8z M367.5,842.1c2.4,0,3.7-2.4,3.6-7.3c0-2.4-1.2-4.9-3.6-7.3
	c-1.7-1.5-3.8-2.4-6.1-2.4c-2.4,0-4.9,0-6.1,2.4c-2.4,1.2-3.6,3.7-3.6,7.3v1.2c0,3.7,1.2,6.1,3.6,6.1c-2.4,1.2-3.6,3.7-3.6,7.3
	c0,2.4,1.2,3.7,1.2,4.9c1.2,3.7,3.6,4.9,6.1,4.9h2.4c3.6,0,6.1-2.4,7.3-6.1c0-1.2,1.2-3.7,1.2-6.1
	C371.1,844.5,369.9,842.1,367.5,842.1L367.5,842.1z M379.7,843.3v-2.4h-2.4v2.4h1.2C378.5,843.3,378.5,844.5,379.7,843.3
	L379.7,843.3z"/>
<path d="M422.3,857.9c-1.2,2.4-2.4,4.9-3.6,6.1c-3,1.5-6.4,2.3-9.7,2.4c-7.3,0-12.2-2.4-15.8-6.1c-2.2-2.3-3.5-5.3-3.6-8.5
	c0-4.9-2.4-7.3-6.1-7.3c3.6-1.2,4.9-4.9,4.9-12.2c0-2.4-1.2-4.9-1.2-7.3l-2.4-2.4h-2.4c3.6,1.2,8.5,1.2,12.2,1.2s8.5,0,12.2-1.2
	c-2.4,0-3.6,2.4-4.9,4.9v3.7c0,3.7,0,6.1,1.2,7.3c0,1.2,1.2,2.4,3.6,4.9c-1.2,0-2.4,1.2-2.4,3.7v2.4c0,4.9,2.4,7.3,7.3,7.3
	c3.6,0,6.1-1.2,7.3-2.4c0.9-1,1.4-2.3,1.2-3.7v-1.2c-1.2-4.9-2.4-6.1-4.9-6.1c2.4-1.2,3.6-3.7,3.6-8.5v-2.4c0-2.4-1.2-4.9-1.2-7.3
	c-0.1-1.3-1.1-2.3-2.4-2.4c-1.2,0-1.2-1.2-2.4-1.2c3.6,1.2,6.1,1.2,9.7,1.2s6.1,0,8.5-1.2c-1.2,1.2-2.4,3.7-3.6,6.1v11
	c0,1.2,1.2,2.4,2.4,3.7c-1.2,0-1.2,1.2-2.4,3.7c0.2,1.3-0.3,2.7-1.2,3.7C423.5,854.3,422.3,856.7,422.3,857.9z M395.5,844.5v-2.4
	h-2.4v2.4h1.2C394.3,845.8,395.5,845.8,395.5,844.5L395.5,844.5z"/>
<path d="M452.7,861.6c0-2.4-1.2-4.9-2.4-7.3l-8.5-14.6v2.4c0,2.4,1.2,3.7,2.4,4.9c-2.4,0-3.6,2.4-3.6,7.3c0,2.4,0,4.9,1.2,6.1
	c0,1.2,1.2,2.4,3.6,4.9c-1.2,0-3.6-1.2-7.3-1.2c-4.1-0.1-8.2,0.3-12.2,1.2c1.2,0,1.2-1.2,2.4-1.2s1.2-1.2,2.4-2.4
	c0-1.2,1.2-2.4,1.2-4.9c0-6.1-1.2-9.8-3.6-11l2.4-2.4c0-1.2,1.2-2.4,1.2-3.7V836c-1.2-4.9-2.4-8.5-6.1-9.7h17l15.8,31.6v-2.4
	c0-6.1-1.2-8.5-3.6-8.5c2.4-2.4,3.6-6.1,3.6-11c0-3.7-1.2-6.1-2.4-8.5l-2.4-2.4h15.8c-2.2,1-3.9,2.7-4.9,4.9c0,1.2-1.2,3.7-1.2,7.3
	s2.4,7.3,4.9,8.5c-2.4,0-3.6,2.4-4.9,9.7v2.4c0,2.4,0,4.9,1.2,7.3c0,1.2,1.2,1.2,2.4,1.2c-2.4,0-6.1-1.2-9.7-1.2h-7.3
	C451.5,864,452.7,862.8,452.7,861.6z M436.9,845.8v-2.4h-2.4v2.4h1.2C436.9,847,436.9,845.8,436.9,845.8z"/>
<path d="M506.2,842.1c0,1.2,1.2,1.2,3.6,2.4c-2.4,0-4.9,3.7-6.1,11c-1.2,6.1-3.6,9.7-7.3,9.7h-29.2c2.4,0,3.7-1.2,3.6-3.7
	c0.1-0.9,0.5-1.8,1.2-2.4v-9.8c0-2.4-1.2-4.9-4.9-6.1c2.4,0,3.6-1.2,4.9-3.7c0-1.2,0-1.2,1.2-2.4v-8.5c-0.3-2.1-1.7-3.9-3.6-4.9
	c-1.2,0-1.2-1.2-2.4-1.2h23.1c4.9,0,9.7,1.2,12.2,4.9c1.2,1.2,2.4,2.4,2.4,4.9C504,835.6,504.5,839.2,506.2,842.1z M478.2,843.3
	v-2.4h-2.4v2.4h1.2C478.2,844.5,478.2,844.5,478.2,843.3L478.2,843.3z M490.4,843.3c2.4-1.2,3.6-2.4,3.6-6.1v-2.4
	c0-2.4-1.2-3.7-3.6-4.9c-1.2,0-1.2-1.2-2.4-1.2c-2.4,0-4.9,1.2-4.9,3.7v19.5c0,4.9,1.2,6.1,3.6,6.1h1.2c3.6,0,6.1-2.4,6.1-7.3
	S492.9,843.3,490.4,843.3L490.4,843.3z M501.4,844.5v-2.4H499v2.4h1.2C500.1,845.8,500.1,844.5,501.4,844.5L501.4,844.5z"/>
<path d="M568.3,837.2c0-3.7-1.2-4.9-2.4-6.1s-2.4-1.2-4.9-1.2c-3.7,0-6.1,2.4-4.9,4.9c0,6.1,1.2,9.7,3.7,9.7c-0.7,0-1.2,0.5-1.2,1.2
	c0,0,0,0,0,0.1c-1.2,0-1.2,1.2-1.2,2.4s-1.2,2.4-1.2,4.9c0,4.9,1.2,9.7,4.9,12.2h-18.2c3.7-1.2,4.9-6.1,4.9-12.2
	c0-4.9-1.2-7.3-3.7-8.5c2.4-1.2,3.7-3.7,3.7-7.3v-3.7c0-2.4-1.2-3.7-2.4-3.7H544c-4.9,0-7.3,3.7-7.3,8.5v-3.7
	c0.1-3.3-0.3-6.6-1.2-9.7H572C568.3,826.3,568.3,829.9,568.3,837.2z M552.5,844.5v-2.4H550v2.4H552.5L552.5,844.5z"/>
<path d="M609.7,864c-2.4,0-4.9-1.2-8.5-1.2s-8.5,0-12.2,1.2c2.4-1.2,3.7-2.4,3.7-6.1v-3.7c-1.2-4.9-3.7-6.1-7.3-6.1
	c-2.4,0-2.4,1.2-3.7,1.2L578,853c-1.2,1.2-1.2,3.7-1.2,4.9s0,3.7,1.2,3.7c0.7,0.7,1.5,1.1,2.4,1.2h-12.1l2.4-2.4
	c0-1.2,1.2-1.2,1.2-2.4s1.2-2.4,1.2-6.1v-3.7c0-3.7-1.2-6.1-2.4-6.1c3.7-2.4,6.1-4.9,6.1-8.5v-2.4c0-3.7-1.2-7.3-3.7-8.5h29.2
	c-0.7,0-1.2,0.5-1.2,1.2c0,0,0,0,0,0.1c-1.2,1.2-1.2,2.4-1.2,4.9v2.4c0.9,4.5,3.5,8.4,7.3,11c-1.2,0-2.4,2.4-2.4,4.9v2.4
	C604.8,859.1,607.2,864,609.7,864z M590.2,833.6c-1.2-2.4-2.4-3.7-3.7-3.7c-1.2,0-2.4,1.2-3.7,3.7c-1,1.9-1.4,4-1.2,6.1
	c0,2.4,1.2,4.9,3.7,3.7c2.4,0,4.9-1.2,4.9-4.9C591.4,837.2,590.2,834.8,590.2,833.6z M598.7,845.8v-2.4h-2.4v2.4H598.7z"/>
<path d="M645,837.2c0-3.7-1.2-4.9-2.4-6.1s-2.4-1.2-4.9-1.2c-3.7,0-6.1,2.4-4.9,4.9c0,6.1,1.2,9.7,3.7,9.7c-0.7,0-1.2,0.5-1.2,1.2
	c0,0,0,0,0,0.1c-1.2,0-1.2,1.2-1.2,2.4s-1.2,2.4-1.2,4.9c0,4.9,1.2,9.7,4.9,12.2h-18.3c3.7-1.2,4.9-6.1,4.9-12.2
	c0-4.9-1.2-7.3-3.7-8.5c2.4-1.2,3.7-3.7,3.7-7.3v-3.7c0-2.4-1.2-3.7-2.4-3.7h-1.2c-4.9,0-7.3,3.7-7.3,8.5v-3.7
	c0.1-3.3-0.3-6.6-1.2-9.7h36.5C645,826.3,645,829.9,645,837.2z M629.2,844.5v-2.4h-2.5v2.4H629.2L629.2,844.5z"/>
<path d="M681.5,837.2c0-3.7-1.2-4.9-2.4-6.1s-2.4-1.2-4.9-1.2c-3.7,0-6.1,2.4-4.9,4.9c0,6.1,1.2,9.7,3.7,9.7c-0.7,0-1.2,0.5-1.2,1.2
	c0,0,0,0,0,0.1c-1.2,0-1.2,1.2-1.2,2.4s-1.2,2.4-1.2,4.9c0,4.9,1.2,9.7,4.9,12.2h-18.2c3.7-1.2,4.9-6.1,4.9-12.2
	c0-4.9-1.2-7.3-3.7-8.5c2.4-1.2,3.7-3.7,3.7-7.3v-3.7c0-2.4-1.2-3.7-2.4-3.7h-1.2c-4.9,0-7.3,3.7-7.3,8.5v-3.7
	c0.1-3.3-0.3-6.6-1.2-9.7h36.5C681.5,826.3,681.5,829.9,681.5,837.2z M665.6,844.5v-2.4h-2.4v2.4H665.6z"/>
<path d="M726.5,836c1.2,2.4,1.2,2.4,2.4,3.7c1.4,1.5,3,2.7,4.9,3.7c-2.4,0-3.7,2.4-4.9,4.9c0,1.2-1.2,2.4-1.2,4.9
	c-1.2,3.7-2.4,7.3-7.3,9.7c-3.7,2.4-8.5,3.6-14.6,3.7c-7.3,0-12.2-1.2-15.8-4.9c-1.2-1.2-2.4-3.7-3.7-4.9c-0.6-3.3-1.4-6.5-2.4-9.7
	c0-1.2-2.4-2.4-4.9-2.4c2.4-1.2,3.7-2.4,6.1-4.9c1.2-1.2,1.2-2.4,2.4-3.7c3.7-7.3,9.7-12.2,20.7-12.2h2.4c4.9,0,11,2.4,15.8,8.5
	C725.3,832.4,726.5,833.6,726.5,836z M691.2,843.3v-2.4h-2.4v2.4h1.2C690,844.5,691.2,843.3,691.2,843.3L691.2,843.3z M711.9,842.1
	c2.4,0,3.7-2.4,3.7-7.3c0-2.4-1.2-4.9-3.7-7.3c-1.7-1.5-3.8-2.4-6.1-2.4c-2.4,0-4.9,0-6.1,2.4c-2.4,2.4-3.7,4.9-3.7,7.3v1.2
	c0,3.7,1.2,6.1,3.7,6.1c-2.4,1.2-3.7,3.7-3.7,7.3c0,2.4,1.2,3.7,1.2,4.9c1.2,3.7,3.7,4.9,6.1,4.9h2.4c3.7,0,6.1-2.4,7.3-6.1
	c0-1.2,1.2-3.7,1.2-6.1C715.5,844.5,714.3,842.1,711.9,842.1L711.9,842.1z M724.1,843.3v-2.4h-2.4v2.4h1.2
	C722.8,844.5,722.8,844.5,724.1,843.3L724.1,843.3z"/>
<path d="M775.2,836c1.2,2.4,1.2,2.4,2.4,3.7c1.4,1.5,3,2.7,4.9,3.7c-2.4,0-3.7,2.4-4.9,4.9c0,1.2-1.2,2.4-1.2,4.9
	c-1.2,3.7-2.4,7.3-7.3,9.7c-3.7,2.4-8.5,3.6-14.6,3.7c-7.3,0-12.2-1.2-15.8-4.9c-1.2-1.2-2.4-3.7-3.7-4.9c-0.6-3.3-1.4-6.5-2.4-9.7
	c0-1.2-2.4-2.4-4.9-2.4c2.4-1.2,3.7-2.4,6.1-4.9c1.2-1.2,1.2-2.4,2.4-3.7c3.7-7.3,9.7-12.2,20.7-12.2h2.4c4.9,0,11,2.4,15.8,8.5
	C772.7,832.4,774,833.6,775.2,836z M738.7,843.3v-2.4h-2.4v2.4h1.2C738.7,844.5,738.7,843.3,738.7,843.3L738.7,843.3z M759.3,842.1
	c2.4,0,3.7-2.4,3.7-7.3c0-2.4-1.2-4.9-3.7-7.3c-1.7-1.5-3.8-2.4-6.1-2.4c-2.4,0-4.9,0-6.1,2.4c-2.4,1.2-3.7,3.7-3.7,7.3v1.2
	c0,3.7,1.2,6.1,3.7,6.1c-2.4,1.2-2.4,3.7-2.4,7.3c0,2.4,1.2,3.7,1.2,4.9c1.2,3.7,3.7,4.9,6.1,4.9h2.4c3.7,0,6.1-2.4,7.3-6.1
	c0-1.2,1.2-3.7,1.2-6.1S761.8,842.1,759.3,842.1L759.3,842.1z M771.5,843.3v-2.4h-2.4v2.4h1.2C770.3,844.5,771.5,844.5,771.5,843.3
	L771.5,843.3z"/>
<path d="M137.5,108.3c2.4,1.2,6.1,1.2,9.7,0c-6.1,3.7-6.1,13.4,2.4,32.9c6.1,15.8,6.1,26.8-3.7,32.8c-1.2,1.2-2.4,1.2-3.6,2.4
	l-60.8,40.2c4.9-6.1,6.1-9.7,4.9-14.6c0-2.4-1.2-3.6-1.2-6.1c-3.7-6.1-8.5-13.4-12.2-20.7s-11-8.5-19.5-6.1
	c3.7-3.6,4.9-8.5,4.9-13.4c0-2.4-1.2-3.6-2.4-6.1c-4.9-8.5-8.5-14.6-11-18.2c-3.7-3.7-8.5-4.9-13.4-4.9c-2.4,0-4.9,1.2-7.3,1.2
	l51.2-32.9c12.2-7.3,23.1-9.8,32.9-7.3c3.7,0,7.3,2.4,11,4.9C127.8,102.2,133.9,107.1,137.5,108.3z M80.3,153.3
	c0.2-1.3-0.3-2.7-1.2-3.6c0-1.2-1.2-1.2-2.4-2.4c-1.3-0.2-2.7,0.3-3.7,1.2c-1.2,1.2-2.4,2.4-2.4,3.6c-0.2,1.3,0.3,2.7,1.2,3.6
	c1.2,1.2,1.2,1.2,3.7,2.4c1.3,0.2,2.7-0.3,3.7-1.2C79.1,155.8,80.3,154.6,80.3,153.3L80.3,153.3z M105.9,136.3
	c4.9-6.1,3.7-12.2,0-19.5L101,112c-3.7-4.9-8.5-6.1-14.6-6.1c-2.4,0-4.9,0-7.3,1.2c-7.3,3.7-8.5,8.5-4.9,13.4
	c0.7,0.7,1.1,1.5,1.2,2.4c9.7,14.6,19.5,29.2,26.8,41.4c6.1,9.7,12.2,12.2,17,9.7c1.2,0,1.2-1.2,2.4-2.4c8.5-4.9,9.7-12.2,3.7-24.3
	C118,136.3,112,132.6,105.9,136.3L105.9,136.3z M130.2,122.9c0.2-1.3-0.3-2.7-1.2-3.7c-1.2-1.2-1.2-1.2-3.7-2.4s-1.2,0-2.4,1.2
	s-2.4,1.2-2.4,3.7c-0.2,1.3,0.3,2.7,1.2,3.7c0,1.2,1.2,1.2,2.4,1.2c1.3,0.2,2.7-0.3,3.7-1.2C129.1,125.3,130.1,124.2,130.2,122.9
	L130.2,122.9z"/>
<path d="M255.6,48.7l7.3,7.3c3.7,2.4,8.5,3.7,14.6,3.7c-4.9,2.4-8.5,8.5-8.5,17v12.2c2.4,11-1.2,21.9-8.5,30.4s-19.5,17-34.1,21.9
	c-17,6.1-31.6,6.1-43.8,0c-4.9-2.4-9.7-4.9-13.4-9.7c-9.7-13.4-14.6-20.7-15.8-20.7c-2.4-2.4-7.3-3.7-13.4-3.7
	c3.6-3.7,7.3-9.7,9.7-17c1.2-3.7,1.2-6.1,2.4-9.7c1.2-21.9,15.8-37.7,41.4-46.2c0-1.2,1.2-2.4,3.6-2.4c13.4-4.9,29.2-1.2,47.5,8.5
	C248.2,41.4,251.9,45,255.6,48.7z M174,98.6c1-0.8,1.2-2.2,0.5-3.2c-0.1-0.2-0.3-0.3-0.5-0.5c-1.2-1.2-1.2-2.4-2.4-3.7
	c-0.8-1-2.2-1.2-3.2-0.5c-0.2,0.1-0.3,0.3-0.5,0.5c-1.3,0.1-2.3,1.1-2.4,2.4c-1,0.8-1.2,2.2-0.5,3.2c0.1,0.2,0.3,0.3,0.5,0.5
	c0.1,1.3,1.1,2.3,2.4,2.4c0.8,1,2.2,1.2,3.2,0.5c0.2-0.1,0.3-0.3,0.5-0.5C171.6,101,172.8,99.8,174,98.6z M223.9,77.9
	c6.1-3.7,8.5-11,3.6-20.7c-3.6-7.3-7.3-11-13.4-14.6c-6.1-2.4-12.2-2.4-18.2-1.2c-6.1,2.4-11,4.9-14.6,9.7
	c-3.6,5.8-4.9,12.8-3.6,19.5c-0.2,1.3,0.3,2.7,1.2,3.7c2.4,8.5,8.5,13.4,15.8,13.4c-4.9,4.9-4.9,11-2.4,20.7
	c2.2,4.2,4.6,8.3,7.3,12.2c6.1,7.3,13.4,9.7,20.7,7.3c1.2,0,1.2-1.2,2.4-1.2c1.3,0.2,2.7-0.3,3.6-1.2c9.7-3.7,14.6-9.7,14.6-20.7
	c0-4.9,0-9.7-2.4-14.6C234.9,80.3,230,76.7,223.9,77.9L223.9,77.9z M254.3,71.8c0-1.2,1.2-2.4,0-3.7c-0.1-1.3-1.1-2.3-2.4-2.4
	c-0.8-1-2.2-1.2-3.2-0.5c-0.2,0.1-0.3,0.3-0.5,0.5c-1.3,0.1-2.3,1.1-2.4,2.4c0,1.2-1.2,2.4,0,3.7c0.1,1.3,1.1,2.3,2.4,2.4
	c0.8,1,2.2,1.2,3.2,0.5c0.2-0.1,0.3-0.3,0.5-0.5C253.1,74.2,253.1,73,254.3,71.8L254.3,71.8z"/>
<path d="M345.6,104.7c0-4.9-3.6-12.2-8.5-19.5l-25.6-37.7v6.1c1.2,6.1,3.6,11,8.5,13.4c-4.9,3.7-7.3,11-6.1,20.7
	c1.2,7.3,2.4,12.2,4.9,15.8c1.2,2.4,4.9,6.1,9.7,11c-4.9-1.2-10.9-1.2-18.2,0c-9.7,1.2-20.7,3.7-32.9,6.1c2.4-1.2,4.9-2.4,6.1-4.9
	c2.4-1.2,3.6-3.7,4.9-6.1c1.2-3.7,1.2-7.3,1.2-13.4c-2.4-17-6.1-25.5-13.4-25.5c2.5-2.4,4.6-5.3,6.1-8.5c0-3.7,0-7.3,0-11
	c0-2.4-1.2-6.1-1.2-9.7c-3.7-13.4-9.7-21.9-18.2-25.5l46.2-4.8l51.1,76.6c0.2-2.1-0.2-4.2-1.2-6.1c-2.4-14.6-6.1-20.7-11-19.5
	c4.9-8.5,7.3-18.2,4.9-28c-1.2-8.5-4.9-15.8-9.7-20.7c-2.1-2-4.6-3.7-7.3-4.9l41.4-6.1c-6.1,3.7-8.5,8.5-11,13.4
	c-1.2,3.6-1.2,11,0,19.5c2.4,11,7.3,17,14.6,20.7c-6.1,0-9.7,8.5-8.5,26.8V89c2.4,6.1,4.9,12.2,7.3,15.8c2.4,2.4,3.6,3.7,6.1,3.7
	c-7.3,0-15.8,0-24.3,1.2c-7.3,1.2-13.4,2.4-19.5,3.7C345.6,110.7,346.8,108.3,345.6,104.7z M301.8,69.4c0.9-1,1.4-2.3,1.2-3.7
	c0-1.2-1.2-2.4-1.2-3.7s-2.4-1.2-3.6-1.2s-2.4,1.2-3.6,1.2s-1.2,2.4-1.2,3.7s1.2,2.4,1.2,3.7s2.4,1.2,3.6,1.2
	C299.5,70.6,300.8,70.2,301.8,69.4z"/>
<path d="M451.5,103.4c0-4.9-1.2-12.2-4.9-20.7l-18.2-41.4c0,2.4-1.2,3.7-1.2,6.1c0,6.1,1.2,11,6.1,14.6c-6.1,2.4-8.5,8.5-9.7,19.5
	c0,7.3,0,12.2,1.2,15.8c1.2,2.4,3.6,6.1,7.3,12.2c-3.7-1.2-9.7-2.4-18.2-3.7c-9.7-1.2-20.7,0-34.1,0l7.3-3.7
	c2.4-1.2,4.9-2.4,6.1-4.9s2.4-7.3,3.6-13.4c1.2-17-1.2-26.8-8.5-28c3.7-2.4,6.1-4.9,7.3-7.3c1.7-3.4,2.5-7.2,2.4-11V28
	c-1.2-14.6-6.1-23.1-13.4-28l46.2,3.7l36.5,85.2v-6.1c0-14.6-2.4-21.9-7.3-21.9c6.1-7.3,9.7-17,11-26.8c0-8.5-1.2-15.8-6.1-21.9
	L460,7.3l41.4,2.4c-6.1,2.4-11,6.1-12.2,11c-1.2,3.6-2.4,9.7-3.6,19.5c0,11,3.7,18.3,11,21.9c-6.1-1.2-11,7.3-13.4,24.3
	c0.2,2.1-0.2,4.2-1.2,6.1c0,7.3,0,13.4,2.4,18.2c1.2,2.4,3.6,4.9,4.9,4.9c-7.9-2.5-16.1-3.7-24.4-3.6h-19.5
	C449,110.7,451.5,108.3,451.5,103.4z M415,60.8c1.2-1.2,1.2-1.2,1.2-3.7c0.2-2.7-1.9-5-4.6-5.2s-5,1.9-5.2,4.6c0,0.2,0,0.4,0,0.6
	c0.2,2.9,2.6,5,5.5,4.9C413.1,62,414.1,61.6,415,60.8z"/>
<path d="M624.3,73c1.2,4.9,1.2,8.5,2.4,11c1.2,3.7,4.9,7.3,9.7,11c-6.1-1.2-11,2.4-17,8.5c-2.7,2.8-4.8,6.1-6.1,9.7
	c-5,9.9-13.8,17.3-24.4,20.6c-12.2,3.6-25.5,2.4-40.2-1.2c-17-4.9-29.2-13.4-36.5-24.3c-2.4-4.9-4.9-9.7-4.9-15.8
	c0-15.8,0-25.5-1.2-26.8c-1.2-3.7-3.6-7.3-8.5-11c6.1-1.2,12.2-3.7,17-8.5l7.3-7.3c14.6-17,34.1-21.9,60.8-14.6
	c2.1-0.1,4.2,0.4,6.1,1.3c13.4,3.6,24.3,14.6,34.1,34.1C621.8,63.3,623,68.2,624.3,73z M528.1,66.9c1.2-1.2,2.4-1.2,2.4-2.4v-3.6
	c0-1.2-1.2-2.4-3.7-2.4h-3.7c-1.2,1.2-2.4,1.2-2.4,3.7v3.7c1.2,1.2,1.2,2.4,2.4,2.4C525.7,68.2,526.9,68.2,528.1,66.9L528.1,66.9z
	 M581.7,79.1c7.3,0,12.2-4.9,14.6-14.6c1.3-6.7,0-13.7-3.6-19.5c-3.7-4.9-8.5-9.7-14.6-11c-5.8-2.4-12.4-2.4-18.2,0
	c-6.1,2.4-11,7.3-14.6,14.6c0,1.2-1.2,2.4-1.2,3.7c-2.4,8.5-1.2,14.6,4.9,19.5c-6.1,1.2-11,6.1-13.4,15.8c-1.2,4.9-1.2,9.7,0,13.4
	c2.4,8.5,7.3,14.6,14.6,17h2.4c1,0.9,2.3,1.4,3.7,1.2c9.7,2.4,17,0,23.1-8.5c3.7-2.4,6.1-6.1,7.3-12.2
	C589,87.6,587.8,81.5,581.7,79.1z M609.7,91.3c1.2-1.2,2.4-1.2,2.4-2.4v-3.7c0-1.2-1.2-3.7-2.4-3.7H606c-1.2,0-2.4,1.2-2.4,3.7v3.7
	c1.2,1.2,1.2,2.4,3.7,2.4H609.7z"/>
<path d="M665.7,70.6c-4.9,8.5-12.2,13.4-23.1,17c3.7-2.4,6.1-3.7,7.3-4.9s1.2-2.4,2.4-3.7v-1.2l1.2-1.2c0-0.7-0.5-1.2-1.2-1.2
	c0,0,0,0-0.1,0c-2.6-1.4-4.7-3.5-6.1-6.1c-1.2-2.7-1.2-5.8,0-8.5c1.4-2.6,3.5-4.7,6.1-6.1c2.7-1.2,5.8-1.2,8.5,0
	C668.1,58.4,669.3,63.3,665.7,70.6z"/>
<path d="M742.3,193.5c-4.9-2.4-12.2-1.2-20.7,2.4c-8.5,6.1-18.2,6.1-31.6,1.2c-4.9-2.4-11-4.9-17-8.5c-13.4-9.7-20.7-18.2-24.3-26.8
	c-2.4-4.9-2.4-12.2,0-19.5c1.2-8.5-1.2-15.8-8.5-24.3l43.8,31.6c-4.9-2.4-8.5-1.2-12.2,3.6c-0.7,0.7-1.1,1.5-1.2,2.4
	c-2.4,8.5,1.2,14.6,8.5,19.5c4.9,4.9,12.2,3.6,19.5-1.2c2.4-2.4,6.1-4.9,8.5-9.7c3.7-8.5,0-17-13.4-29.2
	c-9.7-8.5-15.8-15.8-18.2-21.9c-1.2-3.7-1.2-7.3,0-12.2s1.2-9.7-1.2-13.4c-1.2-2.4-2.4-4.9-4.9-6.1c2.4,2.4,4.9,3.7,8.5,4.9
	c6.1,2.4,11,1.2,14.6-1.2c4.9-2.4,12.2-2.4,21.9,0c7.2,2.5,14.1,5.8,20.6,9.8c13.4,8.5,19.5,19.5,18.2,30.4c0,8.5,0,15.8,2.4,19.5
	c-3.7-4.9-11-9.7-18.2-15.8c-4.9-3.7-11-7.3-17-11c6.1,2.4,9.7,1.2,11-1.2c0.9-1,1.4-2.3,1.2-3.7c0-2.4-2.4-4.9-6.1-7.3
	c-1.3-1.3-3-2.1-4.9-2.4c-4.9-2.4-8.5-3.7-12.2-1.2c-1.2,1.2-3.7,2.4-4.9,3.7c-3.7,7.3-1.2,14.6,7.3,20.7
	c13.4,9.7,21.9,18.2,25.5,29.2c2.4,7.3,3.7,14.6,1.2,20.7C737.4,185,738.7,189.8,742.3,193.5z M694.8,105.9c1.2,0,2.4-1.2,3.7-2.4
	c0.9-1,1.4-2.3,1.2-3.7c0-1.2-1.2-2.4-2.4-3.7c-1-0.9-2.3-1.4-3.7-1.2c-1.2,0-2.4,1.2-3.7,2.4c-0.9,1-1.4,2.3-1.2,3.7
	c0,1.2,1.2,2.4,2.4,3.7C692.2,105.6,693.5,106,694.8,105.9z M722.8,181.3c1.2,0,2.4-1.2,3.7-2.4c0.9-1,1.4-2.3,1.2-3.6
	c0-1.2-1.2-2.4-2.4-3.6c-1-0.9-2.3-1.4-3.7-1.2c-1.2,0-2.4,1.2-3.7,2.4c-0.9,1-1.4,2.3-1.2,3.6c0,1.2,1.2,2.4,2.4,3.6
	C720.2,181,721.5,181.5,722.8,181.3L722.8,181.3z"/>
</svg>
