<?xml version="1.0" encoding="utf-8"?>
<!-- Generator: Adobe Illustrator 22.0.1, SVG Export Plug-In . SVG Version: 6.00 Build 0)  -->
<svg version="1.1" id="Layer_1" xmlns="http://www.w3.org/2000/svg" xmlns:xlink="http://www.w3.org/1999/xlink" x="0px" y="0px"
	 viewBox="0 0 897.8 1000" style="enable-background:new 0 0 897.8 1000;" xml:space="preserve">
<style type="text/css">
	.st0{fill:#FFDE05;}
	.st1{fill:#FFFFFF;}
</style>
<path d="M0,80c0-3,0-5.9,0-8.9c9-10.4,21.1-9.9,32.8-8c50.1,8,98.9,22,144.1,44.5c36.2,18,69.8,41.4,104.3,62.7
	c9.2,5.7,17.5,7.3,27.8,1.8c19.6-10.5,40.9-14.3,63.2-12.5c3.7,0.3,7.5,0,13.9,0c-38.4-40.4-74.9-78.6-123.7-101.8
	c-24.6-11.7-49.6-22.8-73.7-35.4c-14.3-7.4-14.1-12.7-2-22.4c3,0,5.9,0,8.9,0c9.1,3.8,18.8,6.7,27.2,11.6
	c70.3,40.5,134.9,88,186.5,151.7c3.9,4.8,11,8.5,17.3,9.8c30.7,6.3,61.9,11,86.9,32.6c2.1,1.8,4.7,3.2,7.4,5
	c1.8-4.2,3.3-7.6,4.7-10.9c11.6-27.9,22.7-56.1,42.4-79.8c16.9-20.3,34.4-39.9,58.1-52.3c18.9-9.9,32-5.7,40,14
	c4.8,11.8,8.2,24.7,9,37.3c1.4,22.3,0.4,44.8,0.4,69.7c14.9-10.4,27.8-19.4,40.6-28.4C749.3,137,784,117.1,824,107.7
	c36.8-8.7,55.9-1.1,73.8,30c0,10.4,0,20.7,0,31.1c-6.1,16.1-10.1,33.3-18.7,47.9c-10.9,18.7-25.4,35.3-38.3,52.7
	c16,8.5,24.8,23.5,20.8,42.9c-2.2,10.7-8.3,21.4-14.9,30.4c-11.2,15.3-24.2,29.3-37,44.6c28,10,42.1,30,46.7,57.8
	c1.5,9.3-0.8,16.4-7.2,23.1c-2.5,2.7-4.6,7.5-4.1,10.9c3.8,23.5,0.9,28.8-20.7,35c-0.5,2.9-1.4,5.8-1.5,8.7
	c-0.5,19.5-18.5,28.5-34.7,21.2c-10.3-4.6-19.9-10.7-30.3-16.5c-10.5,6.2-17.6,4.9-26.1-6.9c-9.2-12.7-18.9-24.3-34.2-30.5
	c-4.2-1.7-8.1-9-8.4-14c-0.6-9.6,1.4-19.3,2.3-29.3c-4.3-0.4-8.7-1-13.1-1.2c-3.1-0.2-7.6-1.2-9.1,0.4c-5.8,6-10.6,12.9-16.5,20.3
	c3.6,4.6,10,11.7,15.2,19.7c5.2,8,8.9,17,13.5,25.4c1,1.8,3,3.2,4.8,4.5c38.2,29.1,49.3,65.8,34,110.6c-1.3,3.9-1.1,8.5-0.6,12.6
	c5.2,42.7,2.1,84-26,118.7c-12.7,15.8-25.9,30.7-37.6,47.6c-22.1,31.9-53.4,53.7-93,61.2c-5.8,1.1-12.1,4-16.5,8
	c-37.4,34.2-79.1,62-124,85c-28.4,14.6-58.1,26.8-87.2,40.1c-5.2,0-10.4,0-15.6,0c2.3-3.6,4-7.8,7.1-10.6
	c14.1-12.5,28.4-24.8,42.9-36.8c37.4-30.8,66.2-67.1,78.1-115.3c3.7-14.9,4.8-28.7-1.4-43c-9.4-21.8-11.6-43,8.3-60.7
	c-1.5-3.1-2.8-5.3-3.8-7.6c-9.8-23.9-12-46.5,10.6-65.3c1.7-1.4,1.8-5.8,1.4-8.7c-1.9-13.4-2.8-26.4,5.7-38.3
	c5.7-8.1,0.4-15.4-4.4-21c-2.8-3.3-9.6-5.6-13.9-4.7c-42.7,9.2-85.5,12.5-128.7,4.9c-11.9-2.1-12.2,7.1-16,12.8
	c-3.6,5.5-6.5,10.9,0.5,17.5c10.2,9.7,8,23.2-3.8,31c-3.6,2.3-7.7,3.8-11.5,5.6c4.9,22.5,1.5,29.6-18.8,40.4
	c-20,10.7-41.4,11.9-63.5,9.6c-19.1-2-36.2-8-48.8-22.9c-24.6-29.4-22.6-60.7,4.3-89.4c4.5-4.8,7.1-11.5,10.5-17.4
	c-1-0.8-2-1.6-3-2.4c-2.8,0.5-5.5,1-8.3,1.6c-44.5,9.7-73.1-4-88.7-46.2c-6.5-17.6-9.3-37.3-10.2-56.3
	c-3.4-67.3,24.3-124,62.7-176.8c4.2-5.8,7.8-12.5,10-19.3c11-33.5,29-62.3,57.8-83.3c20.2-14.7,43.5-20.5,68.8-19.6
	c-0.7-1.6-0.8-2.3-1.2-2.8c-1.4-1.2-2.8-2.4-4.3-3.4c-68.8-44.9-143-74.5-225.7-81C21.8,89.7,11,83.6,0,80z M124.1,381.8
	c1,0.6,2.1,1.3,3.1,1.9c-0.2,2.1-0.1,4.2-0.6,6.2c-3.9,14.2-8.5,28.3-11.6,42.7c-7.7,35.9-9.1,71.8,2.2,107.5
	c2.6,8.2,7.5,13.9,15.4,13.4c13-0.8,26.9-1.3,38.6-6.3c42.3-17.8,75.2-48.9,108.4-79.8c45.8-42.6,92.2-84.4,139.5-125.4
	c18.9-16.4,40.3-30.1,61.4-43.8c18.5-12,27.9-7,33.3,14.2c7.2,28.4-1.5,50.3-23.5,68.9c-28.3,23.9-62.1,37.1-95.5,50.8
	c-51.9,21.3-102.5,44.6-143.5,84.3c-4.6,4.5-8.5,9.6-12.7,14.5c0.5,1.1,0.9,2.1,1.4,3.2c6.3,0,12.7,1,18.8-0.2
	c19.6-3.7,39.2-7.8,58.5-12.5c35.1-8.5,69.6-19.1,97.8-42.7c44.2-36.9,87.6-74.9,130.9-113c3.9-3.4,6.2-10,6.8-15.4
	c3.6-30.2-6.4-57.6-19.3-84.2c-18.8-38.9-55.1-51.4-90.2-62.6c1.8,17.7,6.9,35.2,4.8,51.8c-8.3,63.7-44.6,106.9-105.6,125.4
	c-60.1,18.2-105.8-14-115.3-63.5c-4.7-24.8-0.3-48.5,9.6-71.5c1.1-2.5,1.9-5,3.2-8.6c-48.6,25.6-95.9,68.5-119.3,118.8
	C92.5,416.6,86,489.9,101.9,519.4c0-1.4,0.1-2.5,0-3.6c-6.4-42.9,2.4-83.9,15.6-124.3C118.7,388,121.9,385.1,124.1,381.8z M784,373
	c12.7-14.2,26.5-28.1,38.5-43.5c7.6-9.8,14.8-22.8,5.7-34.6c-8.6-11.2-22-5.5-33.1-2.3c-9.5,2.7-18.4,7.5-27.9,10.7
	c-7.9,2.7-14.7-1.5-12.9-8c1.3-4.7,5.6-9.5,9.8-12.4c10.9-7.6,22.5-14.2,33.9-21.1c28.9-17.6,48.7-42.9,60.8-74.1
	c3.1-8.1,5.1-17.1,5.5-25.8c0.7-14.9-8-24.2-23-23.6c-11.3,0.4-23,2.3-33.5,6.2c-87.5,32.7-161.5,84.6-219.4,158.3
	c-7.6,9.7-12.8,21.6-16.9,33.3c-1.8,5,2.1,12,3.4,18.1c6.1-2.4,12.3-4.7,18.3-7.2c0.9-0.4,1.2-1.9,2.1-2.5
	c11.2-8.9,21.4-19.8,33.9-26.2c25.5-12.9,51-5.1,74.3,7.2C730.3,339.6,755.7,356.1,784,373z M753.1,374
	c-24.5-12.3-46-24.6-68.7-33.9c-23-9.3-45.3-7.1-64.8,11.3c-10,9.4-20.6,19.2-36.2,19.5c-27,0.5-44.2,16.8-57.1,38.2
	c-9.2,15.3-8.4,31.9,3.9,44c8.9,8.8,20.2,16.8,31.9,20.6c25.3,8.3,45-1.2,49.5-22.5c2.2-10.3,7-13.1,16.4-13.2
	c12.4-0.2,17.1-6.6,14.8-18.8c-0.5-2.9-1.9-5.7-2.2-8.6c-1.7-16.8-3.7-33.6-4.3-50.5c-0.1-3.5,5.3-7.3,8.2-10.9
	c1.8,4,4.9,7.9,5.1,11.9c0.4,7.7-0.8,15.5-1.6,23.2c-3,28.7,6.4,38.5,34.4,38.5c16.1,0,28.9-1.8,38.6-17.5
	C728,394.1,740.2,386.2,753.1,374z M688.9,668.9c-4.3,3.9-7.1,5.7-9.1,8.2c-39.1,50.7-129.3,48.2-169.8,16.2
	c-5.5-4.3-11.4-8.3-17.5-11.6c-12.4-6.8-19.2-2.7-18.6,11.5c0.7,17.9,7.4,33.7,19.1,47.4c41.3,48.3,122,52.8,168.2,9
	C683.4,728.5,692.5,702.3,688.9,668.9z M573.5,290.9c19.9-20.7,38.4-39.7,56.4-59.1c4.4-4.7,8.6-10.3,10.6-16.3
	c11.6-34.4,10.8-69.7,6.3-105.2c-0.4-2.9-1.2-5.8-2.3-8.5c-2.8-7-7.8-10.3-14.8-6.1c-7.9,4.6-16.1,9.3-22.7,15.4
	c-30.7,28.7-47.7,65.3-57.6,105.3c-2.2,8.7-1.5,19.5,1.6,28C557.1,260.4,565.9,275.5,573.5,290.9z M806.3,442.9c1.9-2,3.7-4,5.6-6
	c4.6,4.2,9,8.7,13.9,12.5c2.8,2.2,6.5,3.4,9.7,5c1.5-3.6,5.1-7.9,4.1-10.5c-4.2-10.8-7-25.1-15.3-30.6c-18.5-12.3-39.6-21-60.4-29.4
	c-9-3.6-42.4,29.5-39,38.8c3.9,10.7-2,14.2-8,19.7c-5.1,4.7-9.8,10.2-13,16.2c-4.9,9.4-1,19.7,6.4,25.6c8.1,6.5,15.3,14.3,22.8,21.6
	c3.6,3.6,7,7.5,11.9,12.9c8.9-24.3-4.7-39.9-14.4-57.2c3.7-0.9,6.1-2.4,7.6-1.8c14.6,6.1,27.4,14.6,35.5,28.6
	c2.8,4.9,0.6,7.7-5.2,7.5c-4.5-0.2-9.1,0-14.8,0c4.6,14.2,12.9,23.5,23.6,30.1c5.4,3.3,14.9,6.4,18.9,3.8c5.9-3.7,11-12.1,12.2-19.3
	c2.4-14.3-2.4-27.7-11.8-39.2c-2.8-3.5-5.4-7.2-8.1-10.9c0.8-0.9,1.7-1.7,2.5-2.6c3.3,2.3,7.7,3.9,9.6,7.1c4.9,8.1,8.4,17,12.9,25.3
	c1.5,2.9,4.1,7.1,6.3,7.2c3.4,0.2,8.3-1.8,10.2-4.6c2.2-3.3,3.1-8.4,2.6-12.5c-1.6-13.6-7.1-25.7-18.1-34.4
	C812.3,444.3,809.1,443.9,806.3,442.9z M528.8,593.6c-2.6,0-5.6,0-8.5,0c-8.4,0.2-19.7-1.6-21.4,8.4c-0.8,5.1,7.6,13.5,13.7,17.7
	c21.8,14.7,46.3,15.3,71.5,11.1c54.9-9.2,90.2-65.1,73.5-117.9c-2-6.3-6.4-12.4-11.2-16.9c-5-4.6-9.4-2.6-10.2,5
	c-0.8,7.3-1.6,14.7-3.6,21.8C621.7,561.7,565.7,600.8,528.8,593.6z M259.6,651.9c5.4-3.2,9.8-5.8,14.1-8.4
	c-3.7-5.1-6.8-10.8-11.3-15.1c-3.2-3.1-8-4.5-12.1-6.6c0.3-0.9,0.6-1.8,0.9-2.7c4.7,1,9.3,2.4,14.1,2.9c4,0.4,10.7,1.2,11.5-0.5
	c2-4.2,3.5-11.3,1.3-14.2c-3.2-4.3-10.3-9-15-8.3c-13.2,1.9-26.8,4.8-38.9,10.3c-14.8,6.8-15.2,11.6-8.9,26.5
	c4.6,10.8,9.2,21.8,12.8,33c1.8,5.6,2.5,12.2-4.9,15c-3.1-6.2-5.8-11.7-9.5-19.3c-7.3,16.7-6,28.5,1.7,34c8,5.8,17.7,4,29.1-5.5
	c2-1.6,3.6-3.8,5.6-5.3c5.5-4.2,11.1-8.3,17.1-12.7c2.4,3.7,4,6.2,5.7,8.8c1.2,0.2,2.4,0.4,3.5,0.5c1.5-5,4.3-10.1,4.1-15
	C279.7,657,269.6,653.9,259.6,651.9z M282.8,590.6c0.9-1.3,1.7-2.6,2.6-3.9c-4.9-4.4-9-10.3-14.7-12.9c-21-9.4-42.8-10.5-64.7-2.9
	c-12.5,4.4-21.1,12.8-21,26.8c0,6.7-2.4,10.5-6.9,14.9c-12.9,12.5-18.2,27.9-12.7,45.5c4.9,15.7,13.8,28.5,32,35.1
	c-9.4-18.8-0.3-32,9.6-44.7c-1.5-2-2.6-3.4-3.6-4.9c-14.3-20.6-11-35.2,12.4-44.5C237,590.8,258.1,576.3,282.8,590.6z M401.6,948.3
	c45.3-21.9,89.2-45.8,125.8-80.8c-19.5-11.6-37.7-22.5-56-33.4C461.7,879.6,430.5,913,401.6,948.3z M411.1,403.6
	c11.6-6.7,23.1-13.3,34.4-20.1c1.4-0.8,2.9-2.9,2.8-4.3c-0.7-8.5-1.9-17-3.1-27.1c-8.6,6.5-14.9,12.4-22.2,16.5
	C409.2,376.4,403.4,386.7,411.1,403.6z M461.2,373.3c26.9-9.4,34.2-24.3,23.8-48.6C458.7,340.2,456.2,345.4,461.2,373.3z
	 M380.2,184.6c-0.1-7.8-5.4-12.1-13.1-10.6c-10.1,2-21,13.6-22.4,23.6c-1.1,8.2,4.1,13.8,12.2,13
	C367.9,209.7,380.4,195.6,380.2,184.6z M359.6,432.2c8.8-4.6,15.9-8.3,23-12.1c14.4-7.7,14.4-7.7,8.3-26.2
	C381.5,407.5,359.2,408.2,359.6,432.2z M284.4,627.1c0,8.5,0,16.5,0,24.6c8.3-2.6,15.8-7.4,14.4-17.2
	C297.7,626.7,290.2,625.8,284.4,627.1z"/>
<path class="st0" d="M124.1,381.8c-2.2,3.2-5.4,6.1-6.5,9.7c-13.2,40.4-22.1,81.4-15.6,124.3c0.2,1.1,0,2.2,0,3.6
	c-15.9-29.5-9.5-102.8,18.6-163.3c23.4-50.3,70.7-93.1,119.3-118.8c-1.3,3.6-2.1,6.1-3.2,8.6c-9.9,22.9-14.3,46.6-9.6,71.5
	c9.4,49.5,55.2,81.7,115.3,63.5c61-18.5,97.3-61.7,105.6-125.4c2.2-16.6-2.9-34.1-4.8-51.8c35.2,11.2,71.4,23.7,90.2,62.6
	c12.9,26.6,22.9,54,19.3,84.2c-0.6,5.4-3,12-6.8,15.4c-43.3,38-86.7,76-130.9,113c-28.2,23.5-62.7,34.2-97.8,42.7
	c-19.4,4.7-38.9,8.8-58.5,12.5c-6.1,1.1-12.5,0.2-18.8,0.2c-0.5-1.1-0.9-2.1-1.4-3.2c4.2-4.8,8.1-10,12.7-14.5
	c41-39.8,91.6-63,143.5-84.3c33.5-13.7,67.3-26.9,95.5-50.8c22-18.6,30.7-40.5,23.5-68.9c-5.4-21.1-14.7-26.2-33.3-14.2
	c-21.1,13.7-42.5,27.4-61.4,43.8c-47.2,40.9-93.7,82.8-139.5,125.4c-33.2,30.8-66,62-108.4,79.8c-11.7,4.9-25.6,5.5-38.6,6.3
	c-7.9,0.5-12.8-5.2-15.4-13.4c-11.3-35.7-9.9-71.6-2.2-107.5c3.1-14.4,7.8-28.5,11.6-42.7c0.5-2,0.4-4.1,0.6-6.2
	C126.2,383.1,125.2,382.5,124.1,381.8z"/>
<path class="st0" d="M784,373c-28.3-16.9-53.7-33.4-80.5-47.6c-23.3-12.3-48.8-20.1-74.3-7.2c-12.5,6.3-22.7,17.3-33.9,26.2
	c-0.8,0.7-1.2,2.2-2.1,2.5c-6.1,2.5-12.2,4.9-18.3,7.2c-1.3-6.1-5.2-13.1-3.4-18.1c4.1-11.7,9.3-23.6,16.9-33.3
	c57.8-73.8,131.9-125.6,219.4-158.3c10.5-3.9,22.2-5.8,33.5-6.2c15-0.6,23.7,8.7,23,23.6c-0.4,8.7-2.4,17.6-5.5,25.8
	c-12.1,31.3-31.9,56.5-60.8,74.1c-11.4,6.9-22.9,13.5-33.9,21.1c-4.2,2.9-8.5,7.7-9.8,12.4c-1.8,6.5,5,10.7,12.9,8
	c9.4-3.2,18.3-7.9,27.9-10.7c11.2-3.2,24.5-8.9,33.1,2.3c9.1,11.8,1.9,24.8-5.7,34.6C810.5,344.9,796.7,358.8,784,373z"/>
<path class="st0" d="M753.1,374c-12.9,12.2-25.1,20.1-32,31.3c-9.7,15.7-22.6,17.5-38.6,17.5c-28.1,0-37.4-9.7-34.4-38.5
	c0.8-7.7,1.9-15.5,1.6-23.2c-0.2-4-3.3-7.9-5.1-11.9c-2.9,3.6-8.3,7.4-8.2,10.9c0.6,16.9,2.6,33.7,4.3,50.5c0.3,2.9,1.7,5.7,2.2,8.6
	c2.3,12.2-2.4,18.6-14.8,18.8c-9.4,0.2-14.2,2.9-16.4,13.2c-4.5,21.3-24.2,30.8-49.5,22.5c-11.7-3.8-23-11.8-31.9-20.6
	c-12.3-12.1-13.1-28.7-3.9-44c12.9-21.4,30-37.7,57.1-38.2c15.6-0.3,26.2-10,36.2-19.5c19.5-18.4,41.8-20.6,64.8-11.3
	C707.1,349.3,728.5,361.7,753.1,374z"/>
<path class="st0" d="M688.9,668.9c3.6,33.4-5.5,59.6-27.8,80.7c-46.2,43.8-126.9,39.2-168.2-9c-11.7-13.7-18.3-29.5-19.1-47.4
	c-0.6-14.2,6.2-18.3,18.6-11.5c6.1,3.3,12,7.3,17.5,11.6c40.5,32,130.7,34.5,169.8-16.2C681.7,674.6,684.5,672.8,688.9,668.9z"/>
<path class="st0" d="M573.5,290.9c-7.6-15.4-16.4-30.4-22.4-46.5c-3.2-8.4-3.8-19.2-1.6-28c9.9-40,26.9-76.6,57.6-105.3
	c6.6-6.2,14.8-10.8,22.7-15.4c7-4.1,12-0.8,14.8,6.1c1.1,2.7,1.9,5.6,2.3,8.5c4.5,35.5,5.2,70.8-6.3,105.2c-2,6-6.2,11.6-10.6,16.3
	C611.9,251.2,593.4,270.2,573.5,290.9z"/>
<path class="st1" d="M806.3,442.9c2.8,1,6,1.4,8.2,3.1c11,8.8,16.5,20.8,18.1,34.4c0.5,4.1-0.3,9.2-2.6,12.5
	c-1.9,2.7-6.7,4.7-10.2,4.6c-2.2-0.1-4.8-4.4-6.3-7.2c-4.5-8.4-8-17.2-12.9-25.3c-1.9-3.2-6.3-4.8-9.6-7.1c-0.8,0.9-1.7,1.7-2.5,2.6
	c2.7,3.6,5.3,7.4,8.1,10.9c9.3,11.5,14.2,24.9,11.8,39.2c-1.2,7.1-6.3,15.6-12.2,19.3c-4.1,2.5-13.5-0.5-18.9-3.8
	c-10.7-6.5-19.1-15.9-23.6-30.1c5.7,0,10.2-0.1,14.8,0c5.8,0.2,8-2.6,5.2-7.5c-8-14.1-20.9-22.6-35.5-28.6c-1.5-0.6-4,0.9-7.6,1.8
	c9.8,17.3,23.3,32.9,14.4,57.2c-4.9-5.4-8.2-9.3-11.9-12.9c-7.4-7.4-14.6-15.1-22.8-21.6c-7.4-5.9-11.3-16.2-6.4-25.6
	c3.2-6,7.9-11.6,13-16.2c6-5.5,11.9-9,8-19.7c-3.4-9.4,30-42.5,39-38.8c20.8,8.4,41.9,17.1,60.4,29.4c8.3,5.5,11.2,19.8,15.3,30.6
	c1,2.6-2.6,7-4.1,10.5c-3.3-1.6-6.9-2.8-9.7-5c-4.9-3.8-9.3-8.3-13.9-12.5C810,438.9,808.2,440.9,806.3,442.9z"/>
<path class="st0" d="M528.8,593.6c36.9,7.1,92.9-31.9,103.8-71c2-7,2.8-14.5,3.6-21.8c0.8-7.6,5.2-9.6,10.2-5
	c4.9,4.5,9.2,10.7,11.2,16.9c16.7,52.8-18.6,108.7-73.5,117.9c-25.2,4.2-49.7,3.7-71.5-11.1c-6.1-4.1-14.5-12.5-13.7-17.7
	c1.6-9.9,13-8.2,21.4-8.4C523.3,593.6,526.2,593.6,528.8,593.6z"/>
<path class="st1" d="M259.6,651.9c10.1,2.1,20.1,5.1,20.8,17.3c0.3,4.9-2.6,10-4.1,15c-1.2-0.2-2.4-0.4-3.5-0.5
	c-1.7-2.6-3.3-5.1-5.7-8.8c-6,4.4-11.6,8.5-17.1,12.7c-2,1.6-3.6,3.7-5.6,5.3c-11.4,9.5-21,11.3-29.1,5.5c-7.7-5.6-8.9-17.3-1.7-34
	c3.8,7.7,6.5,13.1,9.5,19.3c7.4-2.8,6.7-9.4,4.9-15c-3.6-11.2-8.2-22.1-12.8-33c-6.4-14.9-6-19.7,8.9-26.5
	c12.1-5.5,25.7-8.4,38.9-10.3c4.7-0.7,11.8,4,15,8.3c2.2,3,0.8,10-1.3,14.2c-0.8,1.7-7.6,0.9-11.5,0.5c-4.7-0.5-9.4-1.9-14.1-2.9
	c-0.3,0.9-0.6,1.8-0.9,2.7c4.1,2.1,9,3.5,12.1,6.6c4.4,4.4,7.6,10,11.3,15.1C269.3,646.1,265,648.6,259.6,651.9z"/>
<path class="st0" d="M282.8,590.6c-24.7-14.3-45.8,0.1-67,8.5c-23.4,9.3-26.7,23.9-12.4,44.5c1,1.5,2.2,2.9,3.6,4.9
	c-9.9,12.7-19,25.8-9.6,44.7c-18.2-6.6-27-19.5-32-35.1c-5.5-17.5-0.2-33,12.7-45.5c4.6-4.4,7-8.2,6.9-14.9
	c-0.1-13.9,8.5-22.4,21-26.8c21.9-7.6,43.7-6.6,64.7,2.9c5.7,2.5,9.8,8.5,14.7,12.9C284.6,588,283.7,589.3,282.8,590.6z"/>
<path class="st0" d="M401.6,948.3c28.8-35.3,60.1-68.7,69.8-114.2c18.3,10.9,36.5,21.8,56,33.4C490.9,902.6,446.9,926.4,401.6,948.3
	z"/>
<path class="st1" d="M411.1,403.6c-7.7-16.9-1.9-27.2,11.9-35c7.3-4.1,13.6-10,22.2-16.5c1.2,10.1,2.4,18.6,3.1,27.1
	c0.1,1.4-1.4,3.5-2.8,4.3C434.2,390.3,422.7,396.9,411.1,403.6z"/>
<path class="st1" d="M461.2,373.3c-5.1-27.9-2.6-33.1,23.8-48.6C495.4,349,488.1,363.8,461.2,373.3z"/>
<path class="st1" d="M380.2,184.6c0.2,11-12.3,25.1-23.3,26.1c-8.1,0.7-13.3-4.8-12.2-13c1.4-10.1,12.3-21.6,22.4-23.6
	C374.8,172.4,380.1,176.7,380.2,184.6z"/>
<path class="st1" d="M359.6,432.2c-0.4-23.9,21.9-24.7,31.3-38.3c6.1,18.5,6.1,18.5-8.3,26.2C375.5,423.9,368.4,427.5,359.6,432.2z"
	/>
<path class="st1" d="M284.4,627.1c5.8-1.3,13.3-0.5,14.4,7.4c1.4,9.8-6.2,14.6-14.4,17.2C284.4,643.6,284.4,635.7,284.4,627.1z"/>
</svg>
