<?xml version="1.0" encoding="utf-8"?>
<!-- Generator: Adobe Illustrator 22.0.1, SVG Export Plug-In . SVG Version: 6.00 Build 0)  -->
<svg version="1.1" id="Layer_1" xmlns="http://www.w3.org/2000/svg" xmlns:xlink="http://www.w3.org/1999/xlink" x="0px" y="0px"
	 viewBox="0 0 897.8 1000" style="enable-background:new 0 0 897.8 1000;" xml:space="preserve">
<style type="text/css">
	.st0{fill:#FFDE05;}
</style>
<path class="st0" d="M0,80c0-3,0-5.9,0-8.9c9-10.4,21.1-9.9,32.8-8c50.1,8,98.9,22,144.1,44.5c36.2,18,69.8,41.4,104.3,62.7
	c9.2,5.7,17.5,7.3,27.8,1.8c19.6-10.5,40.9-14.3,63.2-12.5c3.7,0.3,7.5,0,13.9,0C347.7,119.2,311.2,81,262.4,57.8
	c-24.6-11.7-49.6-22.8-73.7-35.4c-14.3-7.4-14.1-12.7-2-22.4c3,0,5.9,0,8.9,0c9.1,3.8,18.8,6.7,27.2,11.6
	c70.3,40.5,134.9,88,186.5,151.7c3.9,4.8,11,8.5,17.3,9.8c30.7,6.3,61.9,11,86.9,32.6c2.1,1.8,4.7,3.2,7.4,5
	c1.8-4.2,3.3-7.6,4.7-10.9c11.6-27.9,22.7-56.1,42.4-79.8c16.9-20.3,34.4-39.9,58.1-52.3c18.9-9.9,32-5.7,40,14
	c4.8,11.8,8.2,24.7,9,37.3c1.4,22.3,0.4,44.8,0.4,69.7c14.9-10.4,27.8-19.4,40.6-28.4C749.3,137,784,117.1,824,107.7
	c36.8-8.7,55.9-1.1,73.8,30c0,10.4,0,20.7,0,31.1c-6.1,16.1-10.1,33.3-18.7,47.9c-10.9,18.7-25.4,35.3-38.3,52.7
	c16,8.5,24.8,23.5,20.8,42.9c-2.2,10.7-8.3,21.4-14.9,30.4c-11.2,15.3-24.2,29.3-37,44.6c28,10,42.1,30,46.7,57.8
	c1.5,9.3-0.8,16.4-7.2,23.1c-2.5,2.7-4.6,7.5-4.1,10.9c3.8,23.5,0.9,28.8-20.7,35c-0.5,2.9-1.4,5.8-1.5,8.7
	c-0.5,19.5-18.5,28.5-34.7,21.2c-10.3-4.6-19.9-10.7-30.3-16.5c-10.5,6.2-17.6,4.9-26.1-6.9c-9.2-12.7-18.9-24.3-34.2-30.5
	c-4.2-1.7-8.1-9-8.4-14c-0.6-9.6,1.4-19.3,2.3-29.3c-4.3-0.4-8.7-1-13.1-1.2c-3.1-0.2-7.6-1.2-9.1,0.4c-5.8,6-10.6,12.9-16.5,20.3
	c3.6,4.6,10,11.7,15.2,19.7s8.9,17,13.5,25.4c1,1.8,3,3.2,4.8,4.5c38.2,29.1,49.3,65.8,34,110.6c-1.3,3.9-1.1,8.5-0.6,12.6
	c5.2,42.7,2.1,84-26,118.7c-12.7,15.8-25.9,30.7-37.6,47.6c-22.1,31.9-53.4,53.7-93,61.2c-5.8,1.1-12.1,4-16.5,8
	c-37.4,34.2-79.1,62-124,85c-28.4,14.6-58.1,26.8-87.2,40.1c-5.2,0-10.4,0-15.6,0c2.3-3.6,4-7.8,7.1-10.6
	c14.1-12.5,28.4-24.8,42.9-36.8c37.4-30.8,66.2-67.1,78.1-115.3c3.7-14.9,4.8-28.7-1.4-43c-9.4-21.8-11.6-43,8.3-60.7
	c-1.5-3.1-2.8-5.3-3.8-7.6c-9.8-23.9-12-46.5,10.6-65.3c1.7-1.4,1.8-5.8,1.4-8.7c-1.9-13.4-2.8-26.4,5.7-38.3
	c5.7-8.1,0.4-15.4-4.4-21c-2.8-3.3-9.6-5.6-13.9-4.7c-42.7,9.2-85.5,12.5-128.7,4.9c-11.9-2.1-12.2,7.1-16,12.8
	c-3.6,5.5-6.5,10.9,0.5,17.5c10.2,9.7,8,23.2-3.8,31c-3.6,2.3-7.7,3.8-11.5,5.6c4.9,22.5,1.5,29.6-18.8,40.4
	c-20,10.7-41.4,11.9-63.5,9.6c-19.1-2-36.2-8-48.8-22.9c-24.6-29.4-22.6-60.7,4.3-89.4c4.5-4.8,7.1-11.5,10.5-17.4
	c-1-0.8-2-1.6-3-2.4c-2.8,0.5-5.5,1-8.3,1.6c-44.5,9.7-73.1-4-88.7-46.2c-6.5-17.6-9.3-37.3-10.2-56.3
	c-3.4-67.3,24.3-124,62.7-176.8c4.2-5.8,7.8-12.5,10-19.3c11-33.5,29-62.3,57.8-83.3c20.2-14.7,43.5-20.5,68.8-19.6
	c-0.7-1.6-0.8-2.3-1.2-2.8c-1.4-1.2-2.8-2.4-4.3-3.4c-68.8-44.9-143-74.5-225.7-81C21.8,89.7,11,83.6,0,80z M124.1,381.8
	c1,0.6,2.1,1.3,3.1,1.9c-0.2,2.1-0.1,4.2-0.6,6.2c-3.9,14.2-8.5,28.3-11.6,42.7c-7.7,35.9-9.1,71.8,2.2,107.5
	c2.6,8.2,7.5,13.9,15.4,13.4c13-0.8,26.9-1.3,38.6-6.3c42.3-17.8,75.2-48.9,108.4-79.8c45.8-42.6,92.2-84.4,139.5-125.4
	c18.9-16.4,40.3-30.1,61.4-43.8c18.5-12,27.9-7,33.3,14.2c7.2,28.4-1.5,50.3-23.5,68.9c-28.3,23.9-62.1,37.1-95.5,50.8
	c-51.9,21.3-102.5,44.6-143.5,84.3c-4.6,4.5-8.5,9.6-12.7,14.5c0.5,1.1,0.9,2.1,1.4,3.2c6.3,0,12.7,1,18.8-0.2
	c19.6-3.7,39.2-7.8,58.5-12.5c35.1-8.5,69.6-19.1,97.8-42.7c44.2-36.9,87.6-74.9,130.9-113c3.9-3.4,6.2-10,6.8-15.4
	c3.6-30.2-6.4-57.6-19.3-84.2c-18.8-38.9-55.1-51.4-90.2-62.6c1.8,17.7,6.9,35.2,4.8,51.8c-8.3,63.7-44.6,106.9-105.6,125.4
	c-60.1,18.2-105.8-14-115.3-63.5c-4.7-24.8-0.3-48.5,9.6-71.5c1.1-2.5,1.9-5,3.2-8.6c-48.6,25.6-95.9,68.5-119.3,118.8
	c-28.2,60.7-34.7,134-18.8,163.5c0-1.4,0.1-2.5,0-3.6c-6.4-42.9,2.4-83.9,15.6-124.3C118.7,388,121.9,385.1,124.1,381.8z M784,373
	c12.7-14.2,26.5-28.1,38.5-43.5c7.6-9.8,14.8-22.8,5.7-34.6c-8.6-11.2-22-5.5-33.1-2.3c-9.5,2.7-18.4,7.5-27.9,10.7
	c-7.9,2.7-14.7-1.5-12.9-8c1.3-4.7,5.6-9.5,9.8-12.4c10.9-7.6,22.5-14.2,33.9-21.1c28.9-17.6,48.7-42.9,60.8-74.1
	c3.1-8.1,5.1-17.1,5.5-25.8c0.7-14.9-8-24.2-23-23.6c-11.3,0.4-23,2.3-33.5,6.2c-87.5,32.7-161.5,84.6-219.4,158.3
	c-7.6,9.7-12.8,21.6-16.9,33.3c-1.8,5,2.1,12,3.4,18.1c6.1-2.4,12.3-4.7,18.3-7.2c0.9-0.4,1.2-1.9,2.1-2.5
	c11.2-8.9,21.4-19.8,33.9-26.2c25.5-12.9,51-5.1,74.3,7.2C730.3,339.6,755.7,356.1,784,373z M753.1,374
	c-24.5-12.3-46-24.6-68.7-33.9c-23-9.3-45.3-7.1-64.8,11.3c-10,9.4-20.6,19.2-36.2,19.5c-27,0.5-44.2,16.8-57.1,38.2
	c-9.2,15.3-8.4,31.9,3.9,44c8.9,8.8,20.2,16.8,31.9,20.6c25.3,8.3,45-1.2,49.5-22.5c2.2-10.3,7-13.1,16.4-13.2
	c12.4-0.2,17.1-6.6,14.8-18.8c-0.5-2.9-1.9-5.7-2.2-8.6c-1.7-16.8-3.7-33.6-4.3-50.5c-0.1-3.5,5.3-7.3,8.2-10.9
	c1.8,4,4.9,7.9,5.1,11.9c0.4,7.7-0.8,15.5-1.6,23.2c-3,28.7,6.4,38.5,34.4,38.5c16.1,0,28.9-1.8,38.6-17.5
	C728,394.1,740.2,386.2,753.1,374z M688.9,668.9c-4.3,3.9-7.1,5.7-9.1,8.2c-39.1,50.7-129.3,48.2-169.8,16.2
	c-5.5-4.3-11.4-8.3-17.5-11.6c-12.4-6.8-19.2-2.7-18.6,11.5c0.7,17.9,7.4,33.7,19.1,47.4c41.3,48.3,122,52.8,168.2,9
	C683.4,728.5,692.5,702.3,688.9,668.9z M573.5,290.9c19.9-20.7,38.4-39.7,56.4-59.1c4.4-4.7,8.6-10.3,10.6-16.3
	c11.6-34.4,10.8-69.7,6.3-105.2c-0.4-2.9-1.2-5.8-2.3-8.5c-2.8-7-7.8-10.3-14.8-6.1c-7.9,4.6-16.1,9.3-22.7,15.4
	c-30.7,28.7-47.7,65.3-57.6,105.3c-2.2,8.7-1.5,19.5,1.6,28C557.1,260.4,565.9,275.5,573.5,290.9z M806.3,442.9c1.9-2,3.7-4,5.6-6
	c4.6,4.2,9,8.7,13.9,12.5c2.8,2.2,6.5,3.4,9.7,5c1.5-3.6,5.1-7.9,4.1-10.5c-4.2-10.8-7-25.1-15.3-30.6c-18.5-12.3-39.6-21-60.4-29.4
	c-9-3.6-42.4,29.5-39,38.8c3.9,10.7-2,14.2-8,19.7c-5.1,4.7-9.8,10.2-13,16.2c-4.9,9.4-1,19.7,6.4,25.6c8.1,6.5,15.3,14.3,22.8,21.6
	c3.6,3.6,7,7.5,11.9,12.9c8.9-24.3-4.7-39.9-14.4-57.2c3.7-0.9,6.1-2.4,7.6-1.8c14.6,6.1,27.4,14.6,35.5,28.6
	c2.8,4.9,0.6,7.7-5.2,7.5c-4.5-0.2-9.1,0-14.8,0c4.6,14.2,12.9,23.5,23.6,30.1c5.4,3.3,14.9,6.4,18.9,3.8c5.9-3.7,11-12.1,12.2-19.3
	c2.4-14.3-2.4-27.7-11.8-39.2c-2.8-3.5-5.4-7.2-8.1-10.9c0.8-0.9,1.7-1.7,2.5-2.6c3.3,2.3,7.7,3.9,9.6,7.1c4.9,8.1,8.4,17,12.9,25.3
	c1.5,2.9,4.1,7.1,6.3,7.2c3.4,0.2,8.3-1.8,10.2-4.6c2.2-3.3,3.1-8.4,2.6-12.5c-1.6-13.6-7.1-25.7-18.1-34.4
	C812.3,444.3,809.1,443.9,806.3,442.9z M528.8,593.6c-2.6,0-5.6,0-8.5,0c-8.4,0.2-19.7-1.6-21.4,8.4c-0.8,5.1,7.6,13.5,13.7,17.7
	c21.8,14.7,46.3,15.3,71.5,11.1c54.9-9.2,90.2-65.1,73.5-117.9c-2-6.3-6.4-12.4-11.2-16.9c-5-4.6-9.4-2.6-10.2,5
	c-0.8,7.3-1.6,14.7-3.6,21.8C621.7,561.7,565.7,600.8,528.8,593.6z M259.6,651.9c5.4-3.2,9.8-5.8,14.1-8.4
	c-3.7-5.1-6.8-10.8-11.3-15.1c-3.2-3.1-8-4.5-12.1-6.6c0.3-0.9,0.6-1.8,0.9-2.7c4.7,1,9.3,2.4,14.1,2.9c4,0.4,10.7,1.2,11.5-0.5
	c2-4.2,3.5-11.3,1.3-14.2c-3.2-4.3-10.3-9-15-8.3c-13.2,1.9-26.8,4.8-38.9,10.3c-14.8,6.8-15.2,11.6-8.9,26.5
	c4.6,10.8,9.2,21.8,12.8,33c1.8,5.6,2.5,12.2-4.9,15c-3.1-6.2-5.8-11.7-9.5-19.3c-7.3,16.7-6,28.5,1.7,34c8,5.8,17.7,4,29.1-5.5
	c2-1.6,3.6-3.8,5.6-5.3c5.5-4.2,11.1-8.3,17.1-12.7c2.4,3.7,4,6.2,5.7,8.8c1.2,0.2,2.4,0.4,3.5,0.5c1.5-5,4.3-10.1,4.1-15
	C279.7,657,269.6,653.9,259.6,651.9z M282.8,590.6c0.9-1.3,1.7-2.6,2.6-3.9c-4.9-4.4-9-10.3-14.7-12.9c-21-9.4-42.8-10.5-64.7-2.9
	c-12.5,4.4-21.1,12.8-21,26.8c0,6.7-2.4,10.5-6.9,14.9c-12.9,12.5-18.2,27.9-12.7,45.5c4.9,15.7,13.8,28.5,32,35.1
	c-9.4-18.8-0.3-32,9.6-44.7c-1.5-2-2.6-3.4-3.6-4.9c-14.3-20.6-11-35.2,12.4-44.5C237,590.8,258.1,576.3,282.8,590.6z M401.6,948.3
	c45.3-21.9,89.2-45.8,125.8-80.8c-19.5-11.6-37.7-22.5-56-33.4C461.7,879.6,430.5,913,401.6,948.3z M411.1,403.6
	c11.6-6.7,23.1-13.3,34.4-20.1c1.4-0.8,2.9-2.9,2.8-4.3c-0.7-8.5-1.9-17-3.1-27.1c-8.6,6.5-14.9,12.4-22.2,16.5
	C409.2,376.4,403.4,386.7,411.1,403.6z M461.2,373.3c26.9-9.4,34.2-24.3,23.8-48.6C458.7,340.2,456.2,345.4,461.2,373.3z
	 M380.2,184.6c-0.1-7.8-5.4-12.1-13.1-10.6c-10.1,2-21,13.6-22.4,23.6c-1.1,8.2,4.1,13.8,12.2,13
	C367.9,209.7,380.4,195.6,380.2,184.6z M359.6,432.2c8.8-4.6,15.9-8.3,23-12.1c14.4-7.7,14.4-7.7,8.3-26.2
	C381.5,407.5,359.2,408.2,359.6,432.2z M284.4,627.1c0,8.5,0,16.5,0,24.6c8.3-2.6,15.8-7.4,14.4-17.2
	C297.7,626.7,290.2,625.8,284.4,627.1z"/>
</svg>
