<svg xmlns="http://www.w3.org/2000/svg" viewBox="0 0 1140.5 1221.64"><defs><style>.a{fill:#373a3c;}</style></defs><title>john</title><path class="a" d="M831.68,636.15c14.73-24.29,33.33-30.74,30.07-63.35-2.18-21.82-11.43-49.07-26-64.93,28.06-1.12,37.93,25.66,37.52,49.86,10.71-23-11.86-61.69-30.15-76.36-15.62-12.58-35.93-19.51-48.64-35.54-8.57-10.8-10.12-25.4-17.88-36.16-4-5.55-7.74-7.85-11.37-8.17-5.45-13.2-24.45-17.86-21.67-14.47,7.13,8.7,1.66,20.15-6.48,27.57-3.88,3.64-8.4,6.34-12.45,7.33-19.91,5-33.29-11.13-47.57-21.41-29.8-21.48-79.18-40.84-106.24-3.94l-1.35,1.11-1.35-1.11c-27-36.91-76.44-17.54-106.23,3.94-13.34,9.58-25.88,24.27-43.71,22.12-9-10-16.81-21.09-25.21-21.18-1.56-4.95-1.18-10,2.43-14.43,3.13-3.81-21.37,2.53-23,19.79a50.45,50.45,0,0,0,1.56,16c-3.14,7.89-5.77,16.19-11.17,23-12.69,16-33,23-48.63,35.54C295.9,496,273.34,534.71,284,557.73c-.39-24.2,9.49-51,37.57-49.86-14.6,15.86-23.84,43.11-26,64.93-3.24,32.61,15.35,39.06,30.07,63.35-15.75,13.36-28.57,13.08-37.41,35.5-8.45,21.29-8.81,47.12,3.73,67,5.39,8.6,19.35,16.14,22.41,26,3.38,11.06-3.77,20.43,1.31,31.85,6.47,14.64,18.64,38.5,33.76,47-6.5,14.6-.36,38.28,11.79,54.11,1.86,9.52,5,16.63,9.88,16.59,1,20.69,2.45,34.34,15.67,51.53,4.32,5.62,13.33,15.67,20.11,18.69,7.73,3.41,16,.62,22.29,5.87,23,19.23.91,85.32,11.18,110.36,2.11-8.23,4.29-17.45,12.78-23.94.95,19-2.86,40.82,1.67,59.16,4.33,17.51,17,40.3,26.1,55.93,10.51,18,24.87,30.31,47.08,29.78,26.15-.62,27.86-11.6,28-33.65-.72,11.88-9.79,20.88-22,14.7a46.72,46.72,0,0,1-5.51-22c0-28.51,25.42-56.64,50.29-77.49,7.39-6.2,14.73-11.75,21.31-16.48a.17.17,0,0,1,.12-.08c2.18-1.59,4.27-3,6.26-4.42,13.8-9.43,10.91-12.91,18.56-24.65,1.62-2.59-.55-6.05,1.71-9.05,1.63-2.16,8.05,1.42,9.56-.21,2.37-2.57,6.39-12.3,7.66-13.29,9.13-7.07,17.8-5.51,24-18.48,4.91-10.48,3.41-21.42,4-32.9,37.83,7.85,61.56-47.87,54-78.72,19.76-1.12,61.53-10,56-38.89,26.85,19.44-11.31,42.64-31.38,40.39,34.48,29.2,70.14-34.32,57.41-62.89,15.11-8.47,27.29-32.33,33.8-47,5-11.42-2.11-20.79,1.31-31.85,3-9.88,17-17.41,22.4-26,12.51-19.93,12.15-45.75,3.74-67C860.24,649.24,847.43,649.52,831.68,636.15ZM670,464.51c0,.49,0,1,.12,1.46.1.75.28,1.52.44,2.29.09.39.14.79.24,1.18,0,.07,0,.15,0,.23-2.69-3.36-5.2-7.18-4.76-11.47a22.14,22.14,0,0,0,3.93,2.89c0,.49-.12,1-.12,1.46C669.93,463.2,670,463.86,670,464.51Zm-51.7-21c13,12.91,33.73,27.8,53,27.63.11.37.21.73.33,1.11s.13.49.2.71c.76,2.4,1.64,4.8,2.46,7.23a42,42,0,0,1,2.54,12.11c-4.25-.79-9.57,1.39-14,.17a17.33,17.33,0,0,1-.47,3.6c-.08.36-.24.67-.32,1a18.24,18.24,0,0,1-.79,2c-.16.32-.4.64-.6,1a11.48,11.48,0,0,1-1,1.5c-.23.28-.54.51-.79.81-.43.39-.88.79-1.36,1.14a5.82,5.82,0,0,1-1,.62A16.21,16.21,0,0,1,655,505a9.89,9.89,0,0,1-1.12.45,14.63,14.63,0,0,1-1.85.62,7.66,7.66,0,0,1-1.16.32c-.67.17-1.42.32-2.14.45-.4,0-.75.11-1.12.15-.83.11-1.66.21-2.49.24a9,9,0,0,1-1,.07c-1,0-1.95.07-3,.07h-.63c-7.14,0-4.11,2.19-10,1.83l-6.5.5c-1.36-.07-8.85,3.5-10,3.5.13,2.7-10.72-6.5-14.74-2.38-5.79-8.54-2.66-17.86-7.21-16.52a15.14,15.14,0,0,1-9.74-.64,17.88,17.88,0,0,0-3.8-1c-6.69,1-11.11-2.94-16,2.5-18.5-2.5-12.5,3.5-20.34,19.59.32-2.66-19.74,2.61-19.66-.09-14.2-.24-27.27-.3-28-22.27-4.36,1.22-9.72-1-14-.17.15-6.9,3.33-13.72,5.3-20.32a40.58,40.58,0,0,0,1.28-5.1c12.83-5.32,25-14.75,33.63-23.37-.47,2.31.36,4.84.08,7,11.78-7.18,37.09-12.09,48.75-24.57,11.67,12.48,37,17.39,48.76,24.57C618,448.36,618.82,445.83,618.35,443.52Z"/><path class="a" d="M684.68,201.49c-12.79,0-42.4,1-57.21,4.38s-39,4.38-39,4.38H560.15c-13.8,0-28.94-.67-35.67-2s-35-4.71-35-4.71c-38-1.35-37.36-.67-73,3S373,215,370.34,215.63a9.17,9.17,0,0,0-4,2l1.35,21.54c9.09,7.07,8.75,14.13,8.75,14.13l1.68,28.27c.67,8.75,2.36,9.42,2.36,9.42l14.81,16.15a15.29,15.29,0,0,0,6.39,2.69c66,10.77,95.92,6.42,95.92,6.42,25.24-2,29.28-14.16,32-16.51s5.72-9.76,5.72-9.76c20.53-53.17,19.86-48.13,19.86-48.13s3-9.42,14.81-9.09,8.08.67,12.12,2.69,9.09,13.8,9.09,13.8l18.17,44.42c7.74,8.75,8.41,20.19,39.38,22.21s86.49-5,92.55-6.73,7.4-3,7.4-3L762.75,291c1.68-1.68,2.69-5.38,2.69-5.38s1.68-24.9,2.36-34.33a16.23,16.23,0,0,1,8.75-13.13l2-22C757,204.52,697.46,201.49,684.68,201.49ZM537.27,241.88c-2,17.5-17.5,57.89-29.28,62.77,0,0-3,5.22-21.54,5.55s-57.55-.34-75.72-5.55-25.24-15-25.24-43.58c0,0-1-24.9,0-28.61s-.67-9.76,15.48-14.81,56.88-8.75,82.45-6.73,44.76,6,49.47,10.74S539.29,224.38,537.27,241.88Zm220.87,18.88c0,28.78-7.17,38.6-25.61,43.85s-58.05,5.93-76.83,5.59-21.85-5.59-21.85-5.59c-12-4.91-27.66-45.54-29.71-63.15s-.34-15.58,4.44-20.34,24.25-8.78,50.2-10.81S726,212,742.43,217.09s14.68,11.17,15.71,14.9S758.14,260.76,758.14,260.76Z"/><path class="a" d="M570.25,1122.62a552.51,552.51,0,0,1-215-1061.33,552.51,552.51,0,0,1,430,1017.92A548.93,548.93,0,0,1,570.25,1122.62Zm0-1086.94A534.71,534.71,0,0,0,362.17,1062.81,534.71,534.71,0,0,0,778.33,77.68,531.22,531.22,0,0,0,570.25,35.68Z"/><path class="a" d="M570.25,1140.5a570.4,570.4,0,0,1-222-1095.68A570.4,570.4,0,0,1,792.22,1095.68,566.68,566.68,0,0,1,570.25,1140.5Zm0-1136A565.95,565.95,0,0,0,350,1091.58,565.95,565.95,0,0,0,790.48,48.91,562.26,562.26,0,0,0,570.25,4.45Z"/></svg>